<svg width="484" height="317" viewBox="0 0 484 317" fill="none" xmlns="http://www.w3.org/2000/svg">
<g filter="url(#filter0_d)">
<rect x="238.705" y="22.9193" width="86.2064" height="109.688" rx="10.1115" fill="white"/>
</g>
<rect x="237.087" y="20.0059" width="89.7638" height="118.176" rx="10.1115" fill="white"/>
<rect x="265.793" y="104.25" width="32.354" height="4.25353" rx="2.12677" fill="#B1B3CB"/>
<rect x="255.275" y="115.18" width="53.3906" height="4.25353" rx="2.12677" fill="#D9DBE9"/>
<rect x="258.595" y="122.758" width="46.7508" height="4.25353" rx="2.12677" fill="#D9DBE9"/>
<path d="M274.187 87.7788C270.529 86.6425 267.163 84.7186 264.328 82.1424C261.492 79.5662 259.256 76.4002 257.775 72.8669C256.294 69.3337 255.605 65.519 255.756 61.6909C255.907 57.8629 256.895 54.1144 258.65 50.7089" stroke="#FFC147" stroke-width="10.6338" stroke-linecap="round"/>
<path d="M257.438 53.4286C259.614 47.6894 263.732 42.8946 269.078 39.8786C274.424 36.8627 280.657 35.8165 286.695 36.9223C292.732 38.028 298.19 41.2157 302.12 45.9304C306.05 50.6452 308.202 56.5885 308.202 62.7262" stroke="#4457FF" stroke-width="10.6338" stroke-linecap="round"/>
<path d="M308.202 62.7262C308.202 67.4441 306.929 72.0746 304.519 76.1302C302.108 80.1857 298.648 83.5161 294.504 85.7705C290.36 88.0249 285.684 89.12 280.97 88.9403C276.255 88.7607 271.676 87.3129 267.716 84.7496" stroke="#FF5F85" stroke-width="10.6338" stroke-linecap="round"/>
<path d="M216.472 147.837H207.427C205.049 147.837 203.121 149.765 203.121 152.143V160.637C203.121 163.016 205.049 164.943 207.427 164.943H216.472C218.85 164.943 220.778 163.016 220.778 160.637V152.143C220.778 149.765 218.85 147.837 216.472 147.837Z" fill="#596AFF"/>
<path d="M182.531 9H173.486C171.108 9 169.18 10.9278 169.18 13.3059V21.8007C169.18 24.1788 171.108 26.1066 173.486 26.1066H182.531C184.909 26.1066 186.837 24.1788 186.837 21.8007V13.3059C186.837 10.9278 184.909 9 182.531 9Z" fill="#FFC147"/>
<path d="M466.498 135.429H457.453C455.075 135.429 453.147 137.357 453.147 139.735V148.229C453.147 150.607 455.075 152.535 457.453 152.535H466.498C468.876 152.535 470.804 150.607 470.804 148.229V139.735C470.804 137.357 468.876 135.429 466.498 135.429Z" fill="#FFC147"/>
<path d="M396.704 13.439H383.308C379.786 13.439 376.931 16.2941 376.931 19.816V32.397C376.931 35.919 379.786 38.7741 383.308 38.7741H396.704C400.226 38.7741 403.081 35.919 403.081 32.397V19.816C403.081 16.2941 400.226 13.439 396.704 13.439Z" fill="#8364FF"/>
<path d="M38.5079 64.527H25.1119C21.59 64.527 18.7349 67.3821 18.7349 70.904V83.485C18.7349 87.007 21.59 89.8621 25.1119 89.8621H38.5079C42.0298 89.8621 44.885 87.007 44.885 83.485V70.904C44.885 67.3821 42.0298 64.527 38.5079 64.527Z" fill="#8364FF"/>
<rect x="292.682" y="203.809" width="41.6724" height="5.87021" rx="2.9351" fill="#FF5F85"/>
<rect x="37.5303" y="111.436" width="41.6724" height="5.87021" rx="2.9351" fill="#FF5F85"/>
<path d="M385.699 169.173H299.861C294.709 169.173 290.531 164.995 290.531 159.843V103.862C290.531 98.7103 294.709 94.5322 299.861 94.5322H385.699C390.851 94.5322 395.029 98.7103 395.029 103.862V159.843C395.029 164.995 390.851 169.173 385.699 169.173Z" fill="#7684FF"/>
<path d="M342.784 118.791L290.693 161.411C291.442 165.813 295.248 169.173 299.865 169.173H385.702C390.319 169.173 394.126 165.813 394.874 161.411L342.784 118.791Z" fill="#596AFF"/>
<path d="M290.692 102.295L338.743 141.61C341.092 143.532 344.471 143.532 346.823 141.61L394.873 102.295C394.125 97.8929 390.318 94.5322 385.701 94.5322H299.864C295.247 94.5322 291.441 97.8929 290.692 102.295Z" fill="#B3BBFF"/>
<path d="M381.216 189.733L408.53 189.733C415.684 189.733 421.484 183.933 421.484 176.778L421.484 151.136C421.484 143.981 415.684 138.182 408.53 138.182L381.216 138.182C374.061 138.182 368.262 143.981 368.262 151.136L368.262 176.778C368.262 183.933 374.061 189.733 381.216 189.733Z" fill="#FF5F85"/>
<path d="M403.081 160.42H381.868C380.566 160.42 379.511 161.475 379.511 162.777V165.134C379.511 166.436 380.566 167.491 381.868 167.491H403.081V160.42Z" fill="white"/>
<path d="M398.367 173.468C398.191 173.468 398.015 173.429 397.85 173.348C397.445 173.151 397.188 172.741 397.188 172.29V155.624C397.188 155.174 397.445 154.762 397.85 154.566C398.256 154.368 398.736 154.418 399.092 154.695L409.782 163.028C410.068 163.251 410.235 163.594 410.235 163.958C410.235 164.322 410.068 164.664 409.782 164.888L399.092 173.221C398.881 173.385 398.625 173.468 398.367 173.468Z" fill="white"/>
<path d="M20.7036 293.087C20.7886 292.923 20.8609 292.753 20.9198 292.579C21.0711 292.2 21.2441 291.714 21.471 291.119C21.9466 289.844 22.5519 287.974 23.3518 285.715C24.8758 281.1 26.789 274.658 28.821 267.513C30.8531 260.368 32.7014 253.926 34.1498 249.289C34.874 247.019 35.4577 245.16 35.89 243.798C36.0846 243.193 36.2359 242.717 36.3548 242.307C36.4212 242.136 36.4683 241.958 36.4953 241.777C36.3989 241.933 36.3226 242.1 36.2683 242.274C36.1278 242.663 35.9441 243.15 35.7171 243.744C35.2415 245.02 34.6362 246.879 33.8472 249.149C32.3123 253.764 30.3991 260.206 28.3779 267.351C26.3566 274.495 24.5299 280.959 23.0383 285.574C22.3249 287.844 21.7304 289.703 21.3089 291.055C21.1143 291.671 20.963 292.135 20.8333 292.557C20.7729 292.729 20.7294 292.906 20.7036 293.087Z" fill="#E0E0E0"/>
<path d="M72.9658 247.981L40.334 215.198L56.7418 185.063C82.3247 168.547 107.889 165.402 107.889 165.402C125.028 164.237 142.245 165.294 159.112 168.547C181.689 172.902 184.481 192.175 184.481 192.175L188.177 259.806L192.144 314.877L90.3789 316.931L72.9658 248.025" fill="#596AFF"/>
<path d="M127.788 313.71L36.637 314.791C31.6157 314.849 26.6619 313.63 22.241 311.249C17.82 308.867 14.077 305.4 11.3635 301.175C8.64995 296.95 7.05494 292.104 6.72828 287.093C6.40162 282.082 7.35402 277.07 9.49603 272.528L48.4727 200.25L83.9797 224.245L59.7571 274.474L133.538 275.792L127.788 313.71Z" fill="#596AFF"/>
<path d="M182.126 186.509L254.403 294.081L211.729 296.87C211.729 296.87 186.242 256.715 186.815 257.536C187.831 259.05 182.126 186.509 182.126 186.509Z" fill="#596AFF"/>
<path d="M82.1417 230.741C82.1443 230.543 82.1771 230.346 82.239 230.158C82.3471 229.725 82.466 229.185 82.6281 228.515C82.9632 227.099 83.4604 225.045 83.9684 222.494C84.4764 219.943 85.0493 216.874 85.406 213.458C85.845 209.756 85.845 206.016 85.406 202.314C84.8195 198.644 83.5393 195.118 81.6337 191.927C80.1022 189.299 78.2901 186.846 76.2293 184.609C74.8402 183.08 73.3603 181.637 71.7976 180.286C71.202 179.82 70.6319 179.322 70.0898 178.794C70.2658 178.881 70.4324 178.986 70.5871 179.107C70.8897 179.334 71.3761 179.648 71.9382 180.113C73.5635 181.396 75.0951 182.794 76.5211 184.296C78.6516 186.516 80.5227 188.971 82.0985 191.613C84.071 194.854 85.3927 198.448 85.9896 202.195C86.4176 205.943 86.3886 209.728 85.9032 213.469C85.5381 216.512 85.0186 219.536 84.3467 222.527C83.7846 225.088 83.2658 227.131 82.8226 228.536C82.6281 229.239 82.4551 229.779 82.3363 230.147C82.2907 230.351 82.2256 230.55 82.1417 230.741V230.741Z" fill="#2D21B3"/>
<path d="M79.2022 234.632C79.0462 235.195 78.8362 235.742 78.5753 236.265C78.143 237.345 77.4944 238.794 76.6622 240.588C75.0084 244.252 72.6629 249.289 69.9607 254.802C67.2585 260.314 64.7076 265.254 62.816 268.853C61.8649 270.626 61.0866 272.096 60.5354 273.036C60.2722 273.56 59.9686 274.062 59.6274 274.539C59.8216 273.987 60.0601 273.452 60.3408 272.939C60.8921 271.858 61.6055 270.41 62.5026 268.669L69.4959 254.618C72.1441 249.138 74.5544 244.187 76.3487 240.48C77.1918 238.74 77.8836 237.291 78.424 236.156C78.6403 235.628 78.9006 235.118 79.2022 234.632V234.632Z" fill="#3E395F"/>
<path d="M127.787 313.71C127.787 313.71 127.787 313.645 127.787 313.526C127.787 313.407 127.787 313.191 127.787 312.964C127.841 312.445 127.917 311.721 128.003 310.802C128.219 308.878 128.522 306.144 128.9 302.696C129.7 295.702 130.846 285.866 132.143 274.268L132.402 274.549H105.478L58.4484 274.474L44.1808 274.387L40.3004 274.333H39.2844H38.9385C39.0534 274.319 39.1695 274.319 39.2844 274.333H40.3004L44.1808 274.279L58.4484 274.193L105.553 274.117H132.478H132.77V274.398C131.343 285.985 130.143 295.821 129.279 302.804C128.846 306.241 128.49 308.976 128.198 310.9C128.083 311.807 127.985 312.528 127.906 313.061L127.819 313.613C127.809 313.645 127.798 313.71 127.787 313.71Z" fill="#2D21B3"/>
<path d="M60.3956 275.274C59.7427 274.553 59.1362 273.791 58.5797 272.993C55.6667 269.336 52.0594 266.291 47.9654 264.032C47.0911 263.609 46.2396 263.14 45.4146 262.627C46.374 262.852 47.2953 263.216 48.1492 263.708C52.4131 265.815 56.1005 268.927 58.8932 272.777C59.5068 273.536 60.0124 274.376 60.3956 275.274V275.274Z" fill="#2D21B3"/>
<path d="M189.691 282.429C189.612 282.121 189.561 281.806 189.54 281.489C189.464 280.829 189.367 279.932 189.237 278.797C188.988 276.463 188.653 273.079 188.297 268.896C187.551 260.52 186.697 248.932 185.94 236.135C185.184 223.337 184.654 211.728 184.351 203.33C184.2 199.125 184.092 195.764 184.049 193.375C184.049 192.24 184.049 191.343 183.995 190.673C183.978 190.36 183.978 190.046 183.995 189.733C184.055 190.043 184.087 190.357 184.092 190.673C184.092 191.332 184.178 192.24 184.243 193.375C184.362 195.775 184.524 199.158 184.73 203.308C185.13 211.707 185.724 223.294 186.481 236.102C187.237 248.911 188.037 260.476 188.643 268.864C188.967 273.004 189.226 276.43 189.41 278.786C189.496 279.867 189.561 280.819 189.615 281.478C189.669 281.792 189.695 282.11 189.691 282.429V282.429Z" fill="#2D21B3"/>
<path d="M235.023 278.084C234.637 277.79 234.275 277.465 233.942 277.111L230.981 274.258L220.81 264.292L221.264 264.108C221.177 266.767 221.091 269.642 220.993 272.636C220.896 275.63 220.777 278.603 220.68 281.283V281.91L220.237 281.467L210.336 271.361L207.504 268.41C207.152 268.075 206.827 267.714 206.531 267.329C206.916 267.625 207.278 267.95 207.612 268.302L210.552 271.145L220.604 281.11L220.14 281.294C220.226 278.592 220.323 275.674 220.421 272.647C220.518 269.621 220.637 266.778 220.734 264.119V263.503L221.166 263.935L231.186 274.052L234.051 277.014C234.404 277.343 234.729 277.701 235.023 278.084V278.084Z" fill="#E0E0E0"/>
<path d="M130.846 288.06C130.846 288.06 149.027 282.818 155.047 281.283C157.393 280.689 167.434 285.985 174.374 290.395C174.374 290.395 183.929 296.059 183.161 297.799C182.307 299.723 178.838 299.334 173.163 296.718C173.163 296.718 175.13 302.415 171.271 302.285C171.271 302.285 173.185 308.446 169.574 309.084C165.964 309.721 165.121 301.863 161.943 301.442C158.766 301.02 152.215 300.588 152.215 300.588C152.215 300.588 146.735 309.667 142.488 310.316C138.24 310.964 128.436 309.808 128.436 309.808L130.846 288.06Z" fill="#FCD0CA"/>
<path d="M161.879 289.314C163.659 290.107 165.36 291.066 166.96 292.179C168.657 293.139 170.257 294.261 171.737 295.529C168.256 293.786 164.954 291.704 161.879 289.314V289.314Z" fill="#F9A799"/>
<path d="M160.809 292.849C162.885 293.502 164.903 294.33 166.84 295.324C168.842 296.138 170.773 297.118 172.612 298.253C170.534 297.607 168.516 296.782 166.581 295.789C164.574 294.979 162.643 293.995 160.809 292.849Z" fill="#F9A799"/>
<path d="M162.754 301.29C165.5 301.28 168.235 301.644 170.883 302.371C168.137 302.379 165.403 302.015 162.754 301.29V301.29Z" fill="#F9A799"/>
<path d="M107.187 114.055C107.401 114.756 107.404 115.504 107.196 116.206C106.987 116.908 106.577 117.533 106.015 118.004C105.454 118.474 104.767 118.769 104.039 118.851C103.311 118.933 102.575 118.799 101.923 118.465C99.4587 117.222 99.1452 113.818 99.6316 111.104C100.118 108.391 101.037 105.484 99.9018 102.965C99.0263 101.041 97.1348 99.8201 95.6648 98.3068C94.3675 96.9915 93.3928 95.3935 92.8171 93.6381C92.2413 91.8828 92.0802 90.0179 92.3464 88.1898C92.658 86.3671 93.4667 84.6659 94.6835 83.2736C95.9003 81.8813 97.478 80.8521 99.2425 80.2993C102.863 79.2941 107.327 80.4074 110.051 77.7809C112.008 75.8785 112.127 72.7764 113.64 70.5065C115.985 66.9829 120.947 66.4208 125.14 66.9937C129.334 67.5665 133.593 68.9176 137.7 67.8908C141.127 67.0369 143.937 64.6481 147.158 63.1781C150.669 61.5734 154.593 61.106 158.382 61.8411C162.171 62.5763 165.636 64.4773 168.292 67.2784C170.948 70.0795 172.662 73.6405 173.194 77.4635C173.727 81.2865 173.051 85.1803 171.262 88.6005C170.069 91.1034 168.039 93.1107 165.522 94.2751" fill="#3E395F"/>
<path d="M127.701 190.392C138.988 190.37 148.642 180.427 148.486 169.272C148.447 166.516 148.216 162.349 148.216 162.349C148.216 162.349 164.905 160.674 166.007 144.136C167.11 127.599 166.321 89.4328 166.321 89.4328C157.138 84.8773 146.906 82.8533 136.681 83.5696C126.455 84.2859 116.606 87.7165 108.148 93.5078L105.597 95.2696L106.84 169.812C106.974 181.075 116.438 190.411 127.701 190.392Z" fill="#FCD0CA"/>
<path d="M148.628 162.122C140.976 161.849 133.579 159.306 127.377 154.815C127.377 154.815 131.831 166.997 148.422 166.413L148.628 162.122Z" fill="#FFADC1"/>
<path d="M166.807 93.6266C166.807 93.6266 156.809 98.7067 143.568 92.416C134.921 88.287 124.793 86.3738 122.61 88.1573C120.427 89.9407 120.135 98.804 111.661 101.56C111.661 101.56 112.579 118.487 105.813 118.011C99.0467 117.536 102.765 91.2378 102.765 91.2378L119.119 82.8502L137.072 79.0995L154.096 81.164L167.304 84.5039L166.807 93.6266Z" fill="#3E395F"/>
<path d="M107.047 112.575C106.776 112.434 95.8595 108.586 95.6109 119.925C95.3623 131.263 106.787 129.177 106.809 128.853C106.83 128.528 107.047 112.575 107.047 112.575Z" fill="#FCD0CA"/>
<path d="M103.435 124.475C103.435 124.475 103.23 124.616 102.895 124.756C102.42 124.949 101.889 124.949 101.414 124.756C100.225 124.291 99.2524 122.367 99.2524 120.324C99.2511 119.351 99.4613 118.388 99.8685 117.503C99.9849 117.152 100.184 116.834 100.45 116.577C100.715 116.319 101.038 116.129 101.393 116.023C101.621 115.981 101.857 116.014 102.066 116.117C102.274 116.221 102.444 116.388 102.549 116.595C102.69 116.909 102.614 117.136 102.668 117.157C102.722 117.179 102.917 116.974 102.841 116.509C102.782 116.226 102.629 115.971 102.409 115.785C102.103 115.544 101.715 115.432 101.328 115.471C100.86 115.552 100.42 115.751 100.051 116.05C99.6822 116.349 99.3961 116.738 99.22 117.179C98.7208 118.152 98.4614 119.231 98.4634 120.324C98.4634 122.605 99.6091 124.778 101.23 125.286C101.534 125.378 101.853 125.403 102.167 125.358C102.481 125.313 102.781 125.2 103.046 125.026C103.435 124.756 103.435 124.497 103.435 124.475Z" fill="#F9A799"/>
<path d="M101.272 77.0891C102.566 76.7097 103.947 76.7595 105.21 77.231C106.473 77.7026 107.549 78.5705 108.277 79.7048C107.269 78.9416 106.182 78.2893 105.034 77.7592C103.807 77.4058 102.546 77.1812 101.272 77.0891V77.0891Z" fill="#3E395F"/>
<path d="M108.094 70.3011C108.299 70.3011 107.986 72.6899 108.375 75.5218C108.711 77.2244 109.244 78.8821 109.964 80.4614C109.964 80.4614 109.488 80.0615 109.013 79.2184C108.402 78.0964 107.999 76.8734 107.824 75.6083C107.509 73.8417 107.601 72.0266 108.094 70.3011Z" fill="#3E395F"/>
<path d="M216.788 301.766C219.216 306.274 222.895 309.985 227.382 312.452C231.869 314.92 236.973 316.04 242.08 315.677V315.677C248.115 315.255 253.825 312.787 258.268 308.682C262.711 304.577 265.622 299.08 266.519 293.097L272.788 221.338L247.679 215.133L237.422 271.339C237.422 271.339 232.06 294.892 216.788 301.766Z" fill="#FCD0CA"/>
<path d="M247.453 220.332L248.285 207.74C248.285 207.74 251.842 179.486 251.842 176.719C251.842 173.541 253.366 172.763 254.544 172.849C256.37 172.968 257.667 175.227 257.786 177.962C257.786 178.902 257.7 193.84 257.7 193.84C258.564 192.428 259.528 191.081 260.586 189.808C262.748 187.009 267.979 185.409 273.308 185.582C278.637 185.755 280.096 186.274 280.128 188.338C280.109 188.733 280.003 189.118 279.816 189.466C279.628 189.814 279.366 190.115 279.047 190.349C278.064 191.168 276.814 191.599 275.534 191.559C267.006 191.408 264.726 195.958 264.726 195.958L264.618 197.612C264.618 197.612 269.795 193.905 273.924 195.45C274.534 195.676 275.093 196.022 275.567 196.466C276.729 196.471 277.871 196.78 278.877 197.361C279.884 197.943 280.721 198.778 281.305 199.783C281.89 200.788 282.201 201.928 282.209 203.091C282.217 204.253 281.921 205.398 281.35 206.411C281.127 206.93 280.751 207.369 280.272 207.669C279.793 207.968 279.233 208.114 278.669 208.086C278.097 207.914 277.58 207.598 277.167 207.167C276.925 206.962 276.668 206.774 276.399 206.605L275.448 211.177C275.448 211.177 272.757 221.338 272.086 225.899" fill="#FCD0CA"/>
<path d="M249.906 219.349C251.463 219.781 253.073 218.635 253.916 217.252C254.759 215.868 255.116 214.236 255.851 212.788C258.078 208.464 263.417 206.411 265.46 201.979C265.741 201.363 265.892 200.52 265.352 200.109C264.811 199.698 264.141 200.033 263.59 200.336L249.539 208.118" fill="#FCD0CA"/>
<path d="M249.527 208.097C249.964 207.709 250.447 207.375 250.964 207.102C251.916 206.508 253.31 205.686 255.039 204.681L261.146 201.19L262.908 200.196C263.565 199.676 264.401 199.439 265.232 199.536C265.489 199.619 265.714 199.779 265.878 199.993C266.043 200.207 266.138 200.466 266.151 200.736C266.179 201.18 266.101 201.625 265.924 202.033C265.599 202.754 265.193 203.436 264.713 204.065C262.768 206.594 260.249 208.183 258.433 210.032C257.55 210.868 256.8 211.834 256.207 212.896C255.677 213.89 255.342 214.928 254.931 215.868C254.679 216.653 254.258 217.373 253.698 217.978C253.138 218.583 252.452 219.058 251.689 219.37C250.532 219.716 249.884 219.37 249.927 219.306C250.487 219.323 251.045 219.231 251.57 219.035C252.246 218.69 252.843 218.208 253.323 217.62C253.803 217.032 254.155 216.351 254.358 215.62C254.705 214.573 255.105 213.545 255.558 212.539C256.154 211.389 256.932 210.341 257.86 209.437C259.72 207.491 262.184 205.859 264 203.514C264.428 202.947 264.79 202.335 265.081 201.687C265.351 201.071 265.308 200.455 264.962 200.39C264.616 200.325 263.935 200.617 263.341 200.952L261.546 201.925L255.353 205.297C253.58 206.238 252.11 206.973 251.137 207.459C250.633 207.747 250.091 207.961 249.527 208.097V208.097Z" fill="#F9A799"/>
<path d="M264.422 197.731C264.517 196.708 264.855 195.723 265.406 194.856C266.046 193.967 266.955 193.307 268 192.975C269.308 192.545 270.676 192.326 272.053 192.327C273.467 192.341 274.878 192.218 276.268 191.959C277.433 191.722 278.514 191.181 279.403 190.392C279.698 190.119 279.928 189.783 280.074 189.408C280.22 189.034 280.279 188.631 280.246 188.23C280.23 187.936 280.133 187.651 279.965 187.409C279.911 187.409 279.965 187.722 280.019 188.241C280.014 188.603 279.93 188.96 279.773 189.287C279.617 189.613 279.391 189.902 279.111 190.133C278.247 190.813 277.231 191.272 276.149 191.473C274.789 191.696 273.41 191.798 272.031 191.775C270.603 191.76 269.182 191.983 267.827 192.435C266.693 192.829 265.724 193.59 265.07 194.597C264.647 195.274 264.402 196.047 264.357 196.845C264.296 197.14 264.318 197.447 264.422 197.731V197.731Z" fill="#F9A799"/>
<path d="M257.709 176.902C257.618 177.891 257.618 178.886 257.709 179.875C257.709 181.907 257.709 184.339 257.785 187.02C257.861 189.7 257.785 192.132 257.785 194.164C257.72 195.155 257.742 196.15 257.85 197.137C258.086 196.167 258.206 195.173 258.207 194.175C258.336 192.348 258.423 189.851 258.412 187.02C258.401 184.188 258.293 181.68 258.163 179.853C258.118 178.856 257.966 177.867 257.709 176.902V176.902Z" fill="#F9A799"/>
<path d="M267.794 201.049C268.096 200.977 268.387 200.864 268.659 200.714C269.011 200.534 269.398 200.431 269.793 200.413C270.188 200.394 270.583 200.46 270.951 200.606C271.176 200.729 271.367 200.908 271.503 201.126C271.639 201.343 271.717 201.593 271.729 201.849C271.763 202.494 271.716 203.14 271.588 203.773C271.409 204.569 271.537 205.402 271.945 206.108C272.203 206.471 272.543 206.767 272.938 206.974C273.332 207.18 273.77 207.291 274.215 207.297C274.652 207.294 275.085 207.202 275.486 207.028C275.887 206.853 276.249 206.599 276.55 206.281C277.113 205.716 277.49 204.991 277.63 204.206C277.8 202.934 277.782 201.645 277.576 200.379C277.464 199.523 277.205 198.693 276.809 197.926C276.506 197.385 276.225 197.18 276.204 197.201C276.182 197.223 276.377 197.493 276.604 198.023C276.9 198.8 277.086 199.615 277.155 200.444C277.297 201.663 277.279 202.895 277.101 204.108C276.963 204.796 276.607 205.42 276.084 205.888C275.562 206.355 274.902 206.641 274.204 206.702C273.852 206.7 273.506 206.616 273.193 206.457C272.879 206.297 272.608 206.067 272.399 205.784C272.072 205.191 271.969 204.501 272.107 203.838C272.228 203.157 272.257 202.463 272.194 201.774C272.162 201.445 272.046 201.129 271.857 200.858C271.667 200.587 271.411 200.37 271.113 200.228C270.692 200.068 270.24 200.01 269.793 200.059C269.345 200.108 268.916 200.262 268.54 200.509C268.032 200.812 267.729 200.974 267.794 201.049Z" fill="#F9A799"/>
<path d="M276.301 205.827C276.225 206.109 276.256 206.409 276.387 206.67C276.539 207.041 276.774 207.372 277.074 207.638C277.374 207.904 277.73 208.098 278.117 208.205C278.699 208.33 279.304 208.302 279.872 208.124C280.44 207.946 280.953 207.624 281.359 207.189C282.334 206.118 282.857 204.712 282.819 203.265C282.819 201.835 282.373 200.441 281.543 199.277C280.866 198.327 279.943 197.58 278.873 197.115C278.172 196.798 277.416 196.619 276.647 196.585C276.106 196.585 275.814 196.585 275.814 196.672C276.812 196.8 277.785 197.077 278.7 197.493C279.66 197.97 280.485 198.68 281.1 199.558C281.818 200.648 282.195 201.927 282.181 203.233C282.217 204.529 281.77 205.793 280.927 206.778C280.584 207.166 280.149 207.46 279.66 207.632C279.172 207.804 278.648 207.849 278.138 207.762C277.798 207.685 277.478 207.537 277.2 207.326C276.922 207.115 276.693 206.847 276.528 206.54C276.377 206.13 276.376 205.827 276.301 205.827Z" fill="#F9A799"/>
<path d="M266.033 215.814C265.568 215.667 265.07 215.667 264.606 215.814C263.389 216.08 262.295 216.742 261.493 217.695L261.99 217.846C261.924 217.177 261.816 216.513 261.666 215.857C261.236 213.534 260.169 211.375 258.585 209.621C259.644 211.648 260.485 213.782 261.093 215.987C261.244 216.657 261.353 217.306 261.428 217.911L261.515 218.581L261.936 218.052C262.653 217.168 263.61 216.511 264.692 216.16C265.503 215.911 266.033 215.89 266.033 215.814Z" fill="#F9A799"/>
<path d="M266.302 190.403C266.162 190.468 266.735 191.484 268.053 192.1C269.372 192.716 270.54 192.359 270.485 192.208C270.431 192.057 269.405 192.067 268.324 191.559C267.243 191.051 266.443 190.295 266.302 190.403Z" fill="#F9A799"/>
<path d="M243.129 228.482L274.68 230.741C274.68 230.741 269.827 286.569 268.886 295.227C267.946 303.885 262.401 316.942 243.129 316.942C223.857 316.942 220.268 310.381 211.697 296.87C221.803 289.866 237.854 268.95 237.854 268.95L243.129 228.482Z" fill="#596AFF"/>
<path d="M258.002 235.994C257.84 236.465 257.645 236.924 257.418 237.367L255.657 241.085L249.431 253.937L249.117 253.559L257.299 251.127L265.611 248.684L266.217 248.511L265.925 249.062L259.44 261.655L257.526 265.275C257.315 265.718 257.065 266.141 256.781 266.54C256.946 266.078 257.141 265.626 257.364 265.189C257.818 264.259 258.445 263.027 259.137 261.503L265.417 248.824L265.73 249.203L257.429 251.667L249.236 254.067L248.642 254.24L248.923 253.688L255.376 240.966C256.165 239.464 256.802 238.232 257.278 237.313C257.482 236.854 257.724 236.413 258.002 235.994V235.994Z" fill="#E0E0E0"/>
<path d="M255.019 289.693C254.535 289.796 254.043 289.861 253.549 289.887L249.441 290.244L235.238 291.325L235.411 290.86L241.637 296.697L247.939 302.642L248.393 303.074H247.766L233.639 303.852L229.553 304.025C229.064 304.068 228.572 304.068 228.083 304.025C228.564 303.93 229.052 303.872 229.542 303.852L233.617 303.517L247.733 302.544L247.571 303.009L241.248 297.075L235.044 291.217L234.59 290.795H235.206L249.42 289.941L253.538 289.736C254.03 289.684 254.525 289.669 255.019 289.693V289.693Z" fill="#E0E0E0"/>
<path d="M221.598 223.921L185.723 312.64H121.032V316.65H313.721L353.141 223.921H221.598Z" fill="#3E395F"/>
<path d="M276.442 276.3C275.145 280.765 271.362 283.586 267.989 282.613C264.617 281.64 262.942 277.208 264.239 272.744C265.536 268.28 269.33 265.459 272.702 266.432C276.074 267.405 277.75 271.836 276.442 276.3Z" fill="#F5F6FF"/>
<line x1="1.74846e-07" y1="314.65" x2="484" y2="314.65" stroke="#3E395F" stroke-width="4"/>
<defs>
<filter id="filter0_d" x="201.359" y="0.255038" width="160.898" height="184.38" filterUnits="userSpaceOnUse" color-interpolation-filters="sRGB">
<feFlood flood-opacity="0" result="BackgroundImageFix"/>
<feColorMatrix in="SourceAlpha" type="matrix" values="0 0 0 0 0 0 0 0 0 0 0 0 0 0 0 0 0 0 127 0" result="hardAlpha"/>
<feOffset dy="14.6818"/>
<feGaussianBlur stdDeviation="18.673"/>
<feColorMatrix type="matrix" values="0 0 0 0 0.124574 0 0 0 0 0.141235 0 0 0 0 0.541097 0 0 0 0.09 0"/>
<feBlend mode="normal" in2="BackgroundImageFix" result="effect1_dropShadow"/>
<feBlend mode="normal" in="SourceGraphic" in2="effect1_dropShadow" result="shape"/>
</filter>
</defs>
</svg>
