<?xml version="1.0" encoding="UTF-8"?>
<svg width="360px" height="255px" viewBox="0 0 360 255" version="1.1" xmlns="http://www.w3.org/2000/svg" xmlns:xlink="http://www.w3.org/1999/xlink">
    <title>contact-bg</title>
    <defs>
        <filter x="-19.7%" y="-44.4%" width="139.5%" height="188.8%" filterUnits="objectBoundingBox" id="filter-1">
            <feOffset dx="0" dy="2" in="SourceAlpha" result="shadowOffsetOuter1"></feOffset>
            <feGaussianBlur stdDeviation="2" in="shadowOffsetOuter1" result="shadowBlurOuter1"></feGaussianBlur>
            <feColorMatrix values="0 0 0 0 0.788078419   0 0 0 0 0.788078419   0 0 0 0 0.788078419  0 0 0 0.5 0" type="matrix" in="shadowBlurOuter1" result="shadowMatrixOuter1"></feColorMatrix>
            <feMerge>
                <feMergeNode in="shadowMatrixOuter1"></feMergeNode>
                <feMergeNode in="SourceGraphic"></feMergeNode>
            </feMerge>
        </filter>
        <filter x="-16.5%" y="-22.6%" width="132.9%" height="145.3%" filterUnits="objectBoundingBox" id="filter-2">
            <feOffset dx="0" dy="3" in="SourceAlpha" result="shadowOffsetOuter1"></feOffset>
            <feGaussianBlur stdDeviation="3" in="shadowOffsetOuter1" result="shadowBlurOuter1"></feGaussianBlur>
            <feColorMatrix values="0 0 0 0 0.406246462   0 0 0 0 0.406246462   0 0 0 0 0.406246462  0 0 0 0.286603914 0" type="matrix" in="shadowBlurOuter1" result="shadowMatrixOuter1"></feColorMatrix>
            <feMerge>
                <feMergeNode in="shadowMatrixOuter1"></feMergeNode>
                <feMergeNode in="SourceGraphic"></feMergeNode>
            </feMerge>
        </filter>
    </defs>
    <g id="Page-1" stroke="none" stroke-width="1" fill="none" fill-rule="evenodd">
        <g id="contact-bg" transform="translate(0.298741, 0.853799)">
            <g id="Group">
                <path d="M3.72131832,160.04297 C-8.41863617,108.930094 10.1097522,46.9557232 45.2503849,15.6489229 C80.3902455,-15.6571054 143.642303,5.42665661 171.754501,31.6219377 C199.865926,57.8172189 199.865926,57.8172189 199.865926,57.8172189 C199.865926,57.8172189 226.700437,72.5117749 261.841069,71.2340881 C296.98093,69.9564013 328.286958,117.874674 336.59308,155.57068 C344.89843,193.265914 325.092355,243.100331 325.092355,243.100331 L58.0287968,241.184187 C58.0287968,241.184187 15.8605008,211.155845 3.72131832,160.04297 Z" id="Fill-4" fill-opacity="0" fill="#CBE4EF" fill-rule="nonzero"></path>
                <path d="M34.0692745,244.718238 C25.413429,238.447922 7.5366223,222.528177 1.80440214,194.821288 C-0.574951744,183.322879 0.983748931,172.130188 4.36054772,161.609152 C12.8048607,194.023023 33.1675596,217.653666 46.2424257,230.121728 L34.0692745,230.121728 L34.0692745,244.718238 M329.844115,230.121728 L329.207973,230.121728 C332.317655,220.099414 336.315154,204.876799 337.917088,188.692251 C338.862808,197.128072 338.073035,205.877332 335.314621,215.905822 C333.779853,221.488271 331.878377,226.187533 329.844115,230.121728 M317.985946,110.067807 C304.028666,87.8522694 284.368501,70.2093836 263.219118,70.2093836 C262.761313,70.2093836 262.299647,70.2178758 261.841069,70.2340881 C260.375783,70.2873572 258.928252,70.3128338 257.493846,70.3128338 C224.512543,70.3128338 199.865926,56.8172189 199.865926,56.8172189 C199.865926,56.8172189 199.865926,56.8172189 171.754501,30.6219377 C170.230541,29.2022 168.601587,27.7948145 166.881535,26.4129055 C182.636069,18.2635027 201.304192,0.829061196 228.495374,0.829061196 C232.206456,0.829061196 236.075029,1.15330799 240.118078,1.87051103 C279.729456,8.89894636 318.064692,29.9827083 319.981608,75.9848367 C320.632418,91.6150763 319.366311,102.082072 317.985946,110.067807" id="Fill-5" fill-opacity="0" fill="#CBE3EE" fill-rule="nonzero"></path>
                <g id="Fill-8" transform="translate(272.169102, 124.275221)">
                    <g id="path-1-link" transform="translate(0.000000, 0.000000)" fill="#000000" fill-rule="nonzero">
                        <path d="M3.860081,24.917594 C1.729316,24.917594 -5.68434189e-14,23.18905 -5.68434189e-14,21.057513 L-5.68434189e-14,3.860081 C-5.68434189e-14,1.728544 1.729316,1.42108547e-14 3.860081,1.42108547e-14 L38.308987,1.42108547e-14 C40.440524,1.42108547e-14 42.169068,1.728544 42.169068,3.860081 L42.169068,21.057513 C42.169068,23.18905 40.440524,24.917594 38.308987,24.917594 L3.860081,24.917594 Z" id="path-1"></path>
                    </g>
                    <g id="path-1-link" transform="translate(0.000000, 0.000000)" fill="#6B9CF8">
                        <path d="M3.860081,24.917594 C1.729316,24.917594 0,23.18905 0,21.057513 L0,3.860081 C0,1.728544 1.729316,0 3.860081,0 L38.308987,0 C40.440524,0 42.169068,1.728544 42.169068,3.860081 L42.169068,21.057513 C42.169068,23.18905 40.440524,24.917594 38.308987,24.917594 L3.860081,24.917594 Z" id="path-1"></path>
                    </g>
                </g>
                <polyline id="Fill-9" fill="#6B9CF8" fill-rule="nonzero" points="293.253636 158.936432 298.712562 145.998212 287.794709 145.998212 293.253636 158.936432"></polyline>
                <polyline id="Fill-10" fill="#283770" fill-rule="nonzero" points="293.123165 132.455504 302.984128 132.455504 302.984128 133.898403 307.818493 131.110652 302.984128 128.323674 302.984128 129.766572 293.123165 129.766572 293.123165 132.455504"></polyline>
                <polygon id="Fill-11" fill="#FFFFFE" fill-rule="nonzero" points="297.95753 138.125963 297.95753 136.683065 293.123165 139.470044 297.95753 142.257022 297.95753 140.814124 307.818493 140.814124 307.818493 138.125963"></polygon>
                <path d="M287.070558,140.662036 L286.601172,140.833424 C286.601172,140.833424 285.138202,139.162781 284.378538,137.343139 C283.618874,135.524269 283.592625,133.302406 283.592625,133.302406 L283.936172,133.158811 L281.850185,128.168499 C281.478845,128.458777 281.124489,128.832433 280.838071,129.316487 C279.658431,131.310604 279.775005,134.370877 280.962366,137.360895 C282.148955,140.350142 283.41815,143.016686 285.734198,144.693505 C287.100667,145.68323 288.271815,145.856161 289.18125,145.712566 L287.070558,140.662036" id="Fill-12" fill="#283770" fill-rule="nonzero"></path>
                <path d="M287.919776,140.309997 L290.053629,145.4192 C290.29527,145.340455 290.511434,145.243181 290.699034,145.140502 C291.250254,144.838644 291.492667,144.175482 291.26029,143.591838 L290.145499,140.782471 C289.897681,140.159454 289.199007,139.844471 288.56827,140.074532 L287.919776,140.309997 Z" id="Fill-13" fill="#283770" fill-rule="nonzero"></path>
                <path d="M283.480683,127.293804 C283.218197,127.38799 282.932551,127.516145 282.645361,127.685216 L284.774582,132.782067 L285.491013,132.482525 C286.113258,132.223128 286.414344,131.514417 286.168843,130.886768 L285.04942,128.013323 C284.807007,127.389534 284.110648,127.066059 283.480683,127.293804" id="Fill-14" fill="#283770" fill-rule="nonzero"></path>
                <path d="M90.2666486,230.919993 L90.2666486,173.418683 C90.2666486,173.418683 89.6281912,157.924318 97.7737339,153.452029 C105.920049,148.979739 140.261645,151.376077 140.261645,151.376077 L140.261645,230.919993 L90.2666486,230.919993" id="Fill-15" fill="#3F62A4" fill-rule="nonzero"></path>
                <path d="M150.989581,97.5472487 C150.989581,97.5472487 148.91363,114.957758 148.114593,116.395252 C147.316328,117.832746 147.316328,117.832746 147.316328,117.832746 L143.322689,120.548699 C143.322689,120.548699 150.989581,131.410195 160.413583,133.166531 C169.837585,134.92364 169.038548,129.333471 169.038548,129.333471 L167.601054,126.298675 L169.518742,109.686431 C169.518742,109.686431 152.427076,101.860503 150.989581,97.5472487" id="Fill-16" fill="#E9B982" fill-rule="nonzero"></path>
                <path d="M138.370977,121.986193 L144.600376,119.27024 C144.600376,119.27024 148.594015,125.819253 157.858209,129.653086 C167.122404,133.486146 167.282211,131.250387 167.760861,129.653086 C168.240283,128.055784 167.601054,126.298675 167.601054,126.298675 L168.286604,120.70619 L171.99151,121.940644 L184.851755,225.968281 L151.788618,227.565582 L138.370977,121.986193" id="Fill-17" fill="#FFFFFE" fill-rule="nonzero"></path>
                <path d="M168.87874,120.814272 C168.87874,120.814272 171.115271,125.979061 173.191223,138.118243 C175.268718,150.258198 177.184863,170.70273 177.664285,184.758829 C178.142935,198.814928 178.463321,230.919993 178.463321,230.919993 C178.463321,230.919993 219.672001,230.919993 220.152195,230.919993 C220.630845,230.919993 223.505834,215.107557 223.505834,215.107557 C223.505834,215.107557 205.29706,199.507426 204.338988,196.95128 C203.699758,195.247441 204.019373,163.675067 201.30342,149.139546 C198.588239,134.604025 195.074794,131.675768 187.727516,128.055784 C180.133964,124.313822 168.87874,120.814272 168.87874,120.814272" id="Fill-18" fill="#414141" fill-rule="nonzero"></path>
                <path d="M190.601732,212.617805 C190.388655,212.617805 190.215724,212.444873 190.215724,212.231797 C190.215724,211.089985 190.012684,194.864521 189.817363,179.173292 C189.620499,163.479747 189.417459,147.251967 189.417459,146.104751 C189.417459,145.890902 189.590391,145.718742 189.803467,145.718742 C190.016544,145.718742 190.189475,145.890902 190.189475,146.104751 C190.189475,147.246563 190.392515,163.472027 190.588608,179.163256 C190.7847,194.856801 190.98774,211.084581 190.98774,212.231797 C190.98774,212.444873 190.81558,212.617805 190.601732,212.617805" id="Fill-19" fill="#6A6A6A" fill-rule="nonzero"></path>
                <path d="M107.543599,208.717579 L107.224756,230.919993 L155.781486,230.919993 C155.781486,230.919993 157.858209,212.071989 157.059173,210.315653 C156.260908,208.557772 107.543599,208.717579 107.543599,208.717579" id="Fill-20" fill="#414141" fill-rule="nonzero"></path>
                <path d="M168.378474,119.56515 C166.270098,118.79159 163.563409,117.511587 161.584732,115.916602 C158.118379,113.121903 155.89806,109.792969 154.459022,106.527341 C156.060956,108.348527 157.833505,109.924212 159.614546,111.44354 C161.870378,113.367404 165.254897,114.87824 168.854808,115.437952 L168.378474,119.56515" id="Fill-21" fill="#AB7436" fill-rule="nonzero"></path>
                <path d="M188.52578,77.9009808 C189.16501,84.9294162 188.52578,102.978383 182.775032,110.645275 C177.025055,118.312168 165.04568,116.075637 159.614546,111.44354 C154.631182,107.192819 149.711895,102.49896 148.434208,93.2347663 C147.156521,83.9705721 151.149389,66.4002557 162.490307,62.7270027 C173.830452,59.0529777 184.532913,65.122569 184.532913,65.122569 C184.532913,65.122569 187.887323,70.8733175 188.52578,77.9009808 Z" id="Fill-22" fill="#E9B982" fill-rule="nonzero"></path>
                <path d="M197.521313,220.855218 C197.320589,220.847497 197.096704,220.855218 196.864327,220.847497 C196.039042,220.824337 195.035421,220.801948 194.02408,220.771068 C193.800195,220.762576 193.56859,220.754855 193.344705,220.747135 C192.341084,220.723975 191.484146,220.847497 190.68125,220.801948 L190.658089,220.801948 C190.488245,220.793456 190.2412,220.816617 190.040476,220.824337 C189.940114,220.832829 189.847472,220.839777 189.785711,220.832829 C189.322501,220.747135 189.229859,220.639825 188.728049,220.41594 C188.079555,220.121802 179.300959,218.161653 172.159809,218.207202 C165.027152,218.238083 158.627138,218.724453 157.584916,217.852075 C156.534974,216.964256 155.90192,208.00192 161.993128,207.414416 L169.481685,210.255435 C169.481685,210.255435 186.581844,208.225805 192.850615,212.84941 C199.134827,217.473787 198.941823,220.878378 198.941823,220.878378 C198.941823,220.878378 198.378251,220.878378 197.521313,220.855218 Z" id="Fill-23" fill="#E9B982" fill-rule="nonzero"></path>
                <path d="M190.658089,220.801948 C190.488245,220.793456 190.2412,220.816617 190.040476,220.824337 C189.886073,220.578064 189.561054,220.129522 189.384262,219.944238 C187.454222,217.975597 182.791244,216.701771 181.100529,216.292602 C180.946125,216.254001 180.844991,216.099598 180.884364,215.945967 C180.915245,215.790791 181.077368,215.698149 181.239492,215.72903 C183.702223,216.323483 188.928773,217.845126 190.411044,220.337967 C190.457365,220.407448 190.580887,220.646773 190.658089,220.801948" id="Fill-24" fill="#AB7436" fill-rule="nonzero"></path>
                <path d="M194.026396,220.770296 C193.802511,220.764892 193.570906,220.758716 193.347021,220.745591 C191.239417,216.902495 187.791593,215.799284 183.530836,214.428955 L183.278386,214.344805 C183.132475,214.295396 183.043693,214.130957 183.094646,213.978097 C183.144056,213.832186 183.300775,213.743404 183.461354,213.793586 L183.706083,213.876963 C188.21157,215.32295 191.836958,216.484834 194.026396,220.770296" id="Fill-25" fill="#AB7436" fill-rule="nonzero"></path>
                <path d="M197.522085,220.855218 C197.321361,220.849813 197.097476,220.85213 196.865099,220.846725 C195.587412,218.159337 191.357536,213.662343 185.76119,212.613945 C185.599839,212.586924 185.494845,212.437925 185.521865,212.276574 C185.556606,212.12217 185.705605,212.01872 185.860008,212.045741 C191.624653,213.128108 196.275279,217.836634 197.522085,220.855218" id="Fill-26" fill="#AB7436" fill-rule="nonzero"></path>
                <path d="M152.267268,85.3285485 C152.267268,85.3285485 155.781486,83.6509574 158.257342,78.9393426 C160.733198,74.2277278 160.413583,69.9947631 160.413583,69.9947631 C160.413583,69.9947631 164.885873,69.276016 171.594693,71.2724499 C178.302742,73.2688837 186.289249,75.9848367 192.99807,72.1510043 C199.706891,68.3171719 199.706891,62.168063 196.431998,59.6126895 C192.764921,56.7500535 185.490985,58.494038 185.490985,58.494038 C185.490985,58.494038 188.285683,55.7788571 186.768672,54.1815556 C185.250888,52.5842541 179.741008,54.6609777 179.741008,54.6609777 C179.741008,54.6609777 173.032188,49.3101335 160.334065,49.9485909 C147.635171,50.5878203 141.56558,59.4528821 140.846833,69.3555337 C140.128086,79.2589573 143.722593,89.1616089 143.722593,89.1616089 L152.267268,85.3285485" id="Fill-27" fill="#252525" fill-rule="nonzero"></path>
                <path d="M177.81174,101.608826 C176.871424,101.572541 175.689467,101.417366 174.88271,100.912467 C174.644157,100.762696 174.734483,100.372828 175.027077,100.372828 C175.530432,100.375144 176.020662,100.526459 176.521701,100.564288 C176.987226,100.598257 177.458156,100.618329 177.924454,100.639946 C178.195432,100.652298 178.516591,100.677002 178.843925,100.677002 C179.334156,100.677002 179.835194,100.621417 180.191866,100.38518 C181.751338,99.3529945 178.719631,98.0791678 178.078085,97.6066939 C176.736321,96.6177412 177.005755,94.9100414 177.146262,93.4455267 C177.327686,91.5625792 177.309929,89.50284 178.029448,87.7287469 C178.081173,87.6021362 178.21396,87.5349708 178.336711,87.5349708 C178.475674,87.5349708 178.603056,87.6206646 178.586844,87.8044044 C178.383804,90.0648678 177.861149,92.2959946 177.719098,94.5672662 C177.658881,95.512214 177.589399,96.5312754 178.434757,97.1365361 C179.04465,97.5734972 179.785785,97.7819416 180.390274,98.229711 C180.914473,98.6188071 181.437128,99.2433682 181.343714,99.9397268 C181.26188,100.558884 180.756981,100.924047 180.235871,101.182673 C179.536424,101.53008 178.979028,101.619634 178.274949,101.619634 C178.128266,101.619634 177.974635,101.615774 177.81174,101.608826 Z" id="Fill-28" fill="#AB7436" fill-rule="nonzero"></path>
                <path d="M184.558389,93.0402182 C184.319836,94.3866144 183.34092,95.3385104 182.370495,95.1671228 C181.400843,94.9957352 180.807935,93.7643694 181.045716,92.4187452 C181.284269,91.0723489 182.263185,90.119681 183.233609,90.2910686 C184.203262,90.4624562 184.796942,91.693822 184.558389,93.0402182" id="Fill-29" fill="#252525" fill-rule="nonzero"></path>
                <path d="M170.050661,94.3217651 C169.003807,94.1658178 168.330609,92.8618825 168.546774,91.40972 C168.762938,89.9567856 169.786632,88.9052995 170.833485,89.0612468 C171.879567,89.2171941 172.552766,90.5211294 172.336601,91.9732918 C172.120436,93.4262263 171.097515,94.4769403 170.050661,94.3217651 Z" id="Fill-30" fill="#252525" fill-rule="nonzero"></path>
                <path d="M183.965481,87.5403749 C184.146905,87.5527272 184.32524,87.5797477 184.506664,87.5975041 C184.634819,87.6090843 184.266567,87.5589033 184.445675,87.5882399 L184.560705,87.6075403 C184.654891,87.6245247 184.749077,87.6438251 184.841719,87.6662135 C185.002298,87.7055864 185.157474,87.7658036 185.318053,87.8013164 C185.463964,87.832969 185.626088,87.8669378 185.772771,87.8599896 C185.855376,87.8491814 185.936438,87.8383732 186.019044,87.8267929 L185.863869,87.8553575 L186.169587,87.8221608 C186.598056,87.7217987 186.862085,87.2261643 186.742423,86.8123636 C186.707682,86.6934732 186.655185,86.5853909 186.579528,86.4873448 L186.481481,86.3630502 L186.571807,86.4665004 L186.472989,86.3352576 C186.430528,86.2642322 186.374171,86.207103 186.302374,86.1646421 L186.121722,86.0272232 C185.924086,85.8898043 185.663916,85.8095146 185.429223,85.7492974 C184.98377,85.6342669 184.515928,85.5755937 184.057351,85.5732777 C183.600317,85.5709616 183.14946,85.6188266 182.69783,85.6813599 C182.29947,85.7361731 181.856333,85.8720479 181.532858,86.112145 C181.283497,86.2982009 181.129865,86.5367539 181.173098,86.8633167 C181.209383,87.1335224 181.422459,87.4407848 181.712738,87.4901939 C182.459277,87.6160325 183.212765,87.4871058 183.965481,87.5403749 Z" id="Fill-31" fill="#252525" fill-rule="nonzero"></path>
                <path d="M172.881644,85.1919017 C172.791319,85.1509848 172.544273,85.0212861 172.731101,85.1231922 L172.525745,85.0135659 C172.216166,84.8576187 171.895008,84.7533965 171.560725,84.6684747 C170.831941,84.4824188 170.064557,84.4353258 169.317246,84.5140715 C168.519753,84.5982212 167.791742,84.7912253 167.100787,85.207342 C167.003513,85.2667872 166.903151,85.3239164 166.822089,85.4049781 C166.767276,85.4744596 166.713235,85.5447131 166.660738,85.6157386 L166.706287,85.5462571 C166.49321,85.6952562 166.368916,85.9392133 166.371139,86.1970667 C166.372776,86.4448839 166.501703,86.6517843 166.717095,86.7714468 C166.977265,86.9165858 167.22431,86.8471044 167.492971,86.7783949 C167.357869,86.7783949 167.222766,86.7783949 167.088435,86.7783949 C167.310004,86.8123636 167.465951,86.8216278 167.689836,86.7722188 C167.698328,86.7706748 167.905228,86.7189497 167.768581,86.7475143 C167.640427,86.7753069 167.98629,86.7212657 168.024119,86.7158616 C168.068123,86.7096855 168.308221,86.685753 168.054227,86.7104575 L168.194734,86.6942452 C168.314397,86.6795769 168.435603,86.6641365 168.556038,86.6548723 C169.083325,86.6124115 169.609068,86.588479 170.137127,86.5714946 C170.627357,86.5552823 171.126852,86.5514222 171.61631,86.5722666 C171.82707,86.5815308 172.035515,86.588479 172.246275,86.5946551 C172.363622,86.5977431 172.314213,86.6162715 172.233151,86.590795 L172.364394,86.6247637 C172.451631,86.6486962 172.537325,86.6772608 172.621475,86.7096855 C172.962706,86.8393842 173.371103,86.593111 173.496941,86.2796725 C173.63436,85.9384413 173.517786,85.5462571 173.193539,85.3532531 C173.092405,85.2930358 172.988955,85.2405387 172.881644,85.1919017 Z" id="Fill-32" fill="#252525" fill-rule="nonzero"></path>
                <path d="M180.594086,104.308566 C179.256182,104.172692 172.93723,103.587503 171.343016,104.493078 C169.556571,105.506736 171.673439,109.579121 175.366764,109.783705 C175.755089,109.805322 176.1079,109.773669 176.443727,109.721172 C176.473836,108.97772 176.645223,108.241989 176.985682,107.557211 C177.719098,106.083432 179.05237,105.003381 180.594086,104.308566 Z" id="Fill-33" fill="#802F2F" fill-rule="nonzero"></path>
                <path d="M147.794979,98.9855148 C147.794979,98.9855148 148.434208,101.461371 152.107461,104.336359 C155.781486,107.211347 161.106082,109.314319 161.106082,109.314319 L161.531462,107.450672 C161.531462,107.450672 156.020811,105.054334 153.465437,102.419443 C150.910064,99.7837796 150.590449,98.3462854 150.590449,98.3462854 L147.794979,98.9855148" id="Fill-34" fill="#CFD7DF" fill-rule="nonzero"></path>
                <path d="M162.170692,106.071851 C165.127514,105.934432 166.777312,108.272098 166.983441,109.784477 C167.189569,111.297629 165.769059,112.993748 162.44553,111.503757 C158.317559,109.653234 159.214642,106.20927 162.170692,106.071851" id="Fill-35" fill="#283770" fill-rule="nonzero"></path>
                <path d="M150.111027,80.6964514 C150.111027,80.6964514 151.387942,71.517179 157.538595,65.2823763 C169.278645,53.3832909 179.261586,54.1012659 179.261586,54.1012659 C179.261586,54.1012659 179.181296,52.4244468 175.427754,51.14676 C171.9035,49.9470468 170.317007,50.5878203 170.317007,50.5878203 C170.317007,50.5878203 160.652908,51.386085 152.507365,60.4109542 C144.361051,69.4358234 143.482496,80.9357765 143.482496,80.9357765 L150.111027,80.6964514" id="Fill-36" fill="#CFD7DF" fill-rule="nonzero"></path>
                <path d="M149.232473,79.5778 C141.541647,78.2746367 137.253098,84.2901868 136.933483,90.359778 C136.613868,96.4293692 141.024397,101.04371 146.916424,100.582044 C160.174258,99.5444545 158.656474,81.1758735 149.232473,79.5778" id="Fill-37" fill="#FFFFFE" fill-rule="nonzero"></path>
                <path d="M140.676217,91.8667536 C139.625503,89.9421173 139.713513,87.5727996 140.900874,85.8303591 C140.9912,85.6998883 141.170308,85.6651476 141.303094,85.7547015 C141.435109,85.8450274 141.46985,86.0249071 141.379524,86.1569219 C140.31337,87.7210267 140.23694,89.8533354 141.184204,91.5888278 C142.083603,93.2363103 143.670868,94.1696779 145.550727,94.1025125 C147.307836,94.0554195 148.797056,93.2517506 149.744319,91.838961 C150.825142,90.2262192 151.073731,87.9997245 150.377373,86.1669581 C149.686418,84.348088 147.79189,83.10823 146.069522,83.3336587 C145.913575,83.3537311 145.765348,83.2433328 145.744504,83.0842975 C145.722887,82.9260342 145.834057,82.7808951 145.993093,82.7592787 C148.008055,82.490617 150.124151,83.8678939 150.918556,85.9608298 C151.679764,87.9642118 151.407242,90.3976068 150.225285,92.1608918 C149.170711,93.7342607 147.516281,94.6290275 145.566168,94.6815246 L145.403272,94.6838407 C143.37287,94.6838407 141.656678,93.6632353 140.676217,91.8667536 Z" id="Fill-38" fill="#7183A5" fill-rule="nonzero"></path>
                <path d="M108.342635,134.763833 C100.196321,144.028027 96.3632604,189.710541 96.203453,198.175698 C96.0436457,206.641628 101.95343,210.155845 105.467647,212.551411 C108.981865,214.94775 124.474686,219.260232 136.933483,219.899462 C149.39228,220.537919 161.21262,219.899462 161.21262,219.899462 C161.21262,219.899462 161.172475,217.183509 163.088619,213.189869 C164.866572,209.486507 167.122404,208.717579 167.122404,208.717579 L156.420715,204.884519 C156.420715,204.884519 154.547032,171.306447 151.628811,155.050102 C148.274401,136.361134 139.808471,119.749662 139.808471,119.749662 C139.808471,119.749662 116.48895,125.499639 108.342635,134.763833 Z" id="Fill-39" fill="#414141" fill-rule="nonzero"></path>
                <path d="M178.463321,199.519778 L178.306602,199.486582 C178.111282,199.400116 178.023272,199.172371 178.109738,198.977823 C180.295316,194.047728 182.558867,184.369733 183.834238,177.57985 L183.93846,177.030947 C184.324468,175.033741 184.804662,172.550165 183.84659,170.835517 C183.357904,169.960823 182.254693,168.063207 181.193171,166.238933 C180.091504,164.345177 179.050826,162.555643 178.762092,162.02218 C178.200064,160.979186 179.971069,158.193752 182.534935,154.373044 C183.226661,153.340086 183.825746,152.448408 184.174697,151.844691 C185.088764,150.263602 184.479644,148.815299 183.775565,147.13848 L183.53624,146.561012 C182.897782,144.993047 182.171315,143.422766 181.470324,141.904211 C181.183906,141.284282 180.896716,140.662809 180.614158,140.038247 C180.238959,139.212962 179.862987,138.373009 179.481611,137.523791 C177.224235,132.491789 174.890431,127.289172 171.901184,122.262575 C171.79233,122.079607 171.852547,121.842598 172.035515,121.733744 C172.219255,121.625661 172.455491,121.685107 172.565118,121.868847 C175.575981,126.932501 177.91905,132.155962 180.18569,137.207264 C180.566293,138.056482 180.942265,138.894891 181.316693,139.720177 C181.599251,140.342422 181.884897,140.962351 182.170543,141.580736 C182.876166,143.107012 183.605721,144.685785 184.251127,146.269962 L184.487364,146.83971 C185.206111,148.549726 185.94879,150.318415 184.842491,152.230699 C184.480416,152.857576 183.875927,153.759291 183.175708,154.802285 C181.839348,156.794859 179.057002,160.94213 179.441466,161.654701 C179.724024,162.178128 180.761614,163.962257 181.860193,165.850609 C182.924031,167.679515 184.03033,169.581763 184.52056,170.458773 C185.616823,172.419694 185.106521,175.057674 184.697352,177.17763 L184.592358,177.721901 C184.127604,180.194669 181.667961,192.854963 178.816133,199.289717 C178.752055,199.434857 178.610776,199.519778 178.463321,199.519778" id="Fill-40" fill="#6A6A6A" fill-rule="nonzero"></path>
                <path d="M155.701968,200.877755 C155.602378,200.877755 155.502788,200.839926 155.427903,200.764268 C153.612892,198.93459 144.859773,183.77914 144.208191,180.928857 C143.85152,179.368612 144.747059,175.411257 145.613261,171.583601 C146.284143,168.618287 146.978185,165.551838 146.780549,164.721921 C146.485639,163.481291 144.247564,161.652385 142.082831,159.884467 C139.468012,157.749071 136.764411,155.53956 136.240984,153.550075 C135.64576,151.288839 136.154518,137.132378 136.491118,127.765506 C136.612324,124.3972 136.708054,121.736832 136.707282,120.788024 C136.707282,120.574947 136.880214,120.402016 137.09329,120.402016 C137.306367,120.402016 137.479298,120.574175 137.479298,120.787252 C137.48007,121.750728 137.38434,124.417272 137.262362,127.793299 C136.948151,136.548734 136.421636,151.201601 136.987524,153.353983 C137.447646,155.100283 140.169775,157.324462 142.571517,159.286927 C144.940063,161.221599 147.176594,163.048962 147.531721,164.543585 C147.770274,165.547206 147.119464,168.423738 146.365977,171.753444 C145.558448,175.322475 144.643608,179.367068 144.960907,180.756697 C145.600137,183.551396 154.193449,198.423515 155.976034,200.219225 C156.125805,200.371312 156.125033,200.615269 155.973718,200.76504 C155.89806,200.839926 155.800014,200.877755 155.701968,200.877755" id="Fill-41" fill="#6A6A6A" fill-rule="nonzero"></path>
                <path d="M124.31565,194.249224 L124.261609,194.245364 C124.050077,194.215255 123.903394,194.019935 123.93273,193.809175 C124.21606,191.801161 128.647433,151.810722 128.850473,148.748134 C128.865142,148.534286 129.048882,148.36753 129.261958,148.388374 C129.474262,148.402271 129.634842,148.586783 129.620946,148.799087 C129.417133,151.867079 124.981128,191.906927 124.697026,193.917257 C124.670006,194.109489 124.504794,194.249224 124.31565,194.249224" id="Fill-42" fill="#6A6A6A" fill-rule="nonzero"></path>
                <path d="M156.101101,205.109948 L155.955962,205.082155 C154.973957,204.684567 150.635998,203.220824 145.143875,201.369529 C134.059267,197.630655 118.877568,192.511415 115.991,191.011388 C115.801856,190.913342 115.728514,190.680193 115.82656,190.491049 C115.924606,190.301133 116.156211,190.225475 116.346899,190.32661 C119.180971,191.798844 134.954033,197.118036 145.39092,200.636886 C150.895396,202.494357 155.242619,203.959643 156.24624,204.366496 C156.443876,204.446786 156.538834,204.671442 156.458544,204.869078 C156.397555,205.01885 156.253188,205.109948 156.101101,205.109948" id="Fill-43" fill="#6A6A6A" fill-rule="nonzero"></path>
                <path d="M150.770329,221.033553 C141.015132,221.033553 122.10228,219.2749 107.735059,214.19349 C107.533563,214.121692 107.428568,213.901668 107.499594,213.700172 C107.569847,213.500219 107.79296,213.394453 107.99214,213.465479 C126.142241,219.885565 151.532309,220.981828 156.256276,219.921078 C156.463948,219.876301 156.670077,220.006 156.71717,220.213672 C156.764263,220.421344 156.63302,220.628245 156.425347,220.675338 C155.402426,220.903855 153.425293,221.033553 150.770329,221.033553" id="Fill-44" fill="#6A6A6A" fill-rule="nonzero"></path>
                <g id="Group-2" transform="translate(33.675034, 146.159240)" fill-rule="nonzero">
                    <path d="M8.33330434,17.3514571 C10.2116822,19.003357 12.5904181,20.0624882 14.2389664,21.9729464 C14.8872772,22.7246806 15.4699909,23.5247748 16.0723359,24.3128986 C16.5104485,24.8865149 17.6801852,25.8379135 17.8697946,26.5590037 C17.9535866,26.8764558 17.9358706,26.446483 17.8515997,26.1280733 L17.8377142,26.088332 C17.673003,24.6284354 17.5552154,23.1627932 17.5039825,21.6942781 C17.4527497,20.2295935 17.5442027,18.7591631 17.4522709,17.2968725 C17.3229918,15.2336734 16.6789902,13.2360715 14.9926158,11.9437591 C14.1685811,11.3117278 13.108971,10.9272421 12.3514911,10.2262619 C11.6323161,9.56071385 11.9205607,8.79844581 12.3438301,8.05628786 C12.7393285,7.36153226 13.2190977,6.67922576 13.3727962,5.87961042 C13.5485201,4.97082604 13.2066486,4.03331297 12.745553,3.25955346 C11.7649469,1.61244163 9.58922712,-0.223800782 7.52890089,0.0223083697 C5.81044613,0.227718537 5.61556982,2.20999848 5.64046802,3.59089107 C5.66392979,4.93347874 5.79703941,6.27175711 5.80996732,7.6153024 C5.82289523,8.99523737 5.58827756,10.3493165 5.56864628,11.7230269 C5.53560828,14.0601063 6.6153284,15.8408065 8.33330434,17.3514571" id="Fill-45" fill="#9AAF94"></path>
                    <path d="M25.7855076,38.7935972 C26.3083699,37.546293 26.9083208,36.3803869 27.6461694,35.2460822 C28.6583771,33.6899446 29.7811902,32.1735483 30.4606239,30.4306742 C31.1549007,28.6514103 31.0529138,26.7486131 31.1213839,24.8745446 C31.1711803,23.4979613 31.5805642,22.1247297 31.4699587,20.7443159 C31.4172894,20.0821195 31.0356766,19.011018 30.1790827,19.1206658 C29.5125769,19.2058943 29.1165998,20.0323231 28.8604356,20.5594946 C28.4132256,21.4797705 28.1034345,22.4613342 27.7711392,23.4266184 C27.6418601,23.8044007 27.5178479,24.1888864 27.3540943,24.553262 C27.2588108,24.7653756 26.9557231,25.2824921 26.6698726,25.2121068 C26.1829212,25.0919251 26.6248643,23.1043782 26.6971649,22.7524517 C27.0605828,20.9846793 27.6078645,19.3418768 27.6839955,17.5228716 C27.7941222,14.8855774 27.5891908,11.7460099 25.0098328,10.3038294 C24.3351873,9.9270047 23.4809875,9.70244207 22.8403376,10.2664821 C22.2083063,10.8223824 22.0297096,11.7867089 21.9358625,12.5800997 C21.6480967,15.0158142 22.2212342,17.3222496 23.0016971,19.6138418 C23.6461775,21.5061051 24.4141912,23.4586988 24.4702122,25.4821565 C24.5243179,27.429962 23.5106738,29.1560777 23.0352139,30.9961506 C22.2772552,33.9283928 22.4338266,35.483094 22.4304749,36.4325773 C22.4252079,37.6224241 22.4687798,38.799343 22.5554447,39.9853592 C22.635885,41.0756132 22.7302109,42.166346 22.8633205,43.251333 C22.8906128,43.4711075 22.915511,43.7004583 22.9447185,43.929809 C22.5257584,42.920953 22.379242,41.7655807 22.0321036,40.7519366 C21.4158731,38.9496898 20.699571,37.1847903 20.1077599,35.3739249 C19.6188933,33.8776387 19.1573189,32.3712975 18.5114021,30.9329475 C17.9061843,29.5831777 17.175039,28.156798 16.0455225,27.1666156 C15.3627371,26.5681012 14.5353507,26.2180899 13.6222571,26.2252721 C13.0381069,26.2295814 12.5133294,26.4316399 11.9555139,26.5791138 C11.2693769,26.7605834 10.7292775,26.6978591 10.1647586,26.2640558 C8.31606713,24.842943 7.75394233,22.2951866 6.38502003,20.4958127 C5.36419374,19.1537038 2.94236477,16.8659421 1.1616645,18.3296691 C0.216490447,19.1058227 -0.0439830525,20.6059394 0.00581335176,21.7560448 C0.0680588571,23.1987041 0.698653707,24.5183088 1.44943026,25.724914 C2.24808798,27.0076502 3.27896931,28.1563192 4.01298746,29.4754451 C4.44679075,30.2544715 4.514782,31.0009388 4.44583313,31.8800368 C4.38119357,32.707902 4.30889302,33.5099114 4.59091304,34.3085691 C5.43840953,36.7069364 8.08480113,36.3722471 10.1427333,36.4349714 C11.5829985,36.4785432 13.1281235,36.6930508 14.4956094,37.1536676 C16.0756876,37.6856272 17.103696,38.7141145 17.6686937,40.2769555 C18.07712,41.4083873 18.2959369,42.6925599 19.0658659,43.6535347 C19.4278475,44.1055329 19.9071378,44.4392645 20.4343094,44.6724458 C21.2367976,45.0267664 23.6840036,45.1819013 23.7021984,44.9582963 C23.7625287,44.2099138 24.1173281,43.4203535 24.3394966,42.7102759 C24.7560627,41.3787009 25.245887,40.0796851 25.7855076,38.7935972" id="Fill-46" fill="#9AAF94"></path>
                    <path d="M37.1481852,38.3415991 C36.9351141,36.9702827 36.975813,35.4591534 36.3265445,34.1998789 C36.2800998,34.1099503 36.157524,34.0868794 36.073732,34.1333241 C35.6083272,34.3914036 35.5891747,35.1431377 35.5508698,35.6037545 C35.4881455,36.3679378 35.535069,37.1340363 35.4407431,37.8963043 C35.2760319,39.2350615 34.9667196,40.6149965 34.4840776,41.876665 C33.9387112,43.3044811 32.9461348,44.1136727 31.5049119,44.5594463 C30.5788903,44.8452968 29.6705848,45.0947576 28.8977829,45.7090729 C28.2054213,46.2597062 27.7246945,47.0186225 27.3679799,47.8177591 C26.4060474,49.9757628 25.9478247,52.3880156 25.5015723,54.6934933 C25.2013575,56.2458005 24.956206,57.8052898 24.5793812,59.342275 C24.2025565,60.8778237 23.7979607,62.4057115 23.5820167,63.974777 C23.545627,64.0537809 23.5068433,64.132306 23.4733265,64.2122675 C23.3746913,64.4468852 23.741461,64.5737703 23.8678672,64.3784152 C25.3560136,62.0882594 27.1683154,60.0327213 29.6408984,58.7715316 C30.7574871,58.2022246 32.2408453,58.0839581 33.1721338,57.1890593 C33.880775,56.5081892 33.9779737,55.4691681 33.8721564,54.5431465 C33.7328222,53.3264863 33.1501085,52.3252913 32.5424966,51.2886642 C32.2092438,50.7188784 31.8151818,50.1088725 31.9497279,49.4165109 C32.076613,48.7634119 32.6195853,48.2836427 33.1582483,47.9489534 C34.1862568,47.3106976 35.3880738,47.0234106 36.2298246,46.1036136 C37.0117239,45.2494137 37.4450484,44.186452 37.5317133,43.035389 C37.6471069,41.5012767 37.3828029,39.8565589 37.1481852,38.3415991 L27.9306641,55.9239505" id="Fill-47" fill="#9AAF94"></path>
                    <path d="M16.8628538,46.2482147 C15.5499525,44.5570522 13.965565,43.0985921 12.1829494,41.9144911 C11.2315508,41.2829386 8.98736096,40.0365921 8.53440521,41.9001267 C8.26866478,42.992296 9.33785104,44.0667491 10.0412252,44.7514497 C11.0984412,45.7804158 12.321326,46.6681325 13.213352,47.8541487 C12.1087336,48.2060752 10.9547977,48.2750241 9.99525934,49.0382498 C8.85903946,49.9427248 8.34958394,51.6884719 9.47574877,52.795963 C10.0249457,53.3355837 10.7527393,53.6669213 11.4364822,53.9982589 C12.3251565,54.4282317 13.2301104,54.8184632 14.14081,55.1991184 C16.107768,56.0202802 18.0996241,56.8538912 19.7769011,58.1998305 C21.4862584,59.5711469 23.0936289,61.8900314 23.2291326,64.1275179 C23.2425393,64.3410679 23.1611413,64.1466704 23.2885052,64.0489928 C23.3584117,64.1117171 23.5930294,63.9991964 23.591606,63.8747054 C23.5566397,60.5541471 22.9600405,57.393033 21.6030885,54.3516219 C20.3457293,51.5319005 18.7589477,48.6911114 16.8628538,46.2482147" id="Fill-48" fill="#9AAF94"></path>
                    <path d="M12.3285082,15.339012 C13.0524713,16.8424803 13.8099512,18.3109955 14.6138758,19.7766377 C15.3876353,21.1876954 16.160916,22.5882193 16.7397992,24.0936029 C17.4527497,25.9470825 18.2001746,27.7727911 18.953824,29.6099911 C19.7371597,31.5194917 20.4371823,33.465382 20.9988282,35.4514924 C22.0953068,39.3293874 22.9097653,43.3207607 23.3124458,47.3312865 C23.5173772,49.3710238 23.6102666,51.4227314 23.5542456,53.4715662 C23.510195,55.0731909 23.329683,56.6570996 23.1793362,58.2505846 C23.0227648,59.9077514 22.9097653,61.5850284 23.0486206,63.2484198 C23.164493,64.6388887 23.385704,66.2917462 24.4649453,67.2838438 C24.6756224,67.4782413 24.9748796,67.2359627 24.8523038,66.9850654 C23.5700464,64.3554322 23.6418682,61.4883085 23.8870197,58.6369855 C24.0225234,57.062653 24.2102175,55.4969392 24.2633656,53.916861 C24.330878,51.9063311 24.2518741,49.8919708 24.0627435,47.8895808 C23.6907069,43.9532708 22.9059348,40.0638843 21.8879814,36.2467984 C21.3655979,34.2898955 20.7196811,32.3708187 19.9756079,30.4862163 C19.2291406,28.5982623 18.3677586,26.7620198 17.6447531,24.8644896 C16.3375975,21.432847 14.3447837,18.3899994 12.5803631,15.1920168 C12.4884312,15.0258692 12.247589,15.1719067 12.3285082,15.339012" id="Fill-49" fill="#6C9162"></path>
                    <path d="M23.3713396,43.3997646 C23.578665,40.900847 23.799876,38.49434 24.6425844,36.1103371 C25.0352099,34.9985366 25.5116274,33.9173801 25.8908462,32.8012703 C26.2039889,31.8786004 26.6727455,30.6135802 26.4314244,29.6329741 C26.404611,29.5233262 26.2451667,29.529072 26.2150016,29.6329741 C26.0536421,30.1931836 26.0713581,30.8074989 25.9554857,31.381594 C25.8420074,31.9403671 25.6911817,32.4900428 25.5173731,33.0330151 C25.1477306,34.1879086 24.6646097,35.2944422 24.2461284,36.4311409 C23.4378944,38.6269708 23.0227648,41.0593336 23.1994463,43.3997646 C23.2075861,43.5103701 23.3622422,43.5103701 23.3713396,43.3997646" id="Fill-50" fill="#6C9162"></path>
                    <path d="M15.0361876,32.1098664 C16.5870584,32.4929156 17.7318968,33.5276275 18.5540163,34.8706939 C19.4541821,36.3401667 20.0627516,38.0653248 20.5631097,39.7052545 L20.5923172,39.6975935 C19.9847053,36.8252028 19.1142259,33.3667468 16.1532551,32.0303837 C13.7807437,30.9592821 10.6541041,31.4974664 9.13627136,28.934388 C9.06157676,28.8084605 8.83031076,28.8932102 8.89016221,29.0382901 C9.8822598,31.434742 12.8642983,31.5731186 15.0361876,32.1098664 Z" id="Fill-51" fill="#6C9162"></path>
                    <path d="M21.8032317,43.0205458 C21.9214982,43.1799901 22.0297096,43.3466165 22.1513277,43.5027091 C22.211658,43.5802766 22.2729459,43.6530559 22.3490769,43.7153014 C22.4271232,43.7789834 22.5180974,43.8579873 22.6248724,43.856072 C22.6694018,43.8551144 22.7005246,43.8057968 22.676584,43.7660555 C22.6277452,43.6860939 22.5391651,43.637734 22.4702162,43.5769249 C22.3988733,43.5142006 22.3265728,43.4524339 22.2576239,43.3877943 C22.1187685,43.2565999 21.9918835,43.1139141 21.8563798,42.9798469 L21.8032317,43.0205458" id="Fill-52" fill="#6C9162"></path>
                    <path d="M15.6002277,50.6226373 C17.3115003,52.0269917 18.8901421,53.6889466 20.1441496,55.5098671 C20.7436217,56.3803465 21.2971279,57.30158 21.7989224,58.2314321 C22.3471617,59.2474703 22.7067492,60.3209658 23.1362431,61.3863216 C23.1688023,61.4672408 23.3167551,61.469156 23.3052636,61.3638175 C23.0677731,59.1100513 21.6404358,57.1780466 20.4970337,55.3030205 C19.9033074,54.3291177 19.1649799,53.5438667 18.3711103,52.7318023 C17.5513849,51.8929244 16.7158587,51.0995336 15.7548838,50.4229729 C15.637575,50.3406173 15.4886646,50.5307055 15.6002277,50.6226373" id="Fill-53" fill="#6C9162"></path>
                    <path d="M28.3581622,50.5694892 C28.3270395,52.1663258 28.7225378,53.6659637 28.0215577,55.1876269 C27.3885688,56.5622949 26.3773187,57.7100063 25.5824915,58.986518 C24.8379395,60.1811529 24.1039213,61.7085618 24.1202009,63.1469118 C24.1211586,63.2297462 24.2485224,63.2771485 24.2873062,63.1923989 C24.5870422,62.5392999 24.6947748,61.7976207 24.9097612,61.113399 C25.1510823,60.3439488 25.4881656,59.6453627 25.9248418,58.9688019 C26.6899827,57.7832645 27.6289322,56.7040232 28.2499508,55.4289479 C28.9040074,54.0849238 28.8082451,52.7538276 28.7646733,51.2977616 C28.737381,50.369346 28.6444915,48.8773691 29.392874,48.1869228 C29.5106617,48.0787114 29.3603149,47.8934113 29.22529,47.9695423 C28.4012553,48.4363836 28.3744418,49.7382723 28.3581622,50.5694892 Z" id="Fill-54" fill="#6C9162"></path>
                    <path d="M23.7151263,63.2953434 C20.3955257,63.2493775 14.0723399,63.2129878 14.0723399,63.2129878 L15.6370962,74.8299143 C15.9890227,77.4432679 18.2198058,79.3934675 20.8566212,79.3934675 L26.5726738,79.3934675 C29.209968,79.3934675 31.4407512,77.4432679 31.7926777,74.8299143 L33.3574339,63.2129878 C33.3574339,63.2129878 27.0342482,63.2493775 23.7151263,63.2953434" id="Fill-55" fill="#FFFFFE"></path>
                </g>
                <polyline id="Fill-56" fill="#B4BDC7" fill-rule="nonzero" points="322.617271 164.792946 292.081715 225.275782 203.061301 225.915784 230.534269 163.94064 322.617271 164.792946"></polyline>
                <path d="M143.978903,225.538268 L143.995887,220.697726 L201.623807,220.697726 L228.137931,162.556415 L320.300451,162.556415 L322.617271,164.792946 L232.583972,164.792946 L205.030714,225.489631 C205.030714,225.489631 143.978903,225.379232 143.978903,225.538268" id="Fill-57" fill="#CAD2DB" fill-rule="nonzero"></path>
                <path d="M276.390486,198.16875 C275.384549,201.185789 269.926395,203.515734 264.198807,203.372139 C258.471219,203.229316 254.643562,200.667766 255.648727,197.649955 C256.654665,194.633688 262.112819,192.303743 267.840407,192.447338 C273.567995,192.590933 277.396423,195.152483 276.390486,198.16875" id="Fill-58" fill="#CAD2DB" fill-rule="nonzero"></path>
                <path d="M205.031486,225.875639 L204.871679,225.840898 C204.677903,225.752888 204.591437,225.524371 204.679447,225.329823 L232.335383,164.406938 L322.617271,164.406938 C322.83112,164.406938 323.003279,164.579098 323.003279,164.792946 C323.003279,165.006023 322.83112,165.178954 322.617271,165.178954 L232.832561,165.178954 L205.382754,225.649438 C205.318676,225.790717 205.177397,225.875639 205.031486,225.875639" id="Fill-59" fill="#FFFFFE" fill-rule="nonzero"></path>
                <polygon id="Fill-60" fill="#4E6591" fill-rule="nonzero" points="34.0692745 253.601056 139.968278 253.601056 139.968278 230.121728 34.0692745 230.121728"></polygon>
                <polygon id="Fill-61" fill-opacity="0.995576979" fill="#6C7FA1" fill-rule="nonzero" points="139.363018 253.601056 329.896612 253.601056 329.896612 230.121728 139.363018 230.121728"></polygon>
                <polygon id="Fill-62" fill="#3B507C" fill-rule="nonzero" points="34.0692745 234.43421 139.363018 234.43421 139.363018 230.121728 34.0692745 230.121728"></polygon>
                <polygon id="Fill-63" fill="#51648A" fill-rule="nonzero" points="139.363018 234.43421 329.896612 234.43421 329.896612 230.121728 139.363018 230.121728"></polygon>
                <polygon id="Fill-64" fill="#62769B" fill-rule="nonzero" points="28.9577553 231.239607 144.600376 231.239607 144.600376 225.489631 28.9577553 225.489631"></polygon>
                <polygon id="Fill-65" fill="#8899B3" fill-rule="nonzero" points="143.995887 231.239607 334.528709 231.239607 334.528709 225.489631 143.995887 225.489631"></polygon>
                <g id="Fill-66" filter="url(#filter-1)" transform="translate(56.000000, 75.000000)" fill="#FFFFFF" fill-rule="nonzero">
                    <g id="path-3-link" transform="translate(0.000000, 0.000000)">
                        <path d="M4.1889598,27.041411 C1.8752273,27.041411 0,25.166184 0,22.8524511 L0,4.1889598 C0,1.8759993 1.8752273,0 4.1889598,0 L56.573071,0 C58.886032,0 60.762031,1.8759993 60.762031,4.1889598 L60.762031,22.8524511 C60.762031,25.166184 58.886032,27.041411 56.573071,27.041411 L4.1889598,27.041411 Z" id="path-3"></path>
                    </g>
                </g>
                <polyline id="Fill-67" fill="#FFFFFE" fill-rule="nonzero" points="128.040658 88.9244522 114 83 114 94.8489044 128.040658 88.9244522"></polyline>
                <path d="M88.1725084,88.5862542 C88.1725084,90.0144842 87.0144842,91.1717364 85.5862542,91.1717364 C84.1580243,91.1717364 83,90.0144842 83,88.5862542 C83,87.1572523 84.1580243,86 85.5862542,86 C87.0144842,86 88.1725084,87.1572523 88.1725084,88.5862542" id="Fill-68" fill="#838386" fill-rule="nonzero"></path>
                <path d="M97.1725084,88.5862542 C97.1725084,90.0144842 96.0144842,91.1717364 94.5862542,91.1717364 C93.1580243,91.1717364 92,90.0144842 92,88.5862542 C92,87.1572523 93.1580243,86 94.5862542,86 C96.0144842,86 97.1725084,87.1572523 97.1725084,88.5862542" id="Fill-69" fill="#838386" fill-rule="nonzero"></path>
                <path d="M106.172508,88.5862542 C106.172508,90.0144842 105.014484,91.1717364 103.586254,91.1717364 C102.158024,91.1717364 101,90.0144842 101,88.5862542 C101,87.1572523 102.158024,86 103.586254,86 C105.014484,86 106.172508,87.1572523 106.172508,88.5862542" id="Fill-70" fill="#838386" fill-rule="nonzero"></path>
                <g id="Fill-71" filter="url(#filter-2)" transform="translate(207.213976, 17.843526)" fill="#FFFFFF">
                    <g id="path-5-link">
                        <path d="M10.03621,3.55271368e-15 C4.493134,3.55271368e-15 0,4.4931341 0,10.0362103 L0,50.9800886 C0,56.5223928 4.493134,61.016299 10.03621,61.016299 L17.771813,61.016299 C17.989521,64.7273808 17.457602,70.2488406 14.357957,77.3081566 C24.329318,72.7084841 30.071574,65.8020274 33.070857,61.016299 L96.342216,61.016299 C101.88452,61.016299 106.378426,56.5223928 106.378426,50.9800886 L106.378426,10.0362103 C106.378426,4.4931341 101.88452,3.55271368e-15 96.342216,3.55271368e-15 L10.03621,3.55271368e-15 Z" id="path-5"></path>
                    </g>
                </g>
                <path d="M223.931987,37.3570069 C222.756206,37.3570069 221.801994,36.4035669 221.801994,35.2277863 C221.801994,34.0512336 222.756206,33.0977936 223.931987,33.0977936 L266.73874,33.0977936 C267.915293,33.0977936 268.868733,34.0512336 268.868733,35.2277863 C268.868733,36.4035669 267.915293,37.3570069 266.73874,37.3570069 L223.931987,37.3570069 Z" id="Fill-72" fill="#A7A8A8" fill-rule="nonzero"></path>
                <path d="M297.433331,49.762535 L223.106701,49.762535 C222.38641,49.762535 221.801994,49.1788907 221.801994,48.4585996 C221.801994,47.7383085 222.38641,47.1538923 223.106701,47.1538923 L297.433331,47.1538923 C298.153622,47.1538923 298.738039,47.7383085 298.738039,48.4585996 C298.738039,49.1788907 298.153622,49.762535 297.433331,49.762535" id="Fill-73" fill="#CCCFD1" fill-rule="nonzero"></path>
                <path d="M223.106701,57.0040468 C222.38641,57.0040468 221.801994,56.4196305 221.801994,55.6993394 C221.801994,54.9790483 222.38641,54.3946321 223.106701,54.3946321 L297.433331,54.3946321 C298.153622,54.3946321 298.738039,54.9790483 298.738039,55.6993394 C298.738039,56.4196305 298.153622,57.0040468 297.433331,57.0040468 L223.106701,57.0040468 Z" id="Fill-74" fill="#CCCFD1" fill-rule="nonzero"></path>
                <path d="M281.219447,64.7242086 L223.106701,64.7242086 C222.38641,64.7242086 221.801994,64.1397924 221.801994,63.4195013 C221.801994,62.6992102 222.38641,62.1147939 223.106701,62.1147939 L281.219447,62.1147939 C281.940511,62.1147939 282.524927,62.6992102 282.524927,63.4195013 C282.524927,64.1397924 281.940511,64.7242086 281.219447,64.7242086" id="Fill-75" fill="#CCCFD1" fill-rule="nonzero"></path>
                <path d="M276.429087,37.3570069 C275.253306,37.3570069 274.299094,36.4035669 274.299094,35.2277863 C274.299094,34.0512336 275.253306,33.0977936 276.429087,33.0977936 L296.849687,33.0977936 C298.02624,33.0977936 298.978908,34.0512336 298.978908,35.2277863 C298.978908,36.4035669 298.02624,37.3570069 296.849687,37.3570069 L276.429087,37.3570069 Z" id="Fill-76" fill="#A7A8A8" fill-rule="nonzero"></path>
                <path d="M254.381684,125.516733 L231.19495,125.516733 C230.341872,125.516733 229.650918,124.825006 229.650918,123.9727 L229.650918,108.132472 C229.650918,107.280166 230.341872,106.58844 231.19495,106.58844 L254.381684,106.58844 C255.234762,106.58844 255.925717,107.280166 255.925717,108.132472 L255.925717,123.9727 C255.925717,124.825006 255.234762,125.516733 254.381684,125.516733" id="Fill-77" fill="#FFFFFE" fill-rule="nonzero"></path>
                <path d="M242.948897,118.881254 C242.818426,118.881254 242.687183,118.836477 242.579873,118.748467 L229.960496,108.325476 C229.714223,108.121664 229.679482,107.757272 229.883295,107.510227 C230.087879,107.263954 230.453043,107.229985 230.697772,107.433026 L242.93886,117.542578 L254.867282,107.16282 C255.108151,106.953604 255.474087,106.97908 255.684076,107.219949 C255.894064,107.46159 255.868587,107.826754 255.626946,108.036742 L243.328729,118.738431 C243.219874,118.833389 243.083999,118.881254 242.948897,118.881254" id="Fill-78" fill="#62769B" fill-rule="nonzero"></path>
                <path d="M230.32952,125.084404 C230.185925,125.084404 230.04233,125.031135 229.930388,124.924596 C229.698783,124.7038 229.689519,124.337864 229.910315,124.106259 L238.736004,114.828169 C238.954485,114.595792 239.322737,114.586528 239.553569,114.807324 C239.785946,115.028121 239.79521,115.394057 239.574414,115.626433 L230.748725,124.904524 C230.635238,125.024186 230.482379,125.084404 230.32952,125.084404" id="Fill-79" fill="#62769B" fill-rule="nonzero"></path>
                <path d="M255.247114,124.744717 C255.098887,124.744717 254.95066,124.688359 254.837174,124.574873 L246.046997,115.760764 C245.821569,115.534564 245.821569,115.167084 246.048542,114.941655 C246.275514,114.715454 246.642222,114.716226 246.867651,114.942427 L255.657827,123.756536 C255.883256,123.983509 255.883256,124.350216 255.656283,124.575645 C255.542797,124.688359 255.395341,124.744717 255.247114,124.744717" id="Fill-80" fill="#62769B" fill-rule="nonzero"></path>
                <path d="M264.492821,105.74641 C264.492821,110.024924 261.024924,113.493593 256.74641,113.493593 C252.467897,113.493593 249,110.024924 249,105.74641 C249,101.468669 252.467897,98 256.74641,98 C261.024924,98 264.492821,101.468669 264.492821,105.74641" id="Fill-81" fill="#E15E51" fill-rule="nonzero"></path>
                <text id="85" fill="#FFFFFE" fill-rule="nonzero" font-family="Courier" font-size="10" font-weight="normal">
                    <tspan x="251" y="109">85</tspan>
                </text>
                <path d="M355.936941,109.151424 L310.68058,109.151424 C308.975196,109.151424 307.592515,107.768743 307.592515,106.063359 L307.592515,98.9824268 C307.592515,97.277043 308.975196,95.894362 310.68058,95.894362 L355.936941,95.894362 C357.642325,95.894362 359.025006,97.277043 359.025006,98.9824268 L359.025006,106.063359 C359.025006,107.768743 357.642325,109.151424 355.936941,109.151424" id="Fill-82" fill="#283770" fill-rule="nonzero"></path>
                <path d="M313.947753,105.999282 C313.744712,105.999282 313.581817,105.927484 313.458294,105.782345 C313.334772,105.637978 313.280731,105.456554 313.296171,105.239618 L313.490719,103.522654 L313.469875,103.436188 L313.36102,103.457805 L311.948231,104.47841 C311.774527,104.608881 311.593103,104.656746 311.404731,104.619689 C311.217131,104.584176 311.065044,104.471462 310.949242,104.28309 C310.818771,104.051485 310.793295,103.848445 310.872812,103.674741 C310.951558,103.501037 311.086661,103.378287 311.274261,103.305717 L312.860754,102.588514 L312.926375,102.523665 L312.860754,102.458044 L311.274261,101.740841 C311.071992,101.654375 310.941522,101.516956 310.884392,101.328584 C310.825719,101.140212 310.848108,100.95184 310.949242,100.763468 C311.065044,100.575096 311.217131,100.463154 311.404731,100.426097 C311.593103,100.390584 311.774527,100.430729 311.948231,100.546532 L313.36102,101.589525 L313.469875,101.61037 L313.490719,101.523904 L313.296171,99.80694 C313.280731,99.5900035 313.338632,99.4085797 313.469875,99.2642127 C313.600345,99.1190736 313.774049,99.0472761 313.990986,99.0472761 C314.194026,99.0472761 314.360009,99.1190736 314.49048,99.2642127 C314.620951,99.4085797 314.671904,99.5900035 314.642567,99.80694 L314.447247,101.523904 L314.468864,101.61037 L314.57849,101.589525 L315.990507,100.568148 C316.163439,100.436905 316.348723,100.390584 316.544815,100.426097 C316.739363,100.463154 316.88759,100.575096 316.989496,100.763468 C317.119967,100.995073 317.145444,101.198113 317.064382,101.371817 C316.985636,101.54552 316.851306,101.669043 316.662934,101.740841 L315.077212,102.458044 L315.012363,102.523665 L315.077212,102.588514 L316.662934,103.305717 C316.866746,103.392183 317.000305,103.530374 317.064382,103.717974 C317.130003,103.907118 317.105299,104.09549 316.989496,104.28309 C316.88759,104.471462 316.739363,104.584176 316.544815,104.619689 C316.348723,104.656746 316.163439,104.615829 315.990507,104.500798 L314.57849,103.457805 L314.468864,103.436188 L314.447247,103.522654 L314.642567,105.239618 C314.671904,105.456554 314.617091,105.637978 314.480444,105.782345 C314.341481,105.927484 314.164689,105.999282 313.947753,105.999282" id="Fill-83" fill="#FFFFFE" fill-rule="nonzero"></path>
                <path d="M323.307677,105.999282 C323.105409,105.999282 322.942513,105.927484 322.818991,105.782345 C322.695468,105.637978 322.641427,105.456554 322.656095,105.239618 L322.851415,103.522654 L322.829799,103.436188 L322.721717,103.457805 L321.308927,104.47841 C321.135223,104.608881 320.9538,104.656746 320.765428,104.619689 C320.577828,104.584176 320.42574,104.471462 320.309938,104.28309 C320.179467,104.051485 320.153991,103.848445 320.233508,103.674741 C320.312254,103.501037 320.446585,103.378287 320.634957,103.305717 L322.22145,102.588514 L322.287071,102.523665 L322.22145,102.458044 L320.634957,101.740841 C320.432689,101.654375 320.302218,101.516956 320.244317,101.328584 C320.186415,101.140212 320.208804,100.95184 320.309938,100.763468 C320.42574,100.575096 320.577828,100.463154 320.765428,100.426097 C320.9538,100.390584 321.135223,100.430729 321.308927,100.546532 L322.721717,101.589525 L322.829799,101.61037 L322.851415,101.523904 L322.656095,99.80694 C322.641427,99.5900035 322.699328,99.4085797 322.829799,99.2642127 C322.96027,99.1190736 323.133973,99.0472761 323.351682,99.0472761 C323.554722,99.0472761 323.720706,99.1190736 323.851176,99.2642127 C323.981647,99.4085797 324.0326,99.5900035 324.003263,99.80694 L323.807943,101.523904 L323.82956,101.61037 L323.938414,101.589525 L325.350432,100.568148 C325.523363,100.436905 325.709419,100.390584 325.904739,100.426097 C326.100059,100.463154 326.248287,100.575096 326.350193,100.763468 C326.479891,100.995073 326.505368,101.198113 326.425078,101.371817 C326.346333,101.54552 326.212002,101.669043 326.02363,101.740841 L324.437909,102.458044 L324.373059,102.523665 L324.437909,102.588514 L326.02363,103.305717 C326.22667,103.392183 326.361001,103.530374 326.425078,103.717974 C326.4907,103.907118 326.465995,104.09549 326.350193,104.28309 C326.248287,104.471462 326.100059,104.584176 325.904739,104.619689 C325.709419,104.656746 325.523363,104.615829 325.350432,104.500798 L323.938414,103.457805 L323.82956,103.436188 L323.807943,103.522654 L324.003263,105.239618 C324.0326,105.456554 323.977787,105.637978 323.840368,105.782345 C323.702177,105.927484 323.525385,105.999282 323.307677,105.999282" id="Fill-84" fill="#FFFFFE" fill-rule="nonzero"></path>
                <path d="M332.668373,105.999282 C332.466105,105.999282 332.302437,105.927484 332.179687,105.782345 C332.055392,105.637978 332.001351,105.456554 332.016791,105.239618 L332.212112,103.522654 L332.190495,103.436188 L332.082413,103.457805 L330.668851,104.47841 C330.495148,104.608881 330.313724,104.656746 330.126124,104.619689 C329.937752,104.584176 329.785665,104.471462 329.670634,104.28309 C329.539392,104.051485 329.513915,103.848445 329.594205,103.674741 C329.67295,103.501037 329.807281,103.378287 329.995653,103.305717 L331.582146,102.588514 L331.646996,102.523665 L331.582146,102.458044 L329.995653,101.740841 C329.793385,101.654375 329.662142,101.516956 329.605013,101.328584 C329.547112,101.140212 329.5695,100.95184 329.670634,100.763468 C329.785665,100.575096 329.937752,100.463154 330.126124,100.426097 C330.313724,100.390584 330.495148,100.430729 330.668851,100.546532 L332.082413,101.589525 L332.190495,101.61037 L332.212112,101.523904 L332.016791,99.80694 C332.001351,99.5900035 332.060024,99.4085797 332.190495,99.2642127 C332.320966,99.1190736 332.494669,99.0472761 332.712378,99.0472761 C332.915418,99.0472761 333.08063,99.1190736 333.2111,99.2642127 C333.342343,99.4085797 333.393296,99.5900035 333.363188,99.80694 L333.16864,101.523904 L333.190256,101.61037 L333.29911,101.589525 L334.711128,100.568148 C334.88406,100.436905 335.069343,100.390584 335.265436,100.426097 C335.460756,100.463154 335.608983,100.575096 335.710889,100.763468 C335.840588,100.995073 335.866064,101.198113 335.785774,101.371817 C335.707029,101.54552 335.571926,101.669043 335.384326,101.740841 L333.798605,102.458044 L333.732983,102.523665 L333.798605,102.588514 L335.384326,103.305717 C335.587366,103.392183 335.720925,103.530374 335.785774,103.717974 C335.850624,103.907118 335.825919,104.09549 335.710889,104.28309 C335.608983,104.471462 335.460756,104.584176 335.265436,104.619689 C335.069343,104.656746 334.88406,104.615829 334.711128,104.500798 L333.29911,103.457805 L333.190256,103.436188 L333.16864,103.522654 L333.363188,105.239618 C333.393296,105.456554 333.337711,105.637978 333.201064,105.782345 C333.062873,105.927484 332.88531,105.999282 332.668373,105.999282" id="Fill-85" fill="#FFFFFE" fill-rule="nonzero"></path>
                <path d="M342.028297,105.999282 C341.826029,105.999282 341.663134,105.927484 341.540383,105.782345 C341.416088,105.637978 341.362047,105.456554 341.377488,105.239618 L341.572808,103.522654 L341.550419,103.436188 L341.442337,103.457805 L340.029547,104.47841 C339.855844,104.608881 339.67442,104.656746 339.486048,104.619689 C339.298448,104.584176 339.146361,104.471462 339.030558,104.28309 C338.900088,104.051485 338.874611,103.848445 338.954129,103.674741 C339.032875,103.501037 339.167977,103.378287 339.355577,103.305717 L340.942071,102.588514 L341.007692,102.523665 L340.942071,102.458044 L339.355577,101.740841 C339.153309,101.654375 339.022838,101.516956 338.965709,101.328584 C338.907036,101.140212 338.929424,100.95184 339.030558,100.763468 C339.146361,100.575096 339.298448,100.463154 339.486048,100.426097 C339.67442,100.390584 339.855844,100.430729 340.029547,100.546532 L341.442337,101.589525 L341.550419,101.61037 L341.572808,101.523904 L341.377488,99.80694 C341.362047,99.5900035 341.419949,99.4085797 341.550419,99.2642127 C341.681662,99.1190736 341.855366,99.0472761 342.072302,99.0472761 C342.275342,99.0472761 342.441326,99.1190736 342.571797,99.2642127 C342.702267,99.4085797 342.753221,99.5900035 342.723884,99.80694 L342.528564,101.523904 L342.55018,101.61037 L342.659807,101.589525 L344.071824,100.568148 C344.244756,100.436905 344.43004,100.390584 344.626132,100.426097 C344.82068,100.463154 344.968907,100.575096 345.070813,100.763468 C345.201284,100.995073 345.22676,101.198113 345.145699,101.371817 C345.066953,101.54552 344.932622,101.669043 344.74425,101.740841 L343.158529,102.458044 L343.09368,102.523665 L343.158529,102.588514 L344.74425,103.305717 C344.948063,103.392183 345.081621,103.530374 345.145699,103.717974 C345.21132,103.907118 345.186616,104.09549 345.070813,104.28309 C344.968907,104.471462 344.82068,104.584176 344.626132,104.619689 C344.43004,104.656746 344.244756,104.615829 344.071824,104.500798 L342.659807,103.457805 L342.55018,103.436188 L342.528564,103.522654 L342.723884,105.239618 C342.753221,105.456554 342.698407,105.637978 342.56176,105.782345 C342.422798,105.927484 342.246006,105.999282 342.028297,105.999282" id="Fill-86" fill="#FFFFFE" fill-rule="nonzero"></path>
                <path d="M351.388994,105.999282 C351.186725,105.999282 351.02383,105.927484 350.901079,105.782345 C350.776785,105.637978 350.722744,105.456554 350.737412,105.239618 L350.933504,103.522654 L350.911116,103.436188 L350.803033,103.457805 L349.390244,104.47841 C349.21654,104.608881 349.035116,104.656746 348.846744,104.619689 C348.659144,104.584176 348.507057,104.471462 348.391255,104.28309 C348.260784,104.051485 348.235307,103.848445 348.314825,103.674741 C348.393571,103.501037 348.527902,103.378287 348.716274,103.305717 L350.302767,102.588514 L350.368388,102.523665 L350.302767,102.458044 L348.716274,101.740841 C348.514005,101.654375 348.383535,101.516956 348.325633,101.328584 C348.267732,101.140212 348.290121,100.95184 348.391255,100.763468 C348.507057,100.575096 348.659144,100.463154 348.846744,100.426097 C349.035116,100.390584 349.21654,100.430729 349.390244,100.546532 L350.803033,101.589525 L350.911116,101.61037 L350.933504,101.523904 L350.737412,99.80694 C350.722744,99.5900035 350.780645,99.4085797 350.911116,99.2642127 C351.041586,99.1190736 351.21529,99.0472761 351.432998,99.0472761 C351.636039,99.0472761 351.802022,99.1190736 351.932493,99.2642127 C352.062964,99.4085797 352.113917,99.5900035 352.08458,99.80694 L351.88926,101.523904 L351.910876,101.61037 L352.019731,101.589525 L353.431748,100.568148 C353.60468,100.436905 353.790736,100.390584 353.986056,100.426097 C354.181376,100.463154 354.329603,100.575096 354.431509,100.763468 C354.561208,100.995073 354.586685,101.198113 354.506395,101.371817 C354.427649,101.54552 354.293318,101.669043 354.104946,101.740841 L352.519225,102.458044 L352.453604,102.523665 L352.519225,102.588514 L354.104946,103.305717 C354.307987,103.392183 354.442318,103.530374 354.506395,103.717974 C354.572016,103.907118 354.547312,104.09549 354.431509,104.28309 C354.329603,104.471462 354.181376,104.584176 353.986056,104.619689 C353.790736,104.656746 353.60468,104.615829 353.431748,104.500798 L352.019731,103.457805 L351.910876,103.436188 L351.88926,103.522654 L352.08458,105.239618 C352.113917,105.456554 352.059104,105.637978 351.921685,105.782345 C351.783494,105.927484 351.606702,105.999282 351.388994,105.999282" id="Fill-87" fill="#FFFFFF" fill-rule="nonzero"></path>
            </g>
            <g id="thinkster-new-3" transform="translate(62.701259, 80.146201)" fill-rule="nonzero">
                <g id="ThinksterLogomark">
                    <path d="M6.91396243,7.98605682 C5.50657133,6.82036831 3.7422439,6.17488134 1.91658299,6.15774351 C4.25651898,6.11744976 6.14372789,4.22588616 6.18392888,1.88055083 C6.20074096,3.71047652 6.84477574,5.47896797 8.00803311,6.8894616 C7.67919005,7.28948956 7.31267761,7.65684772 6.91357057,7.98644958" id="Shape-2" fill="#ACD6F2"></path>
                    <path d="M9.08251084,7.98605682 C8.68760773,7.65898427 8.32455621,7.29509501 7.99823663,6.89928068 C9.16101605,5.48869318 9.80487145,3.72045307 9.82194901,1.89076268 C9.86186566,4.23423955 11.7461683,6.12514741 14.0842007,6.16795536 C12.2587518,6.18495409 10.4946271,6.83046814 9.08760501,7.99626866" id="Shape-3" fill="#D7E940"></path>
                    <path d="M6.17334868,14.0915628 C6.1331477,11.7462275 4.24593878,9.85466387 1.90600279,9.81437012 C3.73166779,9.79762993 5.4960826,9.15224966 6.90338223,7.98644958 C7.30227376,8.31237444 7.66891807,8.67605045 7.99823663,9.07244019 C6.83489312,10.4830927 6.1906101,12.2516447 6.17334868,14.0817437" id="Shape-4" fill="#FFB0DF"></path>
                    <path d="M1.82645539,9.81437012 C0.817731932,9.81437012 0,8.9947513 0,7.98370024 C0,6.97264918 0.817731932,6.15303035 1.82645539,6.15303035 L1.9020842,6.15303035 C3.72775497,6.16973864 5.49218009,6.81512268 6.89946364,7.98095089 C5.49207254,9.1466394 3.72774512,9.79212637 1.9020842,9.8092642 L1.82645539,9.8092642" id="Shape-5" fill="#AC83EA"></path>
                    <path d="M7.99784477,6.89849515 C6.83497976,5.48820696 6.19085813,3.72027289 6.17334868,1.89076268 L6.17334868,1.83066989 C6.17334868,0.819618827 6.99108061,0 7.99980407,0 C9.00852753,0 9.82625946,0.819618827 9.82625946,1.83066989 L9.82625946,1.88487123 C9.80946814,3.71461371 9.16557892,5.48294668 8.00254708,6.89338923" id="Shape-6" fill="#7CC714"></path>
                    <path d="M7.99784477,16.0000002 C7.5139625,16.0002083 7.04983335,15.8076624 6.70764013,15.4647533 C6.36544692,15.1218441 6.17324467,14.6566854 6.1733486,14.1716865 L6.1733486,14.1163069 C6.19014,12.2865644 6.83402922,10.5182314 7.99706106,9.10778889 C9.16006596,10.5184275 9.80406691,12.2868261 9.82116529,14.1166997 L9.82116529,14.1716865 C9.82116529,14.6565493 9.62897094,15.1215475 9.28687377,15.4643604 C8.9447766,15.8071733 8.48080754,15.9997112 7.99706106,15.9996071" id="Shape-7" fill="#FD7F20"></path>
                    <path d="M14.169626,9.81437012 L14.0947809,9.81437012 C12.2691971,9.79746127 10.5049195,9.15194192 9.09779334,7.98605682 C10.5052376,6.82050978 12.2695598,6.17516341 14.0951728,6.15813627 L14.1735446,6.15813627 C15.1822681,6.15813627 16,6.9777551 16,7.98880616 C16,8.99985722 15.1822681,9.81947605 14.1735446,9.81947605" id="Shape-8" fill="#D5A809"></path>
                    <path d="M9.82194901,14.0966687 C9.80527918,12.2667853 9.16138092,10.4982888 7.99823663,9.08775796 C8.32359543,8.68642035 8.6866899,8.31735854 9.08251084,7.98566405 C10.4899712,9.15118299 12.254283,9.7965256 14.0798903,9.8135846 C11.7398013,9.85366918 9.8523597,11.7452923 9.81215253,14.0907773" id="Shape-9" fill="#FDB824"></path>
                </g>
            </g>
        </g>
    </g>
</svg>