<svg width="560" height="311" viewBox="0 0 560 311" fill="none" xmlns="http://www.w3.org/2000/svg">
<path d="M129.548 300.191C129.548 300.191 65.9275 262.813 47.6172 199.202C29.3068 135.581 57.2616 58.4409 110.271 19.4768C163.292 -19.4873 258.722 6.75459 301.132 39.3576L343.541 71.9606C343.541 71.9606 384.029 90.2464 437.05 88.6609C490.071 87.0658 537.303 146.708 549.836 193.629C562.369 240.549 532.48 302.574 532.48 302.574L129.548 300.191Z" fill="#DDECFF"/>
<g style="mix-blend-mode:multiply">
<path d="M100.638 309.733C100.638 309.733 56.2951 289.852 44.7288 243.729C33.1625 197.606 83.2831 155.462 88.1052 132.4C92.9274 109.339 82.3163 80.714 126.659 58.4405C171.003 36.1767 250.045 44.1233 279.933 38.5597C309.821 32.9962 344.52 -5.18005 404.285 3.57366C464.05 12.3178 521.893 38.5597 524.782 95.8192C527.67 153.079 505.504 154.664 527.67 185.682C549.836 216.699 558.514 238.166 547.914 269.971C537.315 301.777 515.137 310.53 515.137 310.53L100.638 309.733Z" fill="#DDECFF"/>
</g>
<path d="M534.729 188.752H499.829C497.669 188.752 495.918 190.503 495.918 192.663V210.089C495.918 212.249 497.669 214 499.829 214H534.729C536.889 214 538.64 212.249 538.64 210.089V192.663C538.64 190.503 536.889 188.752 534.729 188.752Z" fill="#60A8FF"/>
<path d="M517.279 223.871L522.816 210.762H511.749L517.279 223.871Z" fill="#60A8FF"/>
<path d="M517.154 197.042H527.142V198.505L532.038 195.673L527.142 192.85V194.312H517.154V197.042Z" fill="#223A7A"/>
<path d="M532.038 202.784H522.05V201.321L517.154 204.145L522.05 206.969V205.506H532.038V202.784Z" fill="white"/>
<path d="M511.021 205.357L510.544 205.529C510.544 205.529 509.058 203.839 508.292 201.993C507.525 200.147 507.494 197.903 507.494 197.903L507.838 197.754L505.726 192.701C505.351 192.998 504.991 193.374 504.702 193.867C503.505 195.885 503.622 198.99 504.827 202.017C506.031 205.044 507.314 207.75 509.66 209.447C511.045 210.449 512.234 210.628 513.149 210.48L511.014 205.364L511.021 205.357Z" fill="#223A7A"/>
<path d="M512.531 204.762L511.874 205.005L514.033 210.183C514.275 210.104 514.494 210.003 514.69 209.901C515.245 209.596 515.495 208.923 515.261 208.329L514.134 205.482C513.884 204.848 513.172 204.535 512.539 204.762H512.531Z" fill="#223A7A"/>
<path d="M507.384 191.81C507.118 191.904 506.829 192.037 506.54 192.209L508.698 197.371L509.426 197.066C510.059 196.8 510.357 196.089 510.114 195.447L508.98 192.538C508.737 191.904 508.026 191.576 507.392 191.81H507.384Z" fill="#223A7A"/>
<path d="M311.623 296.801V238.545C311.623 238.545 310.974 222.847 319.226 218.318C327.478 213.789 362.268 216.214 362.268 216.214V296.801H311.615H311.623Z" fill="#1C83FF"/>
<path d="M373.149 161.673C373.149 161.673 371.044 179.311 370.239 180.766L369.433 182.22L365.389 184.974C365.389 184.974 373.156 195.979 382.707 197.754C392.257 199.538 391.443 193.867 391.443 193.867L389.989 190.793L391.928 173.961C391.928 173.961 374.611 166.03 373.156 161.665L373.149 161.673Z" fill="#FF9D8C"/>
<path d="M360.36 186.436L366.672 183.683C366.672 183.683 370.716 190.315 380.102 194.203C389.488 198.09 389.653 195.822 390.137 194.203C390.622 192.584 389.973 190.808 389.973 190.808L390.669 185.145L394.424 186.397L407.455 291.794L373.954 293.413L360.36 186.444V186.436Z" fill="white"/>
<path d="M391.271 185.247C391.271 185.247 393.54 190.48 395.644 202.775C397.748 215.071 399.688 235.791 400.173 250.026C400.658 264.262 400.978 296.792 400.978 296.792H443.215C443.7 296.792 446.61 280.773 446.61 280.773C446.61 280.773 428.159 264.966 427.189 262.377C426.539 260.648 426.868 228.665 424.115 213.937C421.361 199.209 417.803 196.244 410.356 192.576C402.66 188.782 391.264 185.239 391.264 185.239L391.271 185.247Z" fill="#223A7A"/>
<path d="M413.282 278.254C413.063 278.254 412.891 278.082 412.891 277.863C412.891 276.706 412.687 260.264 412.484 244.371C412.288 228.469 412.077 212.028 412.077 210.871C412.077 210.652 412.249 210.479 412.468 210.479C412.687 210.479 412.859 210.652 412.859 210.871C412.859 212.028 413.063 228.469 413.266 244.363C413.462 260.264 413.673 276.706 413.673 277.863C413.673 278.082 413.501 278.254 413.282 278.254Z" fill="#8593B6"/>
<path d="M329.128 274.305L328.808 296.8H378.006C378.006 296.8 380.11 277.707 379.304 275.924C378.499 274.141 329.136 274.305 329.136 274.305H329.128Z" fill="#223A7A"/>
<g style="mix-blend-mode:multiply">
<path d="M383.88 180.28C385.882 181.899 388.628 183.19 390.763 183.98L391.921 173.968C391.921 173.968 378.913 168.008 374.502 163.581C375.425 168.618 377.693 175.29 383.88 180.28Z" fill="#8E9BBB"/>
</g>
<path d="M407.134 128.821C407.134 128.821 410.528 134.649 411.178 141.766C411.827 148.884 411.178 167.171 405.35 174.938C399.523 182.705 387.384 180.437 381.885 175.744C376.833 171.434 371.85 166.678 370.56 157.292C369.261 147.906 373.313 130.104 384.803 126.381C396.293 122.658 407.134 128.806 407.134 128.806V128.821Z" fill="#FF9D8C"/>
<path d="M421.729 286.624C421.729 286.624 421.158 286.624 420.29 286.601C420.087 286.593 419.86 286.601 419.625 286.593C418.788 286.57 417.771 286.546 416.747 286.515C416.52 286.507 416.285 286.499 416.058 286.491C415.042 286.468 414.173 286.593 413.36 286.546H413.336C413.164 286.538 412.914 286.562 412.711 286.57C412.609 286.577 412.515 286.585 412.453 286.577C411.983 286.491 411.889 286.382 411.381 286.155C410.724 285.858 401.831 283.871 394.596 283.918C387.369 283.949 380.884 284.442 379.828 283.558C378.765 282.659 378.123 273.578 384.295 272.983L391.882 275.862C391.882 275.862 409.207 273.805 415.558 278.49C421.925 283.175 421.729 286.624 421.729 286.624Z" fill="#FF9D8C"/>
<path d="M413.336 286.546C413.164 286.538 412.914 286.562 412.711 286.57C412.554 286.319 412.226 285.866 412.046 285.678C410.09 283.683 405.366 282.393 403.653 281.978C403.497 281.939 403.395 281.783 403.434 281.626C403.465 281.47 403.63 281.376 403.794 281.407C406.289 282.01 411.584 283.551 413.086 286.077C413.133 286.147 413.258 286.39 413.336 286.546Z" fill="#223A7A"/>
<path d="M416.747 286.514C416.52 286.514 416.285 286.506 416.058 286.491C413.923 282.596 410.427 281.477 406.117 280.093L405.859 280.007C405.71 279.96 405.624 279.788 405.671 279.631C405.718 279.483 405.882 279.397 406.047 279.444L406.297 279.53C410.865 280.992 414.533 282.173 416.755 286.514H416.747Z" fill="#223A7A"/>
<path d="M420.29 286.601C420.086 286.601 419.859 286.601 419.625 286.593C418.326 283.871 414.04 279.311 408.377 278.255C408.213 278.224 408.111 278.075 408.135 277.911C408.166 277.754 408.322 277.653 408.479 277.676C414.322 278.771 419.03 283.542 420.297 286.601H420.29Z" fill="#223A7A"/>
<path d="M374.439 149.291C374.439 149.291 377.998 147.594 380.509 142.815C383.02 138.044 382.691 133.75 382.691 133.75C382.691 133.75 387.22 133.022 394.017 135.048C400.814 137.074 408.902 139.819 415.699 135.94C422.496 132.052 422.496 125.826 419.179 123.237C415.464 120.336 408.096 122.103 408.096 122.103C408.096 122.103 410.927 119.35 409.394 117.731C407.854 116.112 402.277 118.216 402.277 118.216C402.277 118.216 395.48 112.795 382.613 113.445C369.746 114.094 363.599 123.073 362.871 133.108C362.144 143.144 365.781 153.179 365.781 153.179L374.439 149.291Z" fill="#263238"/>
<g style="mix-blend-mode:multiply">
<path d="M400.54 151.724C399.813 153.523 399.829 155.611 399.649 157.512C399.508 158.998 399.234 160.727 400.595 161.728C401.244 162.205 404.318 163.495 402.738 164.544C402.136 164.942 401.127 164.833 400.439 164.802C399.969 164.778 399.492 164.763 399.015 164.723C398.507 164.684 398.014 164.536 397.505 164.528C397.208 164.528 397.114 164.919 397.357 165.075C398.17 165.584 399.375 165.748 400.321 165.779C401.276 165.818 401.917 165.779 402.777 165.349C403.301 165.091 403.818 164.716 403.896 164.09C403.99 163.386 403.458 162.752 402.926 162.353C402.316 161.9 401.565 161.689 400.947 161.243C400.087 160.633 400.157 159.592 400.22 158.638C400.368 156.339 400.892 154.078 401.096 151.786C401.127 151.434 400.642 151.434 400.532 151.708L400.54 151.724Z" fill="#8E9BBB"/>
</g>
<path d="M407.157 157.105C406.915 158.466 405.922 159.436 404.944 159.264C403.958 159.092 403.364 157.84 403.598 156.479C403.841 155.118 404.834 154.148 405.812 154.321C406.798 154.493 407.392 155.744 407.157 157.105Z" fill="#223A7A"/>
<path d="M394.776 156.026C394.557 157.496 393.516 158.56 392.46 158.403C391.404 158.247 390.716 156.925 390.935 155.455C391.154 153.984 392.194 152.92 393.25 153.077C394.306 153.233 394.995 154.555 394.776 156.026Z" fill="#223A7A"/>
<path d="M404.279 151.481C405.038 151.606 405.796 151.481 406.563 151.536C406.743 151.551 406.931 151.575 407.111 151.59C407.243 151.606 406.868 151.551 407.048 151.582C407.087 151.582 407.126 151.598 407.165 151.598C407.259 151.614 407.353 151.637 407.447 151.661C407.611 151.7 407.768 151.762 407.932 151.794C408.08 151.825 408.245 151.864 408.393 151.856C408.479 151.848 408.558 151.833 408.644 151.825C408.589 151.833 408.542 151.841 408.487 151.856C408.487 151.872 408.769 151.833 408.8 151.825C409.23 151.723 409.504 151.223 409.379 150.8C409.348 150.675 409.293 150.573 409.215 150.472C409.183 150.433 409.152 150.386 409.113 150.347C409.144 150.378 409.175 150.417 409.207 150.448C409.175 150.401 409.144 150.362 409.105 150.315C409.066 150.245 409.003 150.182 408.933 150.143C408.87 150.096 408.816 150.049 408.753 150.002C408.55 149.862 408.292 149.783 408.049 149.721C407.595 149.604 407.126 149.549 406.657 149.541C406.195 149.541 405.734 149.588 405.28 149.651C404.874 149.705 404.428 149.846 404.099 150.089C403.849 150.276 403.692 150.519 403.732 150.847C403.771 151.121 403.982 151.434 404.279 151.481Z" fill="#223A7A"/>
<path d="M395.644 149.315C395.542 149.252 395.433 149.197 395.331 149.15C395.237 149.111 394.987 148.978 395.174 149.08C395.104 149.041 395.034 149.002 394.963 148.97C394.65 148.814 394.322 148.704 393.986 148.618C393.25 148.431 392.468 148.384 391.709 148.462C390.904 148.548 390.161 148.744 389.465 149.166C389.363 149.229 389.261 149.283 389.183 149.369C389.128 149.44 389.074 149.51 389.019 149.58C389.034 149.557 389.05 149.534 389.066 149.51C388.847 149.659 388.722 149.909 388.729 150.167C388.729 150.417 388.862 150.629 389.081 150.746C389.347 150.895 389.598 150.824 389.863 150.746H389.457C389.684 150.785 389.84 150.793 390.067 150.746C390.075 150.746 390.286 150.691 390.145 150.722C390.012 150.754 390.364 150.699 390.403 150.691C390.45 150.691 390.693 150.66 390.434 150.691C390.481 150.691 390.528 150.683 390.575 150.676C390.7 150.66 390.818 150.644 390.943 150.636C391.475 150.597 392.007 150.574 392.546 150.55C393.039 150.535 393.548 150.527 394.048 150.55C394.259 150.558 394.47 150.566 394.682 150.574C394.799 150.574 394.752 150.597 394.666 150.574C394.713 150.589 394.752 150.597 394.799 150.605C394.885 150.629 394.971 150.66 395.057 150.691C395.401 150.824 395.816 150.574 395.941 150.253C396.082 149.909 395.964 149.51 395.636 149.315H395.644Z" fill="#223A7A"/>
<path d="M399.484 171.818C400.227 170.324 401.58 169.229 403.137 168.525C401.784 168.384 395.378 167.797 393.766 168.713C391.96 169.737 394.103 173.867 397.841 174.07C398.233 174.094 398.592 174.063 398.936 174.008C398.968 173.257 399.14 172.506 399.484 171.818Z" fill="#223A7A"/>
<path d="M369.91 163.128C369.91 163.128 370.56 165.638 374.283 168.548C378.006 171.458 383.403 173.593 383.403 173.593L383.833 171.708C383.833 171.708 378.248 169.283 375.659 166.608C373.07 163.941 372.75 162.479 372.75 162.479L369.918 163.128H369.91Z" fill="#DEE1EB"/>
<path d="M384.474 170.308C387.47 170.167 389.144 172.537 389.347 174.07C389.558 175.603 388.119 177.324 384.748 175.814C380.564 173.937 381.471 170.449 384.467 170.308H384.474Z" fill="#223A7A"/>
<path d="M372.257 144.598C372.257 144.598 373.548 135.298 379.782 128.978C391.678 116.925 401.792 117.652 401.792 117.652C401.792 117.652 401.714 115.955 397.904 114.657C394.33 113.444 392.726 114.094 392.726 114.094C392.726 114.094 382.934 114.899 374.682 124.043C366.43 133.186 365.538 144.841 365.538 144.841L372.257 144.598Z" fill="#DEE1EB"/>
<path d="M371.366 143.464C363.575 142.142 359.226 148.235 358.906 154.39C358.585 160.538 363.051 165.216 369.019 164.746C382.449 163.698 380.916 145.083 371.366 143.464Z" fill="white"/>
<path d="M367.486 158.771C365.429 158.771 363.692 157.738 362.699 155.916C361.635 153.968 361.721 151.567 362.926 149.799C363.019 149.667 363.199 149.635 363.332 149.721C363.465 149.815 363.504 149.995 363.411 150.128C362.331 151.716 362.253 153.875 363.215 155.634C364.122 157.3 365.734 158.247 367.642 158.184C369.425 158.137 370.935 157.324 371.889 155.893C372.984 154.258 373.235 152.005 372.531 150.144C371.827 148.298 369.91 147.046 368.166 147.273C368.01 147.297 367.861 147.179 367.838 147.023C367.814 146.866 367.931 146.718 368.088 146.694C370.129 146.421 372.272 147.821 373.078 149.94C373.852 151.974 373.571 154.438 372.374 156.221C371.303 157.817 369.629 158.724 367.658 158.771C367.603 158.771 367.548 158.771 367.493 158.771H367.486Z" fill="#818FB3"/>
<path d="M361.823 184.168C361.823 184.168 338.194 189.995 329.942 199.381C321.69 208.767 317.803 255.048 317.646 263.628C317.49 272.209 323.473 275.768 327.032 278.192C330.591 280.617 346.289 284.989 358.913 285.639C371.537 286.288 383.512 285.639 383.512 285.639C383.512 285.639 383.473 282.885 385.413 278.842C387.212 275.087 389.496 274.313 389.496 274.313L378.655 270.425C378.655 270.425 376.754 236.409 373.798 219.936C370.403 201 361.823 184.176 361.823 184.176V184.168Z" fill="#223A7A"/>
<path d="M400.978 264.989C400.924 264.989 400.869 264.982 400.822 264.958C400.627 264.872 400.533 264.637 400.627 264.442C402.84 259.444 405.132 249.643 406.422 242.76L406.532 242.205C406.923 240.179 407.408 237.668 406.438 235.924C405.945 235.04 404.827 233.116 403.747 231.27C402.629 229.354 401.581 227.539 401.284 227C400.713 225.944 402.512 223.12 405.108 219.248C405.812 218.2 406.415 217.301 406.767 216.691C407.689 215.087 407.079 213.624 406.36 211.919L406.117 211.333C405.468 209.745 404.733 208.157 404.021 206.616C403.732 205.991 403.442 205.357 403.153 204.723C402.77 203.886 402.394 203.034 402.003 202.174C399.719 197.074 397.349 191.802 394.322 186.71C394.213 186.522 394.275 186.288 394.455 186.17C394.643 186.061 394.878 186.123 394.995 186.303C398.045 191.434 400.423 196.73 402.715 201.845C403.098 202.705 403.481 203.558 403.857 204.387C404.146 205.021 404.436 205.646 404.725 206.272C405.437 207.821 406.18 209.416 406.829 211.02L407.072 211.599C407.799 213.327 408.55 215.126 407.431 217.058C407.064 217.692 406.454 218.607 405.742 219.663C404.389 221.681 401.573 225.881 401.956 226.608C402.246 227.14 403.294 228.947 404.404 230.856C405.484 232.709 406.602 234.634 407.103 235.525C408.214 237.512 407.697 240.187 407.283 242.33L407.173 242.885C406.704 245.388 404.209 258.216 401.323 264.739C401.26 264.888 401.111 264.974 400.963 264.974L400.978 264.989Z" fill="#8593B6"/>
<path d="M377.92 266.358C377.818 266.358 377.716 266.319 377.646 266.241C375.808 264.387 366.938 249.033 366.281 246.147C365.921 244.567 366.829 240.555 367.705 236.675C368.385 233.672 369.089 230.566 368.886 229.722C368.589 228.462 366.32 226.609 364.13 224.817C361.479 222.651 358.741 220.414 358.209 218.396C357.607 216.104 358.123 201.759 358.459 192.271C358.585 188.861 358.678 186.163 358.678 185.201C358.678 184.982 358.851 184.81 359.07 184.81C359.289 184.81 359.461 184.982 359.461 185.201C359.461 186.178 359.367 188.877 359.242 192.295C358.921 201.165 358.389 216.01 358.96 218.193C359.429 219.96 362.183 222.213 364.615 224.2C367.016 226.163 369.277 228.009 369.637 229.526C369.879 230.543 369.222 233.46 368.456 236.832C367.634 240.445 366.711 244.544 367.032 245.952C367.681 248.783 376.387 263.848 378.194 265.67C378.342 265.827 378.342 266.069 378.194 266.225C378.115 266.304 378.021 266.343 377.92 266.343V266.358Z" fill="#8593B6"/>
<path d="M346.125 259.647C346.125 259.647 346.086 259.647 346.07 259.647C345.859 259.616 345.71 259.421 345.734 259.202C346.023 257.168 350.513 216.652 350.716 213.546C350.732 213.327 350.919 213.163 351.131 213.179C351.35 213.194 351.506 213.382 351.498 213.593C351.295 216.699 346.797 257.27 346.508 259.303C346.477 259.499 346.312 259.64 346.125 259.64V259.647Z" fill="#8593B6"/>
<path d="M378.327 270.652C378.28 270.652 378.225 270.644 378.178 270.621C377.185 270.214 372.789 268.736 367.228 266.858C355.996 263.073 340.618 257.887 337.693 256.362C337.497 256.26 337.427 256.025 337.529 255.838C337.63 255.642 337.865 255.572 338.053 255.673C340.923 257.167 356.903 262.556 367.478 266.123C373.055 268.008 377.458 269.486 378.475 269.901C378.679 269.979 378.772 270.214 378.694 270.409C378.632 270.558 378.483 270.652 378.334 270.652H378.327Z" fill="#8593B6"/>
<path d="M372.922 286.78C363.035 286.78 343.88 284.997 329.324 279.85C329.12 279.78 329.011 279.553 329.089 279.35C329.159 279.147 329.386 279.037 329.59 279.115C347.978 285.623 373.704 286.734 378.491 285.654C378.702 285.607 378.913 285.74 378.96 285.951C379.007 286.163 378.874 286.374 378.663 286.421C377.63 286.655 375.62 286.78 372.937 286.78H372.922Z" fill="#8593B6"/>
<path d="M547.033 229.8L516.098 291.083L425.906 291.732L453.736 228.939L547.033 229.8Z" fill="#F6F7FA"/>
<path d="M366.046 291.348L366.062 286.444H424.451L451.311 227.539H544.686L547.032 229.807H455.816L427.9 291.301C427.9 291.301 366.046 291.192 366.046 291.348Z" fill="#D9DEE8"/>
<path d="M500.196 263.621C499.179 266.679 493.649 269.041 487.846 268.893C482.042 268.744 478.162 266.155 479.187 263.097C480.204 260.039 485.734 257.676 491.538 257.825C497.341 257.974 501.221 260.563 500.196 263.621Z" fill="#D9DEE8"/>
<path d="M427.9 291.684C427.846 291.684 427.791 291.677 427.736 291.653C427.541 291.567 427.455 291.332 427.541 291.137L455.558 229.416H547.025C547.244 229.416 547.416 229.588 547.416 229.807C547.416 230.026 547.244 230.198 547.025 230.198H456.058L428.245 291.465C428.182 291.606 428.033 291.692 427.885 291.692L427.9 291.684Z" fill="white"/>
<g style="mix-blend-mode:multiply">
<path d="M190.674 294.454H189.59H0V299.929H189.59H190.674H532.656V294.454H190.674Z" fill="#BDC4D7"/>
</g>
<path d="M367.004 291.067H27.0999V296.764H367.004V291.067Z" fill="#6F7FA9"/>
<path d="M559.25 291.325H311.303V296.8H559.25V291.325Z" fill="#9CA6C3"/>
<path d="M349.934 152.787L335.706 146.788V158.787L349.934 152.787Z" fill="white"/>
<path d="M306.969 155.408C308.417 155.408 309.59 154.234 309.59 152.787C309.59 151.34 308.417 150.167 306.969 150.167C305.522 150.167 304.349 151.34 304.349 152.787C304.349 154.234 305.522 155.408 306.969 155.408Z" fill="#223A7A"/>
<path d="M315.957 155.408C317.404 155.408 318.577 154.234 318.577 152.787C318.577 151.34 317.404 150.167 315.957 150.167C314.51 150.167 313.337 151.34 313.337 152.787C313.337 154.234 314.51 155.408 315.957 155.408Z" fill="#223A7A"/>
<path d="M324.944 155.408C326.391 155.408 327.564 154.234 327.564 152.787C327.564 151.34 326.391 150.167 324.944 150.167C323.497 150.167 322.323 151.34 322.323 152.787C322.323 154.234 323.497 155.408 324.944 155.408Z" fill="#223A7A"/>
<path d="M527.721 80.9219H440.282C434.666 80.9219 430.114 85.4741 430.114 91.0901V132.568C430.114 138.184 434.666 142.737 440.282 142.737H448.119C448.338 146.499 447.799 152.091 444.662 159.24C454.768 154.579 460.579 147.586 463.622 142.737H527.728C533.344 142.737 537.896 138.184 537.896 132.568V91.0901C537.896 85.4741 533.344 80.9219 527.728 80.9219H527.721Z" fill="#60A8FF"/>
<path d="M490.419 100.688H447.048C445.859 100.688 444.889 99.7178 444.889 98.5289C444.889 97.34 445.859 96.3701 447.048 96.3701H490.419C491.608 96.3701 492.578 97.3322 492.578 98.5289C492.578 99.7178 491.616 100.688 490.419 100.688Z" fill="white"/>
<path d="M521.518 113.257H446.211C445.484 113.257 444.889 112.663 444.889 111.935C444.889 111.208 445.484 110.613 446.211 110.613H521.518C522.246 110.613 522.84 111.208 522.84 111.935C522.84 112.663 522.246 113.257 521.518 113.257Z" fill="#D2E6FF"/>
<path d="M521.518 120.593H446.211C445.484 120.593 444.889 119.999 444.889 119.271C444.889 118.544 445.484 117.949 446.211 117.949H521.518C522.246 117.949 522.84 118.544 522.84 119.271C522.84 119.999 522.246 120.593 521.518 120.593Z" fill="#D2E6FF"/>
<path d="M505.093 128.415H446.219C445.491 128.415 444.897 127.821 444.897 127.093C444.897 126.366 445.491 125.771 446.219 125.771H505.093C505.82 125.771 506.414 126.366 506.414 127.093C506.414 127.821 505.82 128.415 505.093 128.415Z" fill="#D2E6FF"/>
<path d="M520.924 100.688H500.235C499.047 100.688 498.077 99.7178 498.077 98.5289C498.077 97.34 499.047 96.3701 500.235 96.3701H520.924C522.113 96.3701 523.083 97.3322 523.083 98.5289C523.083 99.7178 522.113 100.688 520.924 100.688Z" fill="white"/>
<path d="M468.776 176.909H445.288C444.424 176.909 443.724 177.61 443.724 178.474V194.524C443.724 195.388 444.424 196.088 445.288 196.088H468.776C469.64 196.088 470.341 195.388 470.341 194.524V178.474C470.341 177.61 469.64 176.909 468.776 176.909Z" fill="white"/>
<path d="M457.2 189.37C457.067 189.37 456.934 189.323 456.825 189.237L444.036 178.678C443.786 178.474 443.755 178.099 443.958 177.849C444.169 177.598 444.537 177.567 444.787 177.77L457.192 188.017L469.277 177.504C469.519 177.293 469.895 177.317 470.106 177.559C470.317 177.802 470.294 178.177 470.051 178.388L457.591 189.229C457.482 189.323 457.341 189.37 457.208 189.37H457.2Z" fill="#6F7FA9"/>
<path d="M444.412 195.65C444.263 195.65 444.123 195.596 444.005 195.486C443.771 195.259 443.763 194.892 443.982 194.657L452.922 185.255C453.141 185.021 453.516 185.013 453.751 185.232C453.986 185.459 453.994 185.826 453.775 186.061L444.834 195.463C444.717 195.58 444.568 195.642 444.412 195.642V195.65Z" fill="#6F7FA9"/>
<path d="M469.661 195.306C469.512 195.306 469.363 195.251 469.246 195.134L460.337 186.201C460.11 185.975 460.11 185.599 460.337 185.372C460.564 185.145 460.939 185.145 461.166 185.372L470.075 194.305C470.302 194.531 470.302 194.907 470.075 195.134C469.958 195.251 469.809 195.306 469.661 195.306Z" fill="#6F7FA9"/>
<path d="M471.569 184.16C475.902 184.16 479.414 180.648 479.414 176.315C479.414 171.982 475.902 168.47 471.569 168.47C467.236 168.47 463.724 171.982 463.724 176.315C463.724 180.648 467.236 184.16 471.569 184.16Z" fill="#FF5F42"/>
<path d="M470.679 177.985L470.655 177.709C470.959 177.845 471.223 178.021 471.447 178.237C471.671 178.453 471.843 178.689 471.963 178.945C472.083 179.201 472.143 179.465 472.143 179.737C472.143 180.193 472.015 180.613 471.759 180.997C471.511 181.373 471.175 181.677 470.751 181.909C470.327 182.133 469.855 182.245 469.335 182.245C468.815 182.245 468.343 182.133 467.919 181.909C467.495 181.677 467.155 181.373 466.899 180.997C466.651 180.613 466.527 180.193 466.527 179.737C466.527 179.369 466.603 179.053 466.755 178.789C466.915 178.517 467.111 178.289 467.343 178.105C467.583 177.921 467.819 177.769 468.051 177.649L467.955 177.985C467.755 177.905 467.559 177.793 467.367 177.649C467.183 177.497 467.031 177.305 466.911 177.073C466.791 176.841 466.731 176.569 466.731 176.257C466.731 175.809 466.847 175.405 467.079 175.045C467.311 174.677 467.623 174.385 468.015 174.169C468.415 173.953 468.855 173.845 469.335 173.845C469.823 173.845 470.259 173.953 470.643 174.169C471.035 174.385 471.347 174.677 471.579 175.045C471.811 175.405 471.927 175.809 471.927 176.257C471.927 176.601 471.859 176.889 471.723 177.121C471.587 177.353 471.423 177.537 471.231 177.673C471.039 177.809 470.855 177.913 470.679 177.985ZM468.171 176.281C468.171 176.497 468.219 176.689 468.315 176.857C468.419 177.025 468.559 177.161 468.735 177.265C468.911 177.361 469.111 177.409 469.335 177.409C469.559 177.409 469.755 177.361 469.923 177.265C470.099 177.161 470.235 177.025 470.331 176.857C470.435 176.689 470.487 176.497 470.487 176.281C470.487 175.961 470.375 175.697 470.151 175.489C469.935 175.273 469.663 175.165 469.335 175.165C468.999 175.165 468.719 175.273 468.495 175.489C468.279 175.697 468.171 175.961 468.171 176.281ZM469.335 180.925C469.719 180.925 470.043 180.809 470.307 180.577C470.571 180.337 470.703 180.049 470.703 179.713C470.703 179.481 470.643 179.273 470.523 179.089C470.403 178.905 470.239 178.761 470.031 178.657C469.823 178.545 469.591 178.489 469.335 178.489C469.079 178.489 468.847 178.545 468.639 178.657C468.431 178.761 468.267 178.905 468.147 179.089C468.027 179.273 467.967 179.481 467.967 179.713C467.967 180.049 468.099 180.337 468.363 180.577C468.627 180.809 468.951 180.925 469.335 180.925ZM468.939 197.365C468.643 197.365 468.327 197.321 467.991 197.233C467.655 197.137 467.379 197.001 467.163 196.825C467.059 196.737 466.975 196.625 466.911 196.489C466.855 196.345 466.827 196.209 466.827 196.081C466.827 195.945 466.883 195.817 466.995 195.697C467.115 195.577 467.283 195.517 467.499 195.517C467.643 195.517 467.823 195.593 468.039 195.745C468.167 195.825 468.307 195.897 468.459 195.961C468.611 196.025 468.767 196.057 468.927 196.057C469.311 196.057 469.643 195.989 469.923 195.853C470.203 195.709 470.419 195.513 470.571 195.265C470.723 195.017 470.799 194.725 470.799 194.389C470.799 194.085 470.727 193.825 470.583 193.609C470.447 193.393 470.263 193.225 470.031 193.105C469.807 192.985 469.563 192.925 469.299 192.925C469.051 192.925 468.835 192.965 468.651 193.045C468.467 193.125 468.299 193.209 468.147 193.297C467.995 193.377 467.843 193.417 467.691 193.417C467.427 193.417 467.231 193.361 467.103 193.249C466.975 193.129 466.895 192.989 466.863 192.829C466.831 192.669 466.823 192.525 466.839 192.397L467.211 189.481C467.243 189.313 467.323 189.177 467.451 189.073C467.587 188.961 467.747 188.905 467.931 188.905H471.399C471.591 188.905 471.751 188.969 471.879 189.097C472.007 189.225 472.071 189.385 472.071 189.577C472.071 189.761 472.007 189.917 471.879 190.045C471.751 190.165 471.591 190.225 471.399 190.225H468.303L468.435 190.117L468.111 192.553L467.955 192.097C468.003 192.017 468.107 191.941 468.267 191.869C468.427 191.797 468.611 191.737 468.819 191.689C469.027 191.633 469.231 191.605 469.431 191.605C469.967 191.605 470.447 191.729 470.871 191.977C471.295 192.217 471.627 192.549 471.867 192.973C472.115 193.389 472.239 193.861 472.239 194.389C472.239 194.989 472.103 195.513 471.831 195.961C471.559 196.409 471.175 196.757 470.679 197.005C470.191 197.245 469.611 197.365 468.939 197.365Z" fill="white"/>
<path d="M550.396 159.999H504.545C502.817 159.999 501.416 161.4 501.416 163.128V170.3C501.416 172.028 502.817 173.429 504.545 173.429H550.396C552.124 173.429 553.524 172.028 553.524 170.3V163.128C553.524 161.4 552.124 159.999 550.396 159.999Z" fill="#223A7A"/>
<path d="M507.854 170.238C507.65 170.238 507.486 170.167 507.361 170.019C507.236 169.87 507.181 169.69 507.196 169.471L507.392 167.735C507.408 167.688 507.392 167.664 507.369 167.649C507.337 167.633 507.306 167.649 507.259 167.672L505.828 168.705C505.648 168.838 505.468 168.885 505.28 168.845C505.092 168.806 504.936 168.697 504.819 168.501C504.686 168.267 504.662 168.063 504.74 167.883C504.819 167.704 504.959 167.586 505.147 167.508L506.751 166.781C506.798 166.765 506.813 166.741 506.813 166.718C506.813 166.695 506.79 166.663 506.751 166.655L505.147 165.928C504.944 165.842 504.811 165.701 504.748 165.513C504.694 165.326 504.709 165.13 504.811 164.942C504.928 164.755 505.085 164.637 505.272 164.598C505.46 164.559 505.648 164.598 505.82 164.716L507.251 165.772C507.298 165.803 507.329 165.811 507.361 165.795C507.392 165.779 507.4 165.748 507.384 165.709L507.189 163.973C507.173 163.754 507.236 163.566 507.369 163.425C507.502 163.276 507.674 163.206 507.9 163.206C508.104 163.206 508.276 163.276 508.409 163.425C508.542 163.574 508.589 163.754 508.565 163.973L508.37 165.709C508.354 165.756 508.37 165.779 508.393 165.795C508.424 165.811 508.456 165.795 508.503 165.772L509.934 164.739C510.106 164.606 510.294 164.559 510.497 164.598C510.693 164.637 510.841 164.747 510.951 164.942C511.084 165.177 511.107 165.38 511.029 165.56C510.951 165.732 510.81 165.858 510.622 165.936L509.019 166.663C508.972 166.679 508.956 166.702 508.956 166.726C508.956 166.749 508.98 166.781 509.019 166.788L510.622 167.516C510.826 167.602 510.967 167.743 511.029 167.93C511.092 168.118 511.068 168.314 510.951 168.501C510.849 168.689 510.701 168.806 510.497 168.845C510.302 168.885 510.114 168.845 509.934 168.728L508.503 167.672C508.456 167.641 508.424 167.633 508.393 167.649C508.362 167.664 508.354 167.696 508.37 167.735L508.565 169.471C508.597 169.69 508.542 169.878 508.401 170.019C508.26 170.167 508.08 170.238 507.861 170.238H507.854Z" fill="white"/>
<path d="M517.334 170.238C517.13 170.238 516.966 170.167 516.841 170.019C516.716 169.87 516.661 169.69 516.676 169.471L516.872 167.735C516.888 167.688 516.872 167.664 516.849 167.649C516.817 167.633 516.786 167.649 516.739 167.672L515.308 168.705C515.128 168.838 514.948 168.885 514.76 168.845C514.572 168.806 514.416 168.697 514.299 168.501C514.166 168.267 514.142 168.063 514.22 167.883C514.299 167.704 514.439 167.586 514.627 167.508L516.231 166.781C516.278 166.765 516.293 166.741 516.293 166.718C516.293 166.695 516.27 166.663 516.231 166.655L514.627 165.928C514.424 165.842 514.291 165.701 514.228 165.513C514.174 165.326 514.189 165.13 514.291 164.942C514.408 164.755 514.565 164.637 514.752 164.598C514.94 164.559 515.128 164.598 515.3 164.716L516.731 165.772C516.778 165.803 516.809 165.811 516.841 165.795C516.872 165.779 516.88 165.748 516.864 165.709L516.669 163.973C516.653 163.754 516.716 163.566 516.849 163.425C516.982 163.276 517.154 163.206 517.38 163.206C517.584 163.206 517.756 163.276 517.889 163.425C518.022 163.574 518.069 163.754 518.045 163.973L517.85 165.709C517.834 165.756 517.842 165.779 517.873 165.795C517.904 165.811 517.936 165.795 517.983 165.772L519.414 164.739C519.586 164.606 519.774 164.559 519.977 164.598C520.173 164.637 520.321 164.747 520.431 164.942C520.564 165.177 520.587 165.38 520.509 165.56C520.431 165.732 520.29 165.858 520.102 165.936L518.499 166.663C518.452 166.679 518.436 166.702 518.436 166.726C518.436 166.749 518.46 166.781 518.499 166.788L520.102 167.516C520.306 167.602 520.447 167.743 520.509 167.93C520.572 168.118 520.548 168.314 520.431 168.501C520.329 168.689 520.181 168.806 519.977 168.845C519.782 168.885 519.594 168.845 519.414 168.728L517.983 167.672C517.936 167.641 517.904 167.633 517.873 167.649C517.842 167.664 517.834 167.696 517.85 167.735L518.045 169.471C518.077 169.69 518.022 169.878 517.881 170.019C517.74 170.167 517.56 170.238 517.341 170.238H517.334Z" fill="white"/>
<path d="M526.821 170.238C526.618 170.238 526.454 170.167 526.329 170.019C526.203 169.87 526.149 169.69 526.164 169.471L526.36 167.735C526.375 167.688 526.36 167.664 526.336 167.649C526.305 167.633 526.274 167.649 526.227 167.672L524.795 168.705C524.616 168.838 524.436 168.885 524.248 168.845C524.06 168.806 523.904 168.697 523.786 168.501C523.654 168.267 523.63 168.063 523.708 167.883C523.786 167.704 523.927 167.586 524.115 167.508L525.718 166.781C525.765 166.765 525.781 166.741 525.781 166.718C525.781 166.695 525.758 166.663 525.718 166.655L524.115 165.928C523.912 165.842 523.779 165.701 523.716 165.513C523.661 165.326 523.677 165.13 523.779 164.942C523.896 164.755 524.052 164.637 524.24 164.598C524.428 164.559 524.616 164.598 524.788 164.716L526.219 165.772C526.266 165.803 526.297 165.811 526.329 165.795C526.36 165.779 526.368 165.748 526.352 165.709L526.156 163.973C526.141 163.754 526.203 163.566 526.336 163.425C526.469 163.276 526.641 163.206 526.868 163.206C527.072 163.206 527.244 163.276 527.377 163.425C527.51 163.574 527.557 163.754 527.533 163.973L527.338 165.709C527.322 165.756 527.33 165.779 527.361 165.795C527.392 165.811 527.424 165.795 527.47 165.772L528.902 164.739C529.074 164.606 529.262 164.559 529.465 164.598C529.661 164.637 529.809 164.747 529.919 164.942C530.052 165.177 530.075 165.38 529.997 165.56C529.919 165.732 529.778 165.858 529.59 165.936L527.987 166.663C527.94 166.679 527.924 166.702 527.924 166.726C527.924 166.749 527.948 166.781 527.987 166.788L529.59 167.516C529.794 167.602 529.934 167.743 529.997 167.93C530.059 168.118 530.036 168.314 529.919 168.501C529.817 168.689 529.668 168.806 529.465 168.845C529.269 168.885 529.082 168.845 528.902 168.728L527.47 167.672C527.424 167.641 527.392 167.633 527.361 167.649C527.33 167.664 527.322 167.696 527.338 167.735L527.533 169.471C527.564 169.69 527.51 169.878 527.369 170.019C527.228 170.167 527.048 170.238 526.829 170.238H526.821Z" fill="white"/>
<path d="M536.301 170.238C536.097 170.238 535.933 170.167 535.808 170.019C535.683 169.87 535.628 169.69 535.644 169.471L535.839 167.735C535.855 167.688 535.839 167.664 535.816 167.649C535.785 167.633 535.753 167.649 535.706 167.672L534.275 168.705C534.095 168.838 533.915 168.885 533.727 168.845C533.54 168.806 533.383 168.697 533.266 168.501C533.133 168.267 533.11 168.063 533.188 167.883C533.266 167.704 533.407 167.586 533.594 167.508L535.198 166.781C535.245 166.765 535.26 166.741 535.26 166.718C535.26 166.695 535.237 166.663 535.198 166.655L533.594 165.928C533.391 165.842 533.258 165.701 533.196 165.513C533.141 165.326 533.156 165.13 533.258 164.942C533.375 164.755 533.532 164.637 533.72 164.598C533.907 164.559 534.095 164.598 534.267 164.716L535.699 165.772C535.745 165.803 535.777 165.811 535.808 165.795C535.839 165.779 535.847 165.748 535.831 165.709L535.636 163.973C535.62 163.754 535.683 163.566 535.816 163.425C535.949 163.276 536.121 163.206 536.348 163.206C536.551 163.206 536.723 163.276 536.856 163.425C536.989 163.574 537.036 163.754 537.013 163.973L536.817 165.709C536.801 165.756 536.809 165.779 536.84 165.795C536.872 165.811 536.903 165.795 536.95 165.772L538.381 164.739C538.553 164.606 538.741 164.559 538.944 164.598C539.14 164.637 539.289 164.747 539.398 164.942C539.531 165.177 539.555 165.38 539.476 165.56C539.398 165.732 539.257 165.858 539.07 165.936L537.466 166.663C537.419 166.679 537.404 166.702 537.404 166.726C537.404 166.749 537.427 166.781 537.466 166.788L539.07 167.516C539.273 167.602 539.414 167.743 539.476 167.93C539.539 168.118 539.515 168.314 539.398 168.501C539.296 168.689 539.148 168.806 538.944 168.845C538.749 168.885 538.561 168.845 538.381 168.728L536.95 167.672C536.903 167.641 536.872 167.633 536.84 167.649C536.809 167.664 536.801 167.696 536.817 167.735L537.013 169.471C537.044 169.69 536.989 169.878 536.848 170.019C536.708 170.167 536.528 170.238 536.309 170.238H536.301Z" fill="white"/>
<path d="M545.789 170.238C545.585 170.238 545.421 170.167 545.296 170.019C545.171 169.87 545.116 169.69 545.132 169.471L545.327 167.735C545.343 167.688 545.327 167.664 545.304 167.649C545.272 167.633 545.241 167.649 545.194 167.672L543.763 168.705C543.583 168.838 543.403 168.885 543.215 168.845C543.028 168.806 542.871 168.697 542.754 168.501C542.621 168.267 542.597 168.063 542.676 167.883C542.754 167.704 542.895 167.586 543.082 167.508L544.686 166.781C544.733 166.765 544.748 166.741 544.748 166.718C544.748 166.695 544.725 166.663 544.686 166.655L543.082 165.928C542.879 165.842 542.746 165.701 542.683 165.513C542.629 165.326 542.644 165.13 542.746 164.942C542.863 164.755 543.02 164.637 543.207 164.598C543.395 164.559 543.583 164.598 543.755 164.716L545.186 165.772C545.233 165.803 545.265 165.811 545.296 165.795C545.327 165.779 545.335 165.748 545.319 165.709L545.124 163.973C545.108 163.754 545.171 163.566 545.304 163.425C545.437 163.276 545.609 163.206 545.835 163.206C546.039 163.206 546.211 163.276 546.344 163.425C546.477 163.574 546.524 163.754 546.5 163.973L546.305 165.709C546.289 165.756 546.297 165.779 546.328 165.795C546.36 165.811 546.391 165.795 546.438 165.772L547.869 164.739C548.041 164.606 548.229 164.559 548.432 164.598C548.628 164.637 548.776 164.747 548.886 164.942C549.019 165.177 549.042 165.38 548.964 165.56C548.886 165.732 548.745 165.858 548.557 165.936L546.954 166.663C546.907 166.679 546.891 166.702 546.891 166.726C546.891 166.749 546.915 166.781 546.954 166.788L548.557 167.516C548.761 167.602 548.902 167.743 548.964 167.93C549.027 168.118 549.003 168.314 548.886 168.501C548.784 168.689 548.636 168.806 548.432 168.845C548.237 168.885 548.049 168.845 547.869 168.728L546.438 167.672C546.391 167.641 546.36 167.633 546.328 167.649C546.297 167.664 546.289 167.696 546.305 167.735L546.5 169.471C546.532 169.69 546.477 169.878 546.336 170.019C546.195 170.167 546.015 170.238 545.796 170.238H545.789Z" fill="#67ACFF"/>
<path d="M160.139 242.458H154.332V289.951H160.139V242.458Z" fill="white"/>
<path d="M160.139 242.458H157.86V289.945H160.139V242.458Z" fill="#E8F2FC"/>
<path d="M173.92 286.061H142.182C141.108 286.061 140.24 286.928 140.24 288.002C140.24 289.077 141.108 289.944 142.182 289.944H173.92C174.994 289.944 175.862 289.077 175.862 288.002C175.862 286.928 174.994 286.061 173.92 286.061Z" fill="white"/>
<path d="M173.92 286.061H142.182C141.477 286.061 140.862 286.442 140.519 287.006H168.01C169.084 287.006 169.952 287.879 169.952 288.948C169.952 289.317 169.842 289.653 169.667 289.944H173.92C174.994 289.944 175.862 289.077 175.862 288.002C175.862 286.928 174.994 286.061 173.92 286.061Z" fill="#E8F2FC"/>
<path d="M160.139 242.458H154.332V246.685H160.139V242.458Z" fill="#E8F2FC"/>
<path d="M190.225 176.251C189.41 175.888 188.504 175.688 187.539 175.688H154.85C151.659 175.688 148.914 177.96 148.312 181.093L138.065 234.645C137.903 235.506 137.91 236.366 138.065 237.163C138.065 237.182 138.072 237.201 138.078 237.214H128.99C127.495 237.214 126.284 238.425 126.284 239.92C126.284 241.415 127.495 242.626 128.99 242.626H158.365V242.542H177.299C180.49 242.542 183.235 240.27 183.837 237.137L194.077 183.585C194.679 180.426 192.957 177.448 190.225 176.238V176.251Z" fill="#FF9933"/>
<path d="M194.07 183.592L183.836 237.144C183.241 240.277 180.496 242.549 177.299 242.549H158.365V242.633H128.996C127.501 242.633 126.29 241.423 126.29 239.927C126.29 238.432 127.501 237.222 128.996 237.222H138.084C138.084 237.222 138.071 237.183 138.071 237.163C138.149 237.17 138.24 237.17 138.324 237.17H171.007C175.395 237.17 179.182 234.05 180.004 229.739L190.232 176.258C192.963 177.462 194.679 180.439 194.083 183.598L194.07 183.592Z" fill="#E8F2FC"/>
<path d="M180.056 229.415L179.991 229.739C179.169 234.05 175.389 237.17 170.994 237.17H138.311C138.233 237.17 138.143 237.17 138.059 237.163C138.059 237.183 138.065 237.202 138.071 237.222H128.983C127.63 237.222 126.504 238.218 126.31 239.52V232.198C126.31 232.198 126.303 232.16 126.303 232.14C126.09 230.69 127.307 229.415 128.776 229.415H180.05H180.056Z" fill="white"/>
<path d="M190.226 176.251L179.998 229.732C179.176 234.043 175.389 237.169 171.007 237.169H138.318C138.234 237.169 138.149 237.169 138.065 237.169C137.91 236.367 137.903 235.512 138.065 234.651L148.312 181.099C148.914 177.96 151.659 175.694 154.85 175.694H187.539C188.504 175.694 189.41 175.895 190.226 176.257V176.251Z" fill="white"/>
<path d="M112.756 163.408H57.1126C55.818 163.408 54.8276 164.554 55.0089 165.836L59.7731 198.551C59.922 199.593 60.8217 200.37 61.8768 200.37H117.526C118.821 200.37 119.811 199.224 119.63 197.942L114.866 165.227C114.717 164.185 113.817 163.408 112.762 163.408H112.756Z" fill="#1D54B5"/>
<path d="M104.975 163.408H57.1126C55.818 163.408 54.8276 164.554 55.0089 165.836L57.1126 180.297C62.2458 182.543 68.0587 183.818 74.234 183.818C90.1902 183.818 99.5957 175.338 104.975 163.408Z" fill="#3070CE"/>
<path d="M87.5102 188.382H76.9719C76.0592 188.382 75.3601 189.185 75.4961 190.091L78.6873 212.002C78.6873 212.067 78.6873 212.145 78.7003 212.209L78.8427 213.07C78.9462 213.802 79.5806 214.345 80.3185 214.345H90.7208L87.5102 188.382Z" fill="#4286E8"/>
<path d="M102.897 212.817C102.884 211.995 102.211 211.329 101.388 211.329H93.42C92.2484 211.329 91.2516 210.461 91.0897 209.296L88.7529 192.227H90.1382C91.0444 192.227 91.7435 191.417 91.6141 190.518L91.4716 189.65C91.3681 188.919 90.7337 188.375 89.9958 188.375H87.2318C85.9695 188.375 84.9985 189.488 85.1668 190.738L88.0797 212.449C88.2221 213.53 89.1478 214.339 90.2418 214.339H101.388C102.23 214.339 102.91 213.653 102.897 212.805V212.817Z" fill="#1D54B5"/>
<path d="M97.1682 195.651C97.1682 196.201 96.7215 196.648 96.1713 196.648C95.6211 196.648 95.1744 196.201 95.1744 195.651C95.1744 195.101 95.6211 194.654 96.1713 194.654C96.7215 194.654 97.1682 195.101 97.1682 195.651Z" fill="#4286E8"/>
<path d="M102.295 195.651C102.295 196.201 101.848 196.648 101.298 196.648C100.748 196.648 100.301 196.201 100.301 195.651C100.301 195.101 100.748 194.654 101.298 194.654C101.848 194.654 102.295 195.101 102.295 195.651Z" fill="#4286E8"/>
<path d="M105.784 196.648C106.334 196.648 106.781 196.202 106.781 195.651C106.781 195.101 106.334 194.654 105.784 194.654C105.233 194.654 104.787 195.101 104.787 195.651C104.787 196.202 105.233 196.648 105.784 196.648Z" fill="#4286E8"/>
<path d="M111.675 178.588L114.581 198.558C114.73 199.6 115.63 200.377 116.685 200.377H117.52C118.814 200.377 119.805 199.231 119.624 197.949L114.859 165.234C114.711 164.192 113.811 163.415 112.756 163.415H111.921C110.626 163.415 109.636 164.561 109.817 165.842L111.675 178.588Z" fill="#4286E8"/>
<path d="M90.6238 166.981H71.1915C70.7189 166.981 70.3565 167.409 70.4277 167.875L70.5571 168.677C70.6154 169.053 70.939 169.325 71.3209 169.325H90.7532C91.2258 169.325 91.5883 168.897 91.5171 168.431L91.3876 167.629C91.3293 167.253 91.0057 166.981 90.6238 166.981Z" fill="#4286E8"/>
<path d="M169.512 176.95C168.897 172.212 161.958 174.432 164.56 170.018C166.968 165.933 164.165 164.127 160.851 163.493C156.624 162.684 159.025 161.02 156.967 157.078C154.358 152.068 150.326 153.557 150.326 153.557C150.326 153.557 145.277 150.812 140.13 155.155C134.706 159.732 135.891 163.778 138.79 169.332C140.26 172.141 138.454 174.639 137.172 179.805C135.632 186 143.283 198.467 159.647 190.045C165.978 186.79 169.829 179.468 169.505 176.95H169.512Z" fill="#263238"/>
<path d="M146.908 178.245C146.908 178.245 144.409 178.51 141.865 181.054C140.156 182.763 131.786 199.418 131.786 199.418L124.064 175.766L118.413 176.199C118.413 176.199 124.783 214.235 129.734 214.307C134.421 214.371 149.296 189.748 149.296 189.748L146.908 178.238V178.245Z" fill="#F95858"/>
<path d="M162.877 188.22L167.829 206.752L138.557 209.147L138.693 214.436C138.693 214.436 172.444 214.585 178.801 214.52C183.034 214.475 175.066 180.951 169.978 177.119C165.958 174.083 154.837 174.892 154.837 174.892L146.914 178.251C146.914 178.251 137.722 187.353 143.212 195.916C147.536 202.661 142.027 215.769 142.027 215.769L160.741 216.883L177.454 217.038L162.89 188.22H162.877Z" fill="#F95858"/>
<path d="M144.196 208.681L145.244 208.487C146.247 204.105 146.429 198.117 144.137 195.237C139.606 189.534 144.273 181.255 146.888 178.258C146.468 178.679 137.852 187.547 143.199 195.91C145.756 199.904 145.128 205.102 144.189 208.681H144.196Z" fill="#E54848"/>
<path d="M138.642 210.364C135.547 210.481 132.233 211.588 130.686 213.407C130.343 213.808 130.634 214.436 131.165 214.436H138.693L138.648 210.364H138.642Z" fill="#FFB19E"/>
<path d="M154.837 168.665V174.918L149.238 181.333L149.206 181.262L147.678 177.999V174.491C144.882 174.096 142.415 171.979 141.755 168.95L140.965 164.626C140.965 164.626 145.14 164.186 148.461 160.807C148.461 160.807 149.458 162.639 150.889 164.056C151.931 165.092 153.368 165.344 153.918 165.907C154.649 166.658 154.915 167.642 154.837 168.665Z" fill="#FFB19E"/>
<path d="M153.303 163.247C153.303 163.247 153.089 160.612 152.099 158.366C150.953 155.777 149.341 152.741 145.995 152.734C145.995 152.734 154.125 151.472 155.484 162.787L153.309 163.253L153.303 163.247Z" fill="#FF4751"/>
<path d="M158.171 165.105C157.938 162.93 156.112 161.337 154.099 161.557C152.086 161.778 150.643 163.713 150.876 165.894C151.109 168.069 152.934 169.662 154.947 169.442C156.96 169.222 158.404 167.286 158.171 165.105Z" fill="#FF4751"/>
<path d="M155.633 169.059C153.691 169.266 151.937 167.739 151.711 165.641C151.504 163.699 152.682 161.958 154.397 161.544C154.3 161.544 154.196 161.544 154.093 161.557C152.08 161.777 150.636 163.712 150.869 165.894C151.102 168.069 152.928 169.661 154.941 169.441C155.562 169.376 156.125 169.143 156.604 168.794C156.3 168.93 155.97 169.02 155.627 169.059H155.633Z" fill="#CC3241"/>
<path d="M156.759 165.208C156.643 164.153 155.763 163.382 154.785 163.486C153.808 163.589 153.109 164.535 153.225 165.59C153.342 166.645 154.222 167.415 155.199 167.312C156.177 167.208 156.876 166.263 156.759 165.208Z" fill="#CC3241"/>
<path d="M152.967 171.837C152.733 172.141 151.406 173.811 150.345 174.705C149.918 175.061 149.691 175.591 149.691 176.142L149.199 181.262L147.672 177.999V174.504L147.71 174.465C147.71 174.465 151.238 173.928 152.973 171.837H152.967Z" fill="#F48F7A"/>
<path d="M150.584 171.565L150.526 171.209C152.572 170.859 154.06 168.108 154.08 168.082L154.397 168.25C154.332 168.367 152.805 171.183 150.584 171.558V171.565Z" fill="#FF4751"/>
<path d="M150.966 171.364C150.921 171.028 150.41 170.846 149.834 170.95C149.258 171.06 148.83 171.416 148.876 171.753C148.921 172.089 149.432 172.27 150.008 172.167C150.585 172.057 151.012 171.701 150.966 171.364Z" fill="#FF4751"/>
<path d="M123.605 175.915C123.605 175.915 124.401 169.371 123.682 169.131C122.964 168.892 122.245 171.688 122.245 171.688C122.245 171.688 119.209 165.784 117.138 166.419C115.06 167.06 118.879 176.141 118.879 176.141L123.605 175.921V175.915Z" fill="#FFB19E"/>
<path d="M144.189 208.649L167.24 206.72C168.029 206.655 168.586 205.917 168.437 205.14C167.583 200.829 165.123 188.472 164.981 188.841C164.799 189.288 167.298 203.386 164.359 204.81C162.346 205.788 144.195 208.649 144.195 208.649H144.189Z" fill="#E54848"/>
<path d="M159.867 276.837C159.698 276.876 159.543 276.973 159.427 277.135C157.957 279.174 156.656 279.659 154.086 280.002C153.931 280.022 153.776 280.08 153.601 280.164C153.801 279.866 154.656 278.462 154.067 277.199C153.4 275.775 152.597 274.74 152.597 274.74L156.358 272.5C156.358 272.5 158.663 275.16 159.867 276.837Z" fill="#FFB19E"/>
<path d="M162.65 281.62C161.984 282.254 151.258 288.119 148.707 289.595C148.397 289.776 147.762 290.106 147.652 289.763C147.471 289.232 152.112 280.28 154.086 280.008C156.656 279.659 157.964 279.18 159.427 277.134C159.731 276.707 160.372 276.707 160.663 277.147C161.692 278.707 163.188 281.102 162.65 281.614V281.62Z" fill="#13448C"/>
<path d="M142.169 215.737C142.169 215.737 116.134 227.809 115.442 236.179C114.827 243.623 153.199 277.678 153.199 277.678L159.264 275.18L138.266 241.325C138.266 241.325 160.514 230.36 165.951 217.155L142.169 215.73V215.737Z" fill="#13448C"/>
<path d="M125.572 233.985C123.805 237.384 122.511 242.128 121.604 246.433C124.55 249.935 128.272 253.871 132.11 257.748C129.269 246.53 126.75 235.286 127.624 233.675C129.288 230.6 140.318 222.437 148.118 218.372C148.118 218.372 129.676 226.107 125.572 233.985Z" fill="#09326D"/>
<path d="M144.526 283.827C144.357 283.782 144.176 283.789 143.995 283.873C141.716 284.934 140.344 284.721 137.929 283.769C137.787 283.711 137.619 283.678 137.431 283.672C137.748 283.51 139.185 282.701 139.282 281.309C139.399 279.743 139.205 278.442 139.205 278.442L143.58 278.325C143.58 278.325 144.293 281.775 144.519 283.821L144.526 283.827Z" fill="#FFB19E"/>
<path d="M144.616 289.679C143.723 289.912 131.061 289.77 128.116 289.809C127.754 289.809 127.482 289.492 127.546 289.136C127.65 288.585 136.072 283.038 137.929 283.769C140.344 284.721 141.716 284.941 143.995 283.873C144.474 283.646 145.024 283.964 145.063 284.488C145.199 286.352 145.335 289.492 144.616 289.679Z" fill="#13448C"/>
<path d="M177.351 216.98C177.351 216.98 179.532 231.726 166.314 235.454C155.893 238.4 144.726 239.895 144.726 239.895L145.529 281.744H138.577C138.577 281.744 125.818 236.995 127.624 233.661C129.676 229.875 145.905 218.385 152.844 216.313L177.351 216.974V216.98Z" fill="#1D54B5"/>
<g style="mix-blend-mode:multiply" opacity="0.13">
<path d="M144.726 239.902C144.726 239.902 155.899 238.4 166.314 235.461C179.532 231.726 177.351 216.987 177.351 216.987L169.169 216.767C166.709 222.055 158.715 235.144 139.328 236.555L143.716 281.757H145.522L144.72 239.908L144.726 239.902Z" fill="#0E367C"/>
</g>
<path d="M58.7178 289.945L55.8049 289.919L67.9032 217.213L70.829 217.188L58.7178 289.945Z" fill="white"/>
<path d="M178.555 289.919L181.649 289.945L166.651 216.385L163.576 216.404L178.555 289.919Z" fill="white"/>
<path d="M70.0328 221.22L70.829 217.188L67.9031 217.213L67.1134 221.22H70.0328Z" fill="#E4EDF7"/>
<path d="M167.634 221.22L166.651 216.385L163.576 216.404L164.553 221.22H167.634Z" fill="#E4EDF7"/>
<path d="M184.296 214.397H53.0989C52.2833 214.397 51.623 215.058 51.623 215.873C51.623 216.689 52.2833 217.349 53.0989 217.349H184.296C185.112 217.349 185.772 216.689 185.772 215.873C185.772 215.058 185.112 214.397 184.296 214.397Z" fill="white"/>
<path d="M240.203 191.576L240.307 195.318L242.553 282.213H251.531L259.486 207.753C259.486 207.753 259.493 207.759 259.493 207.772L269.604 232.875L262.703 282.206L266.024 282.232L271.513 282.284C271.513 282.284 287.929 233.056 287.599 229.865C287.262 226.68 274.938 191.887 274.938 191.887L240.209 191.563L240.203 191.576Z" fill="#1D54B5"/>
<path d="M239.336 137.792L256.198 135.474L256.593 135.416L264.658 135.448L264.73 135.468L274.368 137.876V192.049H239.336V137.792Z" fill="#F95858"/>
<path d="M210.472 148.316C210.472 148.316 209.249 140.659 208.355 140.62C207.468 140.581 207.559 143.973 207.559 143.973C207.559 143.973 202.212 138.283 200.07 139.681C197.933 141.079 205.196 150.103 205.196 150.103L210.465 148.316H210.472Z" fill="#FFB19E"/>
<path d="M264.646 135.494L263.733 195.318H276.349L277.242 178.941L293.975 178.669C295.717 178.728 297.005 177.07 296.519 175.4L288.182 146.414C287.211 143.022 284.512 140.413 281.094 139.559L264.73 135.468L264.646 135.494Z" fill="#4286E8"/>
<path d="M204.653 150.349L220.881 183.685C221.91 185.556 224.57 185.595 225.671 183.776L238.371 162.732L239.005 195.318H252.483L256.256 135.487L256.205 135.474L239.064 137.83C235.834 138.315 233.044 140.374 231.613 143.319L222.946 161.198C222.732 161.638 222.137 161.709 221.819 161.334L210.789 148.161L204.653 150.355V150.349Z" fill="#4286E8"/>
<path d="M277.32 179.102H260.872L260.717 170.681L277.158 170.441L277.32 179.102Z" fill="#4286E8"/>
<path d="M260.768 176.779C256.127 176.611 251.169 174.954 248.845 172.222C248.327 171.614 248.767 170.682 249.563 170.682H260.839L260.768 176.779Z" fill="#FFB19E"/>
<path opacity="0.41" d="M267.183 179.446L267.17 179.18L277.229 179.103L276.349 195.318L273.345 181.886L267.183 179.446Z" fill="#13448C"/>
<g style="mix-blend-mode:multiply" opacity="0.32">
<path d="M240.307 195.317L242.553 282.212H243.181L249.214 195.317H240.307Z" fill="#0E367C"/>
</g>
<path opacity="0.41" d="M260.736 170.623C260.736 170.623 283.042 172.241 282.9 171.814L279.029 158.473L278.971 158.673L278.589 167.982C278.537 169.244 261.901 170.293 260.736 170.623Z" fill="#13448C"/>
<path opacity="0.41" d="M220.881 183.679L204.653 150.342L204.73 150.316C206.452 150.31 221.547 181.879 223.14 182.669C224.946 183.575 238.371 162.719 238.371 162.719L225.671 183.763C224.57 185.582 221.91 185.537 220.881 183.672V183.679Z" fill="#13448C"/>
<path d="M270.484 282.2C272.419 286.168 281.624 288.168 281.624 288.168C281.624 288.168 282.291 289.34 281.236 290.816C280.187 292.298 270.503 291.392 269.286 291.12C268.07 290.848 267.235 289.864 267.235 289.864C267.235 289.864 266.419 290.751 265.966 290.971C265.513 291.191 263.04 290.693 263.04 290.693C262.457 289.113 263.04 283.093 263.208 282.129L270.484 282.194V282.2Z" fill="#13448C"/>
<path d="M243.394 282.2C241.459 286.168 232.254 288.168 232.254 288.168C232.254 288.168 231.587 289.34 232.643 290.816C233.691 292.298 243.375 291.392 244.592 291.12C245.809 290.848 246.644 289.864 246.644 289.864C246.644 289.864 247.459 290.751 247.913 290.971C248.366 291.191 250.838 290.693 250.838 290.693C251.421 289.113 250.838 283.093 250.67 282.129L243.394 282.194V282.2Z" fill="#13448C"/>
<g style="mix-blend-mode:multiply" opacity="0.32">
<path d="M269.597 232.881L262.697 282.213L266.018 282.239C268.063 271.616 275.223 236.098 274.957 233.871C274.646 231.211 259.94 208.529 259.486 207.778L269.597 232.881Z" fill="#0E367C"/>
</g>
<path fill-rule="evenodd" clip-rule="evenodd" d="M256.237 135.526C257.46 136.503 260.412 138.581 260.412 138.581C260.412 138.581 263.416 136.523 264.658 135.532L264.671 128.393H256.237V135.526Z" fill="#FFB19E"/>
<path fill-rule="evenodd" clip-rule="evenodd" d="M256.231 128.392V131.376C258.671 133.402 262.218 133.409 264.665 131.409V128.386H256.231V128.392Z" fill="#FFB19E"/>
<path fill-rule="evenodd" clip-rule="evenodd" d="M269.818 123.777H250.858L250.567 118.502C246.379 116.728 249.518 106.733 249.518 106.733C249.279 109.148 255.803 109.232 258.386 108.831C260.962 108.429 262.736 109.478 262.736 109.478C262.736 109.478 270.957 107.704 270.472 119.227C270.4 120.968 270.167 122.437 269.818 123.777Z" fill="#263238"/>
<path fill-rule="evenodd" clip-rule="evenodd" d="M252.864 118.488V123.246C252.864 125.279 253.699 127.227 255.182 128.619C255.421 128.832 255.667 129.065 255.913 129.298C258.47 131.706 262.464 131.706 265.021 129.298L265.746 128.619C267.228 127.234 268.07 125.292 268.07 123.259V119.628C268.07 119.628 265.875 118.158 262.852 114.553C262.852 114.553 259.512 117.757 252.864 118.482V118.488Z" fill="#FFB19E"/>
<path fill-rule="evenodd" clip-rule="evenodd" d="M256.231 129.577V131.383C258.671 133.409 262.218 133.416 264.665 131.416V129.603C262.212 131.61 258.671 131.603 256.231 129.577Z" fill="#F48F7A"/>
<path fill-rule="evenodd" clip-rule="evenodd" d="M266.186 124.333C264.71 121.977 267.196 119.491 269.559 120.961C269.74 121.077 269.902 121.233 270.018 121.42C271.494 123.783 269.008 126.269 266.646 124.793C266.464 124.676 266.303 124.521 266.186 124.333Z" fill="#FFB19E"/>
<path fill-rule="evenodd" clip-rule="evenodd" d="M251.039 124.334C249.602 122.029 251.932 119.608 254.243 120.864C254.547 121.032 254.8 121.285 254.968 121.589C256.224 123.894 253.803 126.23 251.499 124.793C251.317 124.677 251.155 124.521 251.039 124.334Z" fill="#FFB19E"/>
<path d="M251.11 119.317H251.829V116.819C251.829 112.676 255.609 109.303 260.257 109.303H260.613C265.26 109.303 269.041 112.676 269.041 116.819V119.317H269.759V116.819C269.759 112.294 265.655 108.617 260.613 108.617H260.257C255.214 108.617 251.11 112.294 251.11 116.819V119.317Z" fill="#A31919"/>
<path d="M251.712 117.983C252.832 117.983 253.745 118.896 253.745 120.016V123.641C253.745 124.761 252.832 125.673 251.712 125.673C250.592 125.673 249.68 124.761 249.68 123.641V120.016C249.68 118.896 250.592 117.983 251.712 117.983Z" fill="#F95858"/>
<path d="M251.712 117.983C251.926 117.983 252.126 118.029 252.321 118.087C251.498 118.346 250.896 119.11 250.896 120.016V123.641C250.896 124.547 251.498 125.304 252.321 125.57C252.126 125.635 251.926 125.673 251.712 125.673C250.592 125.673 249.68 124.761 249.68 123.641V120.016C249.68 118.896 250.592 117.983 251.712 117.983Z" fill="#CC3241"/>
<path d="M269.164 117.983C270.284 117.983 271.196 118.896 271.196 120.016V123.641C271.196 124.761 270.284 125.673 269.164 125.673C268.044 125.673 267.131 124.761 267.131 123.641V120.016C267.131 118.896 268.044 117.983 269.164 117.983Z" fill="#F95858"/>
<path d="M269.164 117.983C269.377 117.983 269.578 118.029 269.772 118.087C268.95 118.346 268.348 119.11 268.348 120.016V123.641C268.348 124.547 268.95 125.304 269.772 125.57C269.578 125.635 269.377 125.673 269.164 125.673C268.044 125.673 267.131 124.761 267.131 123.641V120.016C267.131 118.896 268.044 117.983 269.164 117.983Z" fill="#CC3241"/>
<path d="M257.201 127.946L257.227 127.544C254.91 127.395 252.916 124.515 252.897 124.482L252.56 124.709C252.644 124.832 254.683 127.784 257.195 127.946H257.201Z" fill="#FF4751"/>
<path d="M256.755 127.764C256.768 127.382 257.312 127.117 257.965 127.169C258.619 127.22 259.144 127.57 259.131 127.952C259.118 128.334 258.574 128.599 257.92 128.547C257.266 128.496 256.742 128.146 256.755 127.764Z" fill="#FF4751"/>
<path d="M247.129 145.96H276.575C278.174 145.96 279.43 147.345 279.365 149.028L278.595 167.981C278.53 169.509 277.249 170.746 275.734 170.746H247.977C246.469 170.746 245.181 169.509 245.116 167.981L244.346 149.028C244.275 147.345 245.53 145.96 247.136 145.96H247.129Z" fill="#13448C"/>
<path d="M247.129 145.96H276.576C277.385 145.96 278.097 146.31 278.608 146.879C278.369 146.808 278.116 146.756 277.851 146.756H248.405C246.806 146.756 245.55 148.141 245.615 149.824L246.385 168.778C246.411 169.483 246.715 170.124 247.168 170.616C246.029 170.267 245.162 169.231 245.11 167.981L244.34 149.028C244.268 147.345 245.524 145.96 247.129 145.96Z" fill="#1D54B5"/>
<path d="M258.729 158.848C258.729 157.003 260.224 155.515 262.063 155.515C263.901 155.515 265.396 157.01 265.396 158.848C265.396 160.687 263.901 162.182 262.063 162.182C260.224 162.182 258.729 160.687 258.729 158.848Z" fill="#4286E8"/>
</svg>
