<?xml version="1.0" encoding="UTF-8"?>
<!-- Generator: Adobe Illustrator 25.2.1, SVG Export Plug-In . SVG Version: 6.00 Build 0)  -->
<svg xmlns="http://www.w3.org/2000/svg" xmlns:xlink="http://www.w3.org/1999/xlink" version="1.1" id="Capa_1" x="0px" y="0px" viewBox="0 0 512 512" style="enable-background:new 0 0 512 512;" xml:space="preserve" width="512" height="512">
<g>
	<g>
		<g>
			<g>
				<g>
					<path style="fill:#6280FF;" d="M117.923,160.346c-2.413-4.954-2.305-9.703-6.186-9.703c-1.157,0-1.105,0.25-9.567,3.433       c-1.826,0.708-2.749,2.757-2.039,4.601l2.862,7.422c2.201-1.502,4.569-2.79,7.117-3.773       C112.65,161.347,115.267,160.71,117.923,160.346z"/>
					<path style="fill:#6280FF;" d="M127.302,229.124c2.243,4.604,2.675,11.314,7.466,9.465c7.208-3.07,9.26-2.819,10.258-5.073       c0.987-2.223-0.501-3.454-2.798-10.152C137.676,226.482,132.9,228.357,127.302,229.124z"/>
					<path style="fill:#6280FF;" d="M166.466,182.579c-2.806-5.86-2.577-10.563-6.516-10.563c-1.154,0-1.188,0.281-8.697,3.098       c3.207,4.65,5.018,9.595,5.745,14.932l7.43-2.866C166.254,186.473,167.177,184.424,166.466,182.579z"/>
					<path style="fill:#6280FF;" d="M88.219,199.425l-7.424,2.863c-1.827,0.707-2.742,2.768-2.039,4.602l3.197,8.286       c0.526,1.362,1.862,2.276,3.319,2.276c1.158,0,1.219-0.293,8.7-3.099c-1.512-2.193-2.787-4.574-3.769-7.119       C89.22,204.686,88.584,202.066,88.219,199.425z"/>
					<path style="fill:#6280FF;" d="M146.906,157.102c-0.343-0.886-1.01-1.587-1.88-1.974c-8.186-3.527-8.259-3.904-9.559-3.904       c-3.708,0-3.742,4.324-6.48,9.392c5.343,1.016,10.34,3.273,14.611,6.516C146.283,160.406,147.777,159.369,146.906,157.102z"/>
					<path style="fill:#6280FF;" d="M98.384,229.646c-0.793,1.791,0.02,3.896,1.813,4.695c8.008,3.451,8.257,3.904,9.559,3.904       c3.708,0,3.75-4.341,6.481-9.393c-5.343-1.016-10.341-3.274-14.612-6.518L98.384,229.646z"/>
					<path style="fill:#6280FF;" d="M94.974,173.734c-7.249-3.115-7.42-3.53-8.714-3.53c-3.754,0-3.713,4.337-6.853,10.238       c-0.793,1.795,0.02,3.901,1.811,4.693l7.273,3.224C89.509,182.962,91.541,178.269,94.974,173.734z"/>
					<path style="fill:#6280FF;" d="M158.965,219.266c3.754,0,3.713-4.337,6.853-10.238c0.793-1.795-0.02-3.898-1.813-4.693       l-7.294-3.233c-1.001,5.31-3.221,10.318-6.483,14.625C157.525,218.862,157.668,219.266,158.965,219.266z"/>
					<path style="fill:#6280FF;" d="M94.974,173.734c-18.629,24.607,1.848,59.562,32.328,55.39       c15.16-2.076,26.695-13.623,29.409-28.022C163.506,165.056,116.8,144.904,94.974,173.734z M122.617,214.831h-0.002       c-14.302-0.004-24.322-14.81-18.37-28.24c7.244-16.337,30.688-15.743,37.111,0.913       C146.424,200.645,136.677,214.831,122.617,214.831z"/>
					<path style="fill:#FFFFFF;" d="M141.357,187.504c-6.397-16.589-29.846-17.297-37.111-0.913       c-7.208,16.262,8.908,33.322,25.597,26.888C140.176,209.493,145.343,197.841,141.357,187.504z"/>
				</g>
				<path style="opacity:0.5;fill:#FFFFFF;" d="M121.005,169.564c-16.352,3.441-19.292,10.242-24.219,22.278l-0.056,0.136      c-0.438,1.069-2.037,0.729-2.005-0.426c0.804-27.092,28.038-26.444,27.217-22.81c-0.093,0.412-0.418,0.712-0.806,0.795      L121.005,169.564z"/>
			</g>
			<g>
				<path style="fill:#000E3F;" d="M168.225,181.909l-3.205-8.283c-0.998-2.558-3.92-4.228-7.035-3.122l-6.077,2.352      c-1.727-2.352-3.767-4.454-6.015-6.285c1.784-4.764,4.022-6.875,2.768-10.136c-0.52-1.353-1.54-2.435-2.872-3.018      c-7.872-3.344-8.336-4.058-10.323-4.058c-5.255,0-5.772,6.093-7.597,9.158c-2.93-0.459-5.846-0.492-8.741-0.229      c-1.646-3.033-1.932-9.511-7.389-9.511c-1.806,0-2.401,0.645-10.24,3.559c-2.789,1.082-4.183,4.225-3.122,7.014l2.331,6.057      c-2.373,1.748-4.475,3.788-6.306,6.015c-5.595-2.333-6.198-3.08-8.138-3.08c-5.469,0-5.737,6.338-8.575,11.343      c-1.207,2.726,0.042,5.952,2.768,7.16l5.932,2.622c-0.416,2.872-0.5,5.807-0.229,8.741c-4.617,2.11-7.656,2.009-9.054,5.203      c-1.462,3.343,0.767,5.404,3.101,12.446c0.791,2.081,2.831,3.476,5.057,3.476c1.614,0,2.002-0.488,8.034-2.726      c1.748,2.352,3.767,4.475,6.015,6.306c-1.747,4.695-4.004,6.868-2.747,10.136c0.52,1.353,1.54,2.414,2.872,2.997      c8.089,3.454,8.452,4.079,10.323,4.079c5.223,0,5.723-6.033,7.576-9.158c2.907,0.455,5.822,0.494,8.741,0.229      c1.68,3.083,1.92,9.511,7.409,9.511c1.655,0,2.036-0.509,10.24-3.559c2.789-1.082,4.183-4.246,3.101-7.035l-2.331-6.036      c2.352-1.727,4.475-3.746,6.348-6.015c5.263,2.206,6.174,3.08,8.117,3.08c5.467,0,5.792-6.435,8.575-11.343      c1.207-2.747-0.042-5.952-2.768-7.18l-5.911-2.622c0.437-2.893,0.5-5.848,0.229-8.762l6.015-2.31      C167.873,187.857,169.315,184.742,168.225,181.909z M136.153,153.25l8.117,3.601c2.441,1.071-0.377,4.132-1.457,7.43      c-3.392-2.269-7.18-3.975-11.176-4.995C133.587,155.498,133.84,152.198,136.153,153.25z M102.852,155.83l8.283-3.205      c0.688-0.306,1.807,0.004,2.165,0.957l2.04,5.286c-4.171,0.825-8.083,2.378-11.426,4.391l-2.04-5.266      C101.541,157.141,101.978,156.163,102.852,155.83z M81.124,181.201l3.601-8.117c1.076-2.482,4.26,0.415,7.389,1.436      c-2.269,3.413-3.954,7.222-4.974,11.197C84.225,184.047,80.037,183.677,81.124,181.201z M80.499,206.218      c-0.97-2.547,3.28-2.704,6.244-4.204c0.716,3.779,2.261,7.861,4.412,11.405C82.033,216.894,85.278,217.133,80.499,206.218z       M109.075,236.23l-8.117-3.601c-2.463-1.082,0.408-4.227,1.457-7.43c3.392,2.289,7.18,3.975,11.176,4.995      C111.706,233.854,111.395,237.284,109.075,236.23z M142.376,233.649l-8.283,3.184c-2.482,0.992-2.697-3.189-4.225-6.223      c3.981-0.788,7.997-2.359,11.447-4.412C142.166,229.33,144.918,232.681,142.376,233.649z M134.446,225.386      c-39.418,15.515-65.139-45.43-23.664-61.314c5.837-2.235,11.543-2.679,17.441-1.727      C161.47,168.993,165.141,213.629,134.446,225.386z M164.104,208.278l-3.601,8.117c-1.076,2.482-4.26-0.416-7.389-1.436      c2.057-3.029,3.925-7.043,4.974-11.197C161.003,205.432,165.191,205.802,164.104,208.278z M158.485,187.445      c-0.825-4.168-2.378-8.056-4.412-11.405c3.179-0.9,6.522-3.559,7.451-1.082l3.205,8.304      C165.697,185.744,161.421,185.958,158.485,187.445z"/>
				<path style="fill:#000E3F;" d="M138.192,179.307c-14.479-14.479-39.064-3.21-37.484,17.316      c0.585,6.369,4.302,12.422,7.784,14.86c14.467,12.359,37.081,1.379,36.068-17.837      C144.062,187.168,141.375,182.171,138.192,179.307z M105.62,201.285c-3.329-8.54,0.242-19.569,10.427-23.539      c13.218-5.152,27.369,6.23,24.392,20.688C136.747,216.456,112.056,217.796,105.62,201.285z"/>
			</g>
		</g>
		<g>
			<g>
				<g>
					<path style="fill:#6280FF;" d="M158.172,324.767c-0.21-0.063-12.384-3.7-11.634-3.476c0.412-6.399-0.351-12.394-1.727-16.983       c0.208-0.112,11.386-6.148,10.677-5.765c2.081-1.124,2.872-3.725,1.748-5.828l-6.098-11.301       c-1.098-2.043-3.676-2.907-5.848-1.748c-0.208,0.112-11.386,6.148-10.677,5.765c-4.159-4.754-9.012-8.506-13.237-10.781       c0.063-0.21,3.699-12.384,3.476-11.634c0.687-2.269-0.604-4.683-2.893-5.349l-12.3-3.684c-2.213-0.699-4.686,0.607-5.37,2.893       c-0.063,0.21-3.7,12.384-3.476,11.634c-4.864-0.47-11.76,0.16-16.983,1.727c-0.112-0.208-6.148-11.386-5.765-10.677       c-1.096-2.039-3.655-2.907-5.828-1.748c-10.501,6.079-12.508,5.76-13.383,8.658c-0.333,1.103-0.208,2.269,0.333,3.288       c0.112,0.208,6.148,11.385,5.765,10.677c-3.655,3.018-7.869,7.994-10.781,13.237c-0.21-0.063-12.384-3.7-11.634-3.476       c-2.205-0.696-4.661,0.593-5.349,2.893l-3.684,12.3c-0.677,2.242,0.569,4.668,2.893,5.37l9.761,2.914l1.852,0.562       c-0.4,6.198,0.189,11.216,1.727,16.983c-0.208,0.112-11.365,6.126-10.656,5.744c-2.101,1.158-2.873,3.729-1.748,5.848       c5.581,9.12,5.635,13.57,9.886,13.57c0.708,0,1.415-0.187,2.06-0.52c0.208-0.112,11.386-6.148,10.677-5.765       c3.061,3.672,7.778,7.747,13.237,10.781c-0.063,0.21-3.7,12.384-3.476,11.634c-0.687,2.269,0.604,4.683,2.893,5.349       c13.012,3.842,12.475,3.871,13.528,3.871c1.894,0,3.58-1.27,4.142-3.08c0.063-0.21,3.699-12.384,3.476-11.634       c4.202,0.406,10.238,0.092,16.983-1.707c0.112,0.208,6.126,11.365,5.744,10.656c1.146,2.075,3.699,2.894,5.848,1.748       l11.301-6.098c2.102-1.124,2.872-3.746,1.748-5.848c-0.112-0.208-6.148-11.386-5.765-10.677       c3.805-3.171,7.842-7.985,10.76-13.237c0.208,0.064,12.077,3.663,12.883,3.663c1.894,0,3.58-1.27,4.121-3.08l3.684-12.3       C161.742,327.895,160.496,325.468,158.172,324.767z M100.209,345.809c-2.718,1.359-15.594-0.836-22.228-7.472       c-0.021,0-0.042-0.021-0.062-0.062c-4.282-3.994-7.343-9.486-8.429-15.568c-0.055-0.109-0.24-1.535-0.271-1.998       c-1.203-2.407,1.145-15.36,4.974-19.189c0.072-0.099,1.139-1.569,1.249-1.623c0.395-0.5,0.812-0.978,1.27-1.436       c0-0.021,0.021-0.042,0.062-0.062c4.588-4.919,10.969-8.04,17.566-8.679c2.821-1.411,15.747,0.97,22.249,7.472       c0.021,0,0.021,0,0.042,0.062c4.376,4.039,7.399,9.623,8.429,15.589c0.083,0.082,0.246,1.602,0.271,1.977       c0.143,0.288,1.132,10.42-4.912,19.085c0,0.021-0.021,0.042-0.062,0.062c-0.333,0.52-0.728,1.041-1.166,1.54       c0,0.042-0.021,0.062-0.083,0.104c-0.375,0.499-0.791,0.978-1.27,1.457c0.021,0.021,0,0.042-0.042,0.062       C112.83,342.457,105.75,345.451,100.209,345.809z"/>
				</g>
				<path style="opacity:0.5;fill:#FFFFFF;" d="M94.877,283.004c-30.396,3.766-33.21,30.14-33.112,29.932      c-0.275,1.462-2.398,1.404-2.594-0.072c-2.555-19.509,17.243-37.562,35.918-32.449c1.388,0.38,1.247,2.407-0.185,2.587      L94.877,283.004z"/>
			</g>
			<g>
				<path style="fill:#000E3F;" d="M158.714,322.977l-10.219-3.059c0.208-4.87-0.271-9.803-1.478-14.652      c7.637-4.609,11.126-4.724,12.342-8.741c0.479-1.582,0.312-3.247-0.479-4.704l-6.098-11.301      c-1.672-3.087-5.502-4.096-8.367-2.498l-9.387,5.057c-3.351-3.663-7.222-6.806-11.447-9.324      c2.195-8.754,4.538-11.296,2.581-14.902c-1.962-3.713-5.443-3.057-15.963-6.66c-0.583-0.187-1.186-0.271-1.769-0.271      c-2.726,0-5.162,1.811-5.932,4.412l-3.059,10.198c-4.812-0.138-9.346,0.165-14.652,1.499      c-4.081-6.245-4.718-12.613-10.51-12.613c-1.02,0-2.019,0.25-2.935,0.749c-9.869,5.841-13.127,5.786-14.278,9.761      c-1.189,3.93,1.589,5.881,5.515,14.049c-3.642,3.372-6.785,7.222-9.303,11.468c-10.156-2.957-10.332-3.309-11.967-3.309      c-2.706,0-5.141,1.811-5.932,4.412c-2.847,11.133-5.163,13.359-3.184,17.004c1.921,3.633,5.454,3.102,13.861,6.056      c-0.229,4.933,0.271,9.844,1.499,14.652c0,0,0,0,0,0.021c-7.719,4.637-11.191,4.744-12.342,8.721      c-0.479,1.582-0.312,3.247,0.479,4.704l6.098,11.301c1.082,1.998,3.164,3.247,5.432,3.247c2.576,0,3.406-1.226,12.321-5.807      c3.351,3.663,7.201,6.785,11.426,9.303l-3.059,10.219c-0.458,1.582-0.291,3.247,0.5,4.704c0.77,1.457,2.081,2.518,3.663,2.976      l12.3,3.684c0.583,0.187,1.166,0.271,1.769,0.271c2.706,0,5.141-1.811,5.932-4.412l3.059-10.198      c4.773,0.136,9.207-0.165,14.652-1.499l5.057,9.366c1.082,1.998,3.164,3.247,5.453,3.247c1.02,0,2.019-0.271,2.935-0.749      l11.301-6.098c2.997-1.623,4.121-5.37,2.498-8.367l-5.057-9.387c3.663-3.372,6.785-7.243,9.282-11.426l10.24,3.059      c3.289,0.974,6.728-0.948,7.68-4.163l3.684-12.3C163.833,327.41,161.981,323.955,158.714,322.977z M146.184,281.31      c0.375-0.187,0.77-0.291,1.166-0.291c0.853,0,1.686,0.458,2.144,1.29l6.098,11.301c0.624,1.186,0.187,2.664-0.999,3.288      l-8.679,4.683c-1.842-5.568-4.667-10.869-8.408-15.589L146.184,281.31z M109.117,255.773l12.3,3.684      c1.29,0.375,2.04,1.748,1.644,3.039l-2.831,9.428c-5.266-2.643-10.989-4.371-16.962-5.078      C106.008,259.376,105.46,254.777,109.117,255.773z M60.831,268.864c-0.645-1.186-0.187-2.664,0.999-3.309      c11.715-6.212,11.378-6.389,12.446-6.389c0.874,0,1.707,0.458,2.144,1.29l4.683,8.658c-5.486,1.829-10.863,4.683-15.589,8.429      L60.831,268.864z M36.938,308.949c-1.29-0.375-2.019-1.727-1.644-3.018c3.663-10.346,2.882-14.906,6.723-13.945l9.428,2.831      c-2.737,5.474-4.45,11.462-5.078,16.962L36.938,308.949z M47.22,354.508c-2.54,0-2.257-2.392-8.242-12.592      c-0.645-1.186-0.187-2.664,0.999-3.288l8.658-4.662c1.861,5.541,4.722,10.892,8.429,15.568      C48.323,354.136,48.326,354.508,47.22,354.508z M88.471,378.11c-0.312,1.061-1.27,1.748-2.331,1.748      c-0.229,0-0.458-0.042-0.687-0.104l-12.321-3.684c-1.27-0.395-2.019-1.748-1.623-3.039l2.831-9.428      c5.266,2.643,10.989,4.371,16.962,5.078L88.471,378.11z M133.738,366.663c0.624,1.186,0.187,2.664-0.999,3.309      c-11.571,6.125-11.358,6.39-12.446,6.39c-0.874,0-1.707-0.458-2.144-1.29l-4.683-8.658c5.458-1.819,10.807-4.647,15.589-8.429      L133.738,366.663z M92.383,365.04c-7.918-0.836-15.36-3.755-20.313-6.993c-25.619-15.952-22.099-42.848-22.207-43.27      c2.298-35.689,41.682-56.349,72.616-37.317C164.089,303.631,143.389,370.145,92.383,365.04z M159.276,329.596l-3.684,12.3      c-0.35,1.191-1.596,2.038-3.039,1.644l-9.47-2.831c2.664-5.328,4.391-11.072,5.078-16.962l9.47,2.831      C158.922,326.952,159.65,328.305,159.276,329.596z"/>
				<path style="fill:#000E3F;" d="M115.361,293.715h-0.021c-0.437-0.333-0.874-0.645-1.332-0.937v-0.021      c-14.092-9.298-33.018-5.403-41.729,8.283c-9.309,13.935-5.397,33.403,8.283,41.729v0.021      c14.358,9.532,33.53,4.908,41.709-8.304h0.021C132.019,319.985,126.8,301.834,115.361,293.715z M79.646,337.338      c-17.384-15.645-6.473-43.669,13.57-45.58c0.323-0.323,10.156-1.571,18.482,3.913l-0.042,0.021      c0.416,0.25,0.833,0.541,1.228,0.853l0.021-0.042c0.708,0.499,1.353,1.041,2.019,1.686h0.021      c0.354,0.312,0.708,0.645,1.041,0.999c0.021,0,0.021,0.021,0,0.021c3.545,3.545,6.092,8.382,7.139,13.112l-0.083-0.021      c0.104,0.499,0.208,0.978,0.271,1.478l0.083-0.042c0.146,0.916,0.25,1.811,0.291,2.706l-0.104-0.042      c0.042,0.5,0.042,0.978,0.042,1.478l0.104-0.062C123.654,337.976,98.986,353.912,79.646,337.338z"/>
			</g>
		</g>
	</g>
	<g>
		<g>
			<g>
				<path style="fill:#322BBF;" d="M314.633,473.028c-3.163-0.067-6.179-1.132-8.711-3.077L118.097,325.614      c-6.514-5.008-7.74-14.38-2.736-20.894l64.04-83.334c2.846-3.701,7.154-5.825,11.823-5.825c3.305,0,6.443,1.069,9.073,3.089      l187.825,144.337c6.514,5.008,7.74,14.382,2.734,20.896l-64.04,83.334c-2.841,3.695-7.142,5.817-11.799,5.817L314.633,473.028z"/>
				<path style="fill:#00D5FE;" d="M297.568,443.323c-2.435,0-4.844-0.817-6.78-2.303l-16.744-12.88l-36.274-27.866l-32.317-24.849      l-65.151-50.06c-4.864-3.734-5.787-10.734-2.057-15.603l51.916-67.548c1.163-1.532,2.724-2.74,4.506-3.484      c1.209-0.524,2.534-0.821,3.913-0.87l0.39-0.008c1.13,0,2.268,0.181,3.386,0.539c1.165,0.343,2.323,0.941,3.404,1.764      l50.991,39.199l99.519,76.481c2.358,1.823,3.868,4.435,4.256,7.356c0.39,2.974-0.392,5.904-2.207,8.252l-51.908,67.544      c-1.126,1.445-2.579,2.595-4.211,3.339l-0.209,0.096c-0.079,0.039-0.163,0.069-0.248,0.096c0.002,0.002-0.083,0.041-0.227,0.075      C300.255,443.078,298.928,443.323,297.568,443.323z"/>
				<path style="opacity:0.75;fill:#FFFFFF;" d="M153.35,317.966c9.074-15.156,27.941-39.818,40.307-52.597      c0.579-0.599,1.535-0.614,2.134-0.035c0.514,0.498,0.597,1.274,0.243,1.862c-9.225,15.339-28.18,39.86-40.449,52.488      C154.419,320.884,152.487,319.407,153.35,317.966z"/>
				<path style="opacity:0.25;fill:#322BBF;" d="M204.629,241.647l150.497,115.664c1.961,1.51,3.223,3.698,3.544,6.129      c0.323,2.454-0.332,4.903-1.842,6.863l-51.9,67.538c-0.929,1.195-2.134,2.161-3.502,2.777l-0.219,0.101      c-0.066,0.032-0.13,0.063-0.199,0.073c-7.43-8.469-6.897-21.603,9.69-41.759c39.329-47.848,2.476-51.803-98.647-135.344      c-7.202-5.943-11.034-14.705-10.271-23.512C202.81,240.487,203.773,240.996,204.629,241.647z"/>
				<path style="opacity:0.25;fill:#000E3F;" d="M199.155,220.135l187.824,144.338c5.71,4.388,6.779,12.558,2.391,18.268      l-64.04,83.334c-2.631,3.423-6.641,5.184-10.649,5.08c-3.988-31.93,51.094-71.22,52.407-90.974      c1.178-17.861-20.897-28.928-32.754-38.359c-28.705-22.813-115.149-90.43-154.767-117.578l1.32-1.717      C185.275,216.818,193.445,215.747,199.155,220.135z"/>
				<path style="fill:#6280FF;" d="M344.98,424.87c-2.211,0-4.311-0.713-6.069-2.063c-4.358-3.35-5.179-9.62-1.831-13.979      c1.904-2.474,4.787-3.892,7.91-3.892c2.211,0,4.311,0.713,6.069,2.063c2.11,1.622,3.463,3.969,3.809,6.61      c0.345,2.64-0.358,5.258-1.979,7.37C350.986,423.452,348.104,424.87,344.98,424.87L344.98,424.87z"/>
			</g>
			<g>
				<path style="fill:#000E3F;" d="M198.973,239.728c0.957,0,1.91,0.159,2.813,0.449c1.026,0.301,1.993,0.825,2.837,1.469      l50.986,39.196l58.291,44.788l41.228,31.691c1.951,1.509,3.218,3.682,3.541,6.117c0.322,2.455-0.322,4.91-1.831,6.862      l-51.912,67.546c-0.925,1.187-2.132,2.153-3.501,2.777l-0.221,0.099c-0.06,0.02-0.121,0.06-0.201,0.06      c-1.107,0.45-2.273,0.671-3.435,0.671c-2.005,0-3.996-0.656-5.639-1.918l-16.74-12.878L238.91,398.79l-32.315-24.849      l-65.15-50.06c-4.065-3.12-4.81-8.934-1.71-12.979l51.912-67.546c0.965-1.268,2.253-2.274,3.743-2.898      c1.025-0.442,2.132-0.684,3.258-0.724C198.756,239.73,198.864,239.728,198.973,239.728 M198.973,235.981      c-0.157,0-0.313,0.003-0.47,0.009c-1.597,0.057-3.148,0.402-4.598,1.027c-2.046,0.857-3.871,2.268-5.241,4.069l-51.902,67.533      c-4.363,5.692-3.284,13.87,2.4,18.232l65.148,50.059l32.314,24.848l36.279,27.868l16.739,12.877      c2.266,1.739,5.078,2.695,7.924,2.695c1.559,0,3.081-0.277,4.531-0.824c0.216-0.061,0.381-0.127,0.482-0.17      c0.054-0.02,0.107-0.043,0.159-0.067l0.221-0.099c1.922-0.876,3.617-2.218,4.921-3.891l51.927-67.566      c2.114-2.735,3.031-6.159,2.575-9.632c-0.452-3.417-2.214-6.467-4.963-8.592l-41.236-31.698l-58.292-44.788l-50.985-39.196      c-1.281-0.975-2.645-1.676-4.067-2.093C201.633,236.193,200.301,235.981,198.973,235.981L198.973,235.981z"/>
				<path style="fill:#000E3F;" d="M344.99,406.808c1.722,0,3.456,0.547,4.927,1.677c3.545,2.724,4.21,7.806,1.486,11.35      c-1.593,2.074-3.996,3.162-6.424,3.162c-1.722,0-3.456-0.547-4.927-1.677c-3.545-2.724-4.21-7.806-1.486-11.351      C340.16,407.896,342.561,406.808,344.99,406.808 M344.99,403.061c-3.711,0-7.135,1.687-9.394,4.627      c-1.928,2.507-2.763,5.616-2.353,8.752c0.411,3.136,2.018,5.925,4.526,7.852c2.087,1.605,4.58,2.453,7.209,2.453      c3.711,0,7.135-1.687,9.394-4.627c1.928-2.507,2.763-5.616,2.353-8.752c-0.411-3.136-2.018-5.925-4.526-7.852      C350.112,403.909,347.619,403.061,344.99,403.061L344.99,403.061z"/>
				<path style="fill:#000E3F;" d="M191.224,217.434c2.77-0.001,5.562,0.88,7.931,2.701l187.825,144.338      c5.709,4.387,6.778,12.558,2.391,18.267l-64.041,83.334c-2.557,3.327-6.418,5.084-10.315,5.084      c-0.111,0-0.222-0.001-0.334-0.004c-2.67-0.056-5.343-0.941-7.618-2.689L119.24,324.128c-5.71-4.388-6.77-12.57-2.392-18.267      l64.041-83.334C183.455,219.186,187.318,217.434,191.224,217.434 M191.224,213.688L191.224,213.688      c-5.255,0-10.106,2.39-13.307,6.557l-64.041,83.334c-5.635,7.333-4.254,17.884,3.08,23.52L304.78,471.437      c2.85,2.191,6.248,3.389,9.822,3.464c0.125,0.003,0.269,0.005,0.413,0.005c5.246,0,10.087-2.387,13.285-6.549l64.041-83.334      c5.636-7.334,4.254-17.885-3.079-23.52L201.437,217.165C198.478,214.89,194.946,213.688,191.224,213.688L191.224,213.688z"/>
			</g>
		</g>
		<g>
			<g>
				<g>
					<path style="fill:#FC09B2;" d="M277.887,183.407c-0.167,0.271-0.333,0.541-0.52,0.791c-3.205,4.912-7.534,8.866-12.529,11.53       c-0.937,0.52-1.977,0.999-3.164,1.478c-3.975,1.603-8.179,2.414-12.488,2.414c-9.033,0-18.065-3.559-25.475-10.011       c-5.474-4.745-9.844-10.927-12.675-17.92c-4.225-10.51-4.62-21.833-1.124-31.906c3.538-10.177,10.614-17.837,19.918-21.583       c0.229-0.083,0.458-0.187,0.687-0.271c3.725-1.415,7.701-2.144,11.78-2.144c2.622,0,5.266,0.312,7.867,0.937       c0.312,0.042,0.624,0.125,0.937,0.208c0.77,0.187,1.311,0.812,1.394,1.582c0.52,4.496,1.29,8.929,2.248,13.216       c1.311,5.952,3.101,11.884,5.307,17.67c4.35,11.405,10.323,22.124,17.732,31.885       C278.262,181.888,278.303,182.741,277.887,183.407z"/>
					<path style="fill:#FC09B2;" d="M416.978,157.017c-0.708,1.665-2.019,2.935-3.684,3.601c-0.791,0.333-1.644,0.5-2.498,0.5       c-2.768,0-5.224-1.665-6.244-4.225l-0.978-2.435l-0.77-1.936l-32.301-80.15l-8.741-21.708l-0.999-2.477       c-0.687-1.665-0.666-3.476,0.042-5.141c0.708-1.644,1.998-2.935,3.663-3.601c0.812-0.333,1.665-0.479,2.518-0.479       c2.768,0,5.203,1.644,6.244,4.204l43.79,108.705C417.707,153.541,417.686,155.372,416.978,157.017z"/>
				</g>
				<g>
					<path style="fill:#FF8EDE;" d="M264.878,195.703c0.547-0.303,0.905-0.86,0.957-1.484c0.051-0.622-0.214-1.23-0.703-1.62       c-5.811-4.614-10.951-10.15-15.28-16.457c-14.595-21.302-16.65-46.579-16.857-56.457c-0.012-0.577-0.289-1.118-0.752-1.461       c-0.327-0.246-0.719-0.374-1.12-0.374c-0.165,0-0.331,0.022-0.494,0.067c-0.283,0.077-0.571,0.181-0.793,0.281       c-19.132,7.715-27.561,31.713-18.788,53.495c2.762,6.868,7.087,13.002,12.512,17.758c0.059,0.063,0.12,0.124,0.187,0.181       c0,0,1.35,1.132,1.35,1.132c8.432,6.89,19.912,10.377,30.692,8.202c2.006-0.405,3.973-0.995,5.872-1.757       C262.855,196.736,263.908,196.244,264.878,195.703z"/>
					<path style="fill:#FF8EDE;" d="M365.262,217.57c-1.199-1.228-2.817-1.876-4.677-1.876c-0.27,0-0.546,0.03-0.822,0.056       c0.968-2.527,0.818-5.423-0.467-7.823c-1.406-2.626-3.913-4.272-6.876-4.516c-0.215-0.016-0.431-0.026-0.648-0.026       c-0.051,0-0.101,0.015-0.151,0.016c0.276-1.692,0.165-3.477-0.46-5.097c-0.884-2.299-2.569-3.965-4.744-4.693       c-1.016-0.339-2.106-0.512-3.242-0.512c-0.215,0-0.433,0.035-0.649,0.047c0.396-1.898,0.278-3.743-0.452-5.388       c-1.276-2.88-4.144-4.598-7.673-4.598c-0.368,0-0.746,0.043-1.123,0.08c0.416-1.129,0.749-2.261,0.908-3.391       c0.562-3.85-2.581-6.327-5.64-6.473c-1.519-0.062-3.164,0.104-4.933,0.5c-8.325,1.832-18.877,8.263-25.891,13.924       c-1.374,1.124-2.602,2.206-3.663,3.205c-15.222,14.442-14.817,27.856-14.101,41.665c-0.45,4.288-0.3,7.744-0.196,10.054       c0.043,0.965,0.081,1.799,0.041,2.175c-1.894,18.03-10.412,31.518-19.729,44.879c-1.043,1.496-4.215,6.049,14.563,21.124       c10.833,8.715,26.971,19.018,32.353,19.766c0.085,0.012,0.372,0.035,0.459,0.035c2,0,2.356-1.581,3.002-4.451       c0.581-2.575,1.661-7.37,4.175-16.11c1.599-5.557,10.443-34.095,13.144-37.678c1.047-1.427,2.344-2.547,3.986-3.963       c3.22-2.776,7.632-6.583,13.577-15.666c2.835-4.331,4.99-9.436,6.419-14.832c5.389-0.572,12.283-5.924,14.663-11.573       C367.869,222.966,367.461,219.82,365.262,217.57z"/>
				</g>
				<path style="fill:#6280FF;" d="M403.575,154.457c-3.954-0.312-7.992-0.458-12.071-0.458c-22.374,0-46.745,4.308-72.47,12.821      c-14.215,4.683-27.431,10.115-39.274,16.13c-0.541,0.271-1.061,0.541-1.582,0.812l-0.812,0.437      c0.187-0.25,0.354-0.52,0.52-0.791c0.416-0.666,0.375-1.519-0.104-2.123c-7.409-9.761-13.383-20.48-17.732-31.885      c-2.206-5.786-3.996-11.718-5.307-17.67c-0.957-4.287-1.727-8.721-2.248-13.216c-0.083-0.77-0.624-1.394-1.394-1.582      c-0.312-0.083-0.624-0.166-0.937-0.208c2.081-0.604,70.222-19.939,111.598-66.06l8.741,21.708l32.301,80.15L403.575,154.457z"/>
				<g style="opacity:0.5;">
					<path style="fill:#FFFFFF;" d="M223.289,144.146c-3.511,17.676,4.268,32.269,4.211,32.145c0.787,1.73-1.425,3.274-2.78,1.928       c-11.662-11.648-12.302-34.169-0.762-46.491c1.226-1.308,3.348,0.064,2.68,1.714       C226.64,133.442,224.059,140.399,223.289,144.146z"/>
					<path style="fill:#FFFFFF;" d="M327.174,92.722c-10.473,15.462-33.994,30.567-63.236,30.11       c-1.985-0.031-2.304-2.892-0.363-3.349c14.72-3.468,27.663-5.554,47.55-18.422c13.619-8.92,14.037-12.404,15.919-10.295       C327.541,91.321,327.575,92.131,327.174,92.722z"/>
				</g>
				<g>
					<path style="fill:#FC09B2;" d="M297.396,154.297c-4.143-0.064-6.109-2.637-5.422-5.366c2.019-8.019,17.658-11.485,17.923-3.708       C310.026,149.004,304,154.399,297.396,154.297z"/>
					<path style="fill:#FC09B2;" d="M350.481,131.607c2.817-3.039,2.315-6.238-0.132-7.627c-7.191-4.082-20.504,4.826-15.066,10.392       C337.927,137.079,345.991,136.452,350.481,131.607z"/>
				</g>
				<g style="opacity:0.5;">
					<path style="fill:#FC09B2;" d="M327.439,271.539c-3.177,4.214-13.878,35.521-14.616,38.082       c-5.281,18.376-4.263,19.372-5.576,19.19c-4.411-0.613-19.678-9.912-31.437-19.37c17.957-8.411,22.238-34.811,42.923-38.928       C320.722,270.113,326.129,269.989,327.439,271.539z"/>
					<g>
						<path style="fill:#FC09B2;" d="M264.69,194.067c-0.958,0.532-2.317,1.711-3.345,2.118c-5.362,2.128-11.648,2.678-17.346,1.735        c-0.044-0.007-0.253-0.162-0.297-0.17c-5.584-0.98-11.259-3.43-15.873-6.72c-1.159-0.827-2.342-1.961-3.432-2.877        c4.576-0.159,9.636-0.772,13.838-2.51c4.061-1.685,7.958-5.279,10.263-9.003C252.647,182.687,258.324,189.012,264.69,194.067z        "/>
					</g>
				</g>
				<g style="opacity:0.25;">
					<g>
						<path style="fill:#000E3F;" d="M276.293,182.416c-3.033,4.894-7.201,8.92-12.326,11.651        c-6.366-5.055-11.51-10.818-15.66-16.865c1.897-3.033,2.855-6.509,2.305-10.056c-0.958-6.207-1.33-12.804-1.862-19.082        c-0.514-6.03,0.887-11.243,4.168-15.908c1.224,5.516,2.961,11.563,5.391,17.912        C263.702,164.219,270.671,175.02,276.293,182.416z"/>
					</g>
					<g>
						<path style="fill:#000E3F;" d="M402.805,152.521c-30.553-2.102-61.002,4.808-84.375,12.508        c-14.985,4.953-28.222,10.531-39.523,16.255c0.853-2.997,2.123-5.848,3.725-8.367c11.863-18.627,35.402-20.646,44.102-23.206        c11.322-3.309,29.721-7.805,35.86-19.148c8.304-15.339,2.331-41.105,7.909-58.192L402.805,152.521z"/>
					</g>
				</g>
				<g>
					<path style="fill:#322BBF;" d="M356.861,238.159c-0.687,1.686-2.255,4.713-3.94,5.775l-0.408,0.408       c-1.394,0.916-3.457,2.181-5.163,2.514c-0.791,0.146-1.566,0.008-2.378,0.008c-0.312,0-1.25,0.079-1.563,0.059       c-7.035-0.562-14.243-6.982-18.343-11.956c-3.018-3.642-5.75-7.665-8.56-12.161c0-0.021-0.319-0.93-0.34-0.951       c-1.29-4.849-2.904-8.81-5.027-12.161c0.021-0.021-0.361-1.27-0.34-1.291c0.52-0.375,2.8-1.623,3.737-2.31       c1.332,1.79,3.742,3.237,6.114,3.737c-0.125,0.395,0.287,1.643,0.204,2.038c-0.624,2.726-0.301,4.337,1.427,6.522       c1.644,2.123,4.304,3.183,6.864,3.329c-0.416,2.664,0.592,5.446,2.799,7.881c1.956,2.165,3.483,2.921,6.439,2.921       c1.415,0,3.184,0.118,4.62-0.34c0.395,1.769,1.542,3.345,3.019,4.552c1.124,0.937,1.78,0.892,3.299,1.121       c0.5,0.083,1.178,1.121,1.698,1.121c0.791,0,1.362-0.288,2.174-0.476C354.066,238.332,355.987,238.513,356.861,238.159z"/>
					<path style="fill:#322BBF;" d="M323.296,173.111c-7.659,2.269-19.26,8.73-25.504,13.434c-1.166-2.622-2.833-7.696-3.728-9.798       c7.638-3.288,17.896-7.106,26.304-9.895C320.806,168.121,322.692,171.717,323.296,173.111z"/>
				</g>
			</g>
			<g>
				<path style="fill:#000E3F;" d="M418.768,151.168L374.958,42.463c-1.311-3.268-4.433-5.37-7.971-5.37      c-1.103,0-2.185,0.208-3.205,0.624c-2.123,0.853-3.809,2.477-4.704,4.6c-0.895,2.102-0.916,4.454-0.062,6.577l0.541,1.353      c-39.648,43.603-103.293,62.75-109.454,64.519c-7.255-1.567-14.945-0.938-21.764,2.044      c-10.949,4.788-17.862,14.588-21.173,25.762c-3.641,12.29-0.661,26.751,6.036,37.484c8.133,13.035,22.852,22.28,38.511,21.257      c4.837-0.316,10.38-1.479,14.478-4.211c4.912-2.685,9.199-6.618,12.467-11.468l0.333-0.166c0.52-0.291,1.041-0.562,1.582-0.833      c3.663-1.852,7.451-3.663,11.364-5.39c0.999,2.352,2.165,5.057,3.497,8.034c-0.999,0.833-1.894,1.623-2.664,2.352      c-4.163,3.954-7.846,8.471-10.427,13.612c-6.056,11.988-4.6,23.019-4.579,35.319v0.291c0,3.497-0.125,7.118-0.562,10.885      c0,0.021,0,0.062-0.021,0.083c-2.747,15.11-10.386,27.036-18.648,38.878c-3.601,5.182,0.999,12.488,14.944,23.664      c11.031,8.887,27.41,19.356,33.259,20.168c0.271,0.021,0.5,0.042,0.708,0.042c3.497,0,4.183-2.997,4.829-5.911      c0.583-2.56,1.665-7.326,4.163-16.005c2.31-8.055,10.552-34.029,12.821-37.047c0.937-1.29,2.102-2.31,3.725-3.684      c3.309-2.851,7.826-6.764,13.924-16.067c1.165-1.769,2.206-3.684,3.143-5.682c3.809-1.166,7.056-3.642,8.783-6.847      c0.832-1.561,1.27-3.184,1.332-4.829c3.559-2.518,6.577-6.036,7.971-9.345c1.748-4.142,1.186-8.117-1.54-10.885      c-1.207-1.228-2.706-2.019-4.433-2.31c0.333-2.352-0.062-4.787-1.207-6.91c-1.54-2.872-4.163-4.787-7.284-5.37      c-0.021-1.374-0.271-2.768-0.749-4.058c-1.103-2.831-3.184-4.87-5.911-5.786c-0.749-0.25-1.54-0.437-2.352-0.52      c0.021-1.499-0.271-2.955-0.874-4.308c-1.394-3.184-4.329-5.224-7.971-5.64c0.104-0.416,0.167-0.833,0.229-1.249      c0.312-2.123-0.25-4.163-1.561-5.744c-1.394-1.686-3.58-2.768-5.848-2.872c-1.228-0.062-2.518,0.042-3.871,0.25      c-0.666-1.519-1.228-2.935-1.727-4.267c24.288-7.701,47.307-11.613,68.474-11.613c3.642,0,7.243,0.125,10.76,0.375l0.541,1.353      c1.332,3.268,4.454,5.39,7.992,5.39c1.103,0,2.185-0.208,3.205-0.624C418.394,160.596,420.537,155.581,418.768,151.168z       M260.966,195.479c-3.829,1.519-7.826,2.269-11.801,2.269c-9.496,0-18.791-4.304-25.589-10.807      c-10.655-10.19-16.002-25.32-13.568-39.972c1.978-11.908,9.437-22.11,20.53-27.04c0.187-0.083,0.395-0.146,0.583-0.208      c0.208,10.219,2.289,35.735,17.191,57.485c4.142,6.036,9.282,11.801,15.651,16.858      C263.006,194.604,262.007,195.062,260.966,195.479z M274.12,185.509c-1.977,2.539-4.308,4.766-6.972,6.577      c-0.229-0.354-0.52-0.687-0.853-0.957c-5.661-4.496-10.677-9.886-14.902-16.047c-14.298-20.896-16.317-45.726-16.525-55.445      c0-0.354-0.062-0.708-0.187-1.041c2.518-0.624,5.078-0.937,7.638-0.937c1.519,0,3.059,0.104,4.579,0.333      c1.249,0.187,2.498,0.437,3.746,0.749c0.146,1.207,0.291,2.456,0.499,3.746c0.104,0.812,0.229,1.644,0.375,2.477      c0.375,2.269,0.833,4.683,1.394,7.18c0.062,0.291,0.125,0.583,0.208,0.895c0.146,0.666,0.312,1.332,0.479,1.998      c0.666,2.685,1.436,5.495,2.373,8.388c0.375,1.145,0.77,2.31,1.186,3.497c0.354,1.041,0.749,2.081,1.145,3.143      c5.39,14.153,12.363,24.954,18.003,32.343C275.639,183.49,274.911,184.51,274.12,185.509z M295.391,177.746      c7.638-3.288,15.693-6.327,24.101-9.116c0.437,1.27,0.957,2.602,1.561,3.996c-7.659,2.269-16.317,7.534-22.561,12.238      C297.326,182.242,296.286,179.848,295.391,177.746z M352.147,243.077v0.021c-1.394,0.916-3.059,1.561-4.766,1.894      c-0.791,0.146-1.623,0.229-2.435,0.229c-0.312,0-0.624,0-0.937-0.021c-7.035-0.562-13.57-6.41-17.67-11.385      c-3.018-3.642-5.973-7.826-8.783-12.321c0-0.021,0-0.021-0.021-0.042c-1.29-4.849-3.205-9.262-5.328-12.613      c0.021-0.021,0.062-0.042,0.083-0.062c0.52-0.375,1.228-0.853,2.165-1.54c1.332,1.79,3.288,2.997,5.661,3.497      c-0.125,0.395-0.25,0.791-0.333,1.186c-0.624,2.726-0.042,5.432,1.686,7.617c1.644,2.123,4.204,3.497,6.764,3.642      c-0.416,2.664,0.208,5.307,2.414,7.742c1.956,2.165,4.558,3.309,7.513,3.309c1.415,0,2.851-0.271,4.287-0.728      c0.395,1.769,1.353,3.33,2.831,4.537c1.124,0.937,2.498,1.54,4.017,1.769c0.499,0.083,0.999,0.125,1.519,0.125      c0.791,0,1.603-0.083,2.414-0.271c0.874-0.167,1.748-0.437,2.622-0.791C355.165,240.559,353.833,242.016,352.147,243.077z       M360.576,217.561c3.419,0,5.293,3.212,4.681,6.312c-0.666,3.378-3.212,6.325-5.785,8.465c-1.547,1.294-3.324,2.363-5.182,3.143      c-2.11,0.8-4.744,1.191-6.639-0.333c-2.803-2.254-1.471-6.21,0.125-8.741c1.851-2.936,4.535-5.42,7.513-7.18      C356.857,218.3,358.733,217.561,360.576,217.561z M351.772,205.273c0.437,0.001,0.881,0.037,1.332,0.112      c3.975,0.833,6.077,4.912,5.203,8.679c-1.061,0.229-2.123,0.583-3.184,1.061c-2.749,1.24-5.294,3.17-7.347,5.37      c-2.227,2.269-3.975,4.87-4.829,7.284c-0.208,0.583-0.375,1.166-0.479,1.727c-1.498,0.624-2.955,0.978-4.308,0.978      c-4.053,0-6.993-3.748-6.036-7.659c1.04-4.249,4.72-7.758,7.826-10.614C343.162,209.258,347.09,205.262,351.772,205.273z       M341.652,195.07c1.399-0.207,2.812-0.142,4.168,0.326c2.609,0.9,4.079,3.638,4.121,6.285c-0.916,0.146-1.811,0.416-2.685,0.77      c-3.73,1.51-6.901,4.231-9.803,6.951c-3.184,2.914-6.348,6.431-8.034,10.053c-0.187,0.021-0.354,0.021-0.541,0.021h-0.062      c-2.831,0-6.285-2.789-5.37-6.702c0.516-2.204,1.567-4.283,2.81-6.161c2.04-3.122,4.891-6.119,8.013-8.283      C336.363,196.852,338.984,195.465,341.652,195.07z M334.186,185.967c0.146-0.312,0.291-0.624,0.416-0.937      c3.205,0.083,5.432,1.852,6.077,4.454c0.167,0.604,0.229,1.249,0.187,1.956c-0.957,0.167-1.915,0.416-2.851,0.749      c-1.988,0.707-3.861,1.722-5.599,2.914c-4.496,3.059-8.492,7.576-10.802,12.071c-1.852-0.187-3.309-0.999-4.204-2.248      c0.062-0.042,0.125-0.083,0.187-0.146c5.619-4.6,9.928-8.908,12.987-12.966C331.929,189.978,333.233,188.04,334.186,185.967z       M326.338,175.298c1.848-0.186,3.958-0.112,5.246,1.47c1.84,2.261,0.114,5.828-0.999,8.055c-0.586,1.172-1.262,2.336-2.04,3.393      c-2.664,3.85-6.66,8.055-12.009,12.55c-2.061,1.732-4.162,3.388-6.369,4.933c-1.748,1.223-2.878,2.522-1.498,4.579      c2.185,3.288,4.183,7.826,5.453,12.8c1.582,6.119,2.123,12.904,0.708,18.815c-0.229,0.999,0.395,2.019,1.394,2.248      c0.999,0.229,2.019-0.375,2.269-1.394c0.895-3.809,1.082-7.93,0.728-12.03c1.374,1.956,2.789,3.746,4.225,5.474      c3.684,4.454,11.197,12.03,20.272,12.737c0.416,0.042,0.812,0.042,1.228,0.042c0.167,0,0.354,0,0.52-0.021      c-0.541,0.978-1.103,1.936-1.707,2.851c-8.887,13.612-14.132,14.964-17.503,19.564c-3.184,4.204-12.696,35.694-13.424,38.254      c-4.995,17.358-4.371,19.21-5.391,19.21c-0.062,0-0.125,0-0.187-0.021c-4.412-0.604-19.689-9.907-31.448-19.356      c-9.407-7.555-16.567-15.214-14.194-18.607c10.24-14.673,19.738-27.835,20.063-45.746c0.111-6.082-0.103-8.765-0.3-13.02      c-0.21-4.531-0.4-9.074,0.029-13.599c0.791-8.325,3.934-16.609,13.945-26.12c0.52-0.5,1.082-0.999,1.686-1.54      c0.937-0.791,1.936-1.623,3.039-2.477c6.452-5.016,15.277-10.281,22.478-12.259C323.766,175.72,325.05,175.428,326.338,175.298z       M391.504,152.126c-25.183,0-49.722,5.474-69.639,11.801c-1.166,0.354-2.31,0.728-3.434,1.103      c-0.042,0.021-0.104,0.042-0.146,0.042c-8.721,2.893-16.858,5.994-24.351,9.199c-1.166,0.52-2.31,1.02-3.434,1.519      c-3.767,1.686-7.368,3.372-10.781,5.099c-0.104-0.271-0.271-0.52-0.437-0.749c-7.326-9.615-13.195-20.168-17.483-31.406      c-2.165-5.682-3.934-11.551-5.224-17.399c-0.957-4.204-1.686-8.596-2.206-13.029c-0.042-0.291-0.104-0.562-0.208-0.833      c14.444-4.475,70.014-23.664,106.957-63.375l39.586,98.278C397.623,152.209,394.563,152.126,391.504,152.126z M412.608,158.89      c-0.604,0.229-1.207,0.354-1.811,0.354c-1.811,0-3.497-0.999-4.329-2.664c-0.083-0.125-0.125-0.25-0.187-0.375l-1.415-3.538      L363.906,51.017l-1.415-3.517c-0.042-0.146-0.104-0.271-0.125-0.416c-0.749-2.373,0.458-4.953,2.81-5.89      c0.604-0.25,1.207-0.354,1.811-0.354c1.936,0,3.746,1.145,4.496,3.039l43.811,108.705      C416.292,155.06,415.085,157.891,412.608,158.89z"/>
				<path style="fill:#000E3F;" d="M324.57,121.593c-0.937,0.416-1.374,1.519-0.957,2.456c1.603,3.663,1.228,8.679-2.602,10.802      c-1.561,0.853-3.247,0.978-4.995,0.354c-2.352-0.853-4.496-3.018-5.495-5.515c-0.375-0.978-1.457-1.436-2.414-1.061      c-0.978,0.375-1.436,1.478-1.061,2.435c1.394,3.497,4.329,6.452,7.701,7.659c1.145,0.416,2.31,0.624,3.455,0.624      c1.582,0,3.143-0.416,4.62-1.228c5.765-3.164,6.494-10.386,4.225-15.568C326.631,121.614,325.507,121.177,324.57,121.593z"/>
				<path style="fill:#000E3F;" d="M338.286,106.983c-0.937,0.416-1.374,1.519-0.957,2.477c1.186,2.747,1.061,6.369-1.207,7.659      c-0.791,0.437-1.686,0.52-2.643,0.167c-1.707-0.604-3.372-2.352-4.183-4.371c-0.395-0.957-1.478-1.436-2.435-1.041      c-0.957,0.375-1.436,1.478-1.041,2.435c1.207,3.059,3.663,5.557,6.41,6.514c0.812,0.291,1.644,0.437,2.435,0.437      c1.145,0,2.269-0.312,3.309-0.895c4.267-2.414,4.62-8.2,2.789-12.404C340.346,107.004,339.243,106.567,338.286,106.983z"/>
				<path style="fill:#000E3F;" d="M299.491,123.571c-0.937,0.416-1.374,1.519-0.957,2.456c1.207,2.747,1.082,6.369-1.207,7.659      c-0.791,0.458-1.686,0.52-2.643,0.187c-1.707-0.604-3.372-2.352-4.183-4.371c-0.375-0.957-1.478-1.436-2.435-1.041      c-0.957,0.375-1.415,1.457-1.041,2.435c1.207,3.039,3.663,5.536,6.41,6.514c0.812,0.271,1.644,0.416,2.435,0.416      c1.166,0,2.269-0.291,3.309-0.874c4.267-2.414,4.62-8.2,2.789-12.425C301.551,123.591,300.448,123.154,299.491,123.571z"/>
				<path style="fill:#000E3F;" d="M406.473,89.719c0.297,0.724,0.996,1.163,1.732,1.163c0.238,0,0.48-0.045,0.711-0.142      l48.016-19.733c0.957-0.392,1.415-1.488,1.02-2.443c-0.394-0.955-1.494-1.419-2.443-1.02l-48.016,19.734      C406.536,87.668,406.079,88.763,406.473,89.719z"/>
				<path style="fill:#000E3F;" d="M400.099,70.792c0.425,0,0.85-0.144,1.201-0.435l32.989-27.534c0.793-0.665,0.9-1.845,0.238-2.64      c-0.669-0.797-1.848-0.896-2.64-0.238l-32.989,27.534c-0.793,0.665-0.9,1.845-0.238,2.64      C399.032,70.562,399.565,70.792,400.099,70.792z"/>
				<path style="fill:#000E3F;" d="M459.228,103.501l-42.817,3.626c-1.03,0.087-1.795,0.994-1.707,2.024      c0.081,0.978,0.9,1.715,1.864,1.715c0.053,0,0.106-0.002,0.161-0.008l42.816-3.626c1.03-0.087,1.795-0.994,1.707-2.024      C461.165,104.178,460.257,103.367,459.228,103.501z"/>
			</g>
		</g>
		<g>
			<g>
				<path style="fill:#6280FF;" d="M275.186,428.531c-0.409,0-0.811-0.134-1.14-0.388l-36.276-27.868l-32.317-24.849      c-0.717-0.553-0.937-1.537-0.524-2.341l2-3.892c13.331-25.941,31.585-61.469,43.522-82.962c1.207-2.195,2.398-4.315,3.528-6.313      c10.004-17.762,12.014-19.981,13.114-20.666c1.077-0.671,2.167-1.27,3.658-1.27c3.092,0,6.677,2.268,21.762,11.819      c6.786,4.295,16.081,10.179,28.607,17.919c6.128,3.817,4.601,8.522,3.254,12.674c-0.348,1.006-0.687,2.035-1.043,3.165      c-1.858,5.925-4.366,13.349-7.667,22.697c-0.439,1.299-0.907,2.64-1.394,3.982c-12.723,35.882-35.691,93.562-37.386,97.21      c-0.24,0.516-0.701,0.894-1.254,1.03C275.485,428.513,275.335,428.531,275.186,428.531z"/>
				<path style="fill:#FFFFFF;" d="M322.589,299.806c-0.329,0.992-0.684,2.044-1.045,3.187c-2.342,7.403-5.504,16.642-9.034,26.608      c-4.632-2.506-9.551-5.255-14.672-8.283c-0.453-0.272-0.905-0.529-1.36-0.817c-13.795-8.254-29.049-18.813-44.393-33.365      c8.134-14.675,14.365-25.273,15.997-26.288c4.628-2.888,4.157-1.128,52.048,28.455      C324.718,292.168,324.102,295.17,322.589,299.806z"/>
				<path style="opacity:0.25;fill:#000E3F;" d="M312.512,329.594c-12.636,35.634-35.735,93.643-37.325,97.063l-36.278-27.867      c21.831-24.93,45.916-64.407,57.565-78.291c0.463,0.282,0.906,0.543,1.369,0.825      C302.954,324.342,307.883,327.098,312.512,329.594z"/>
				<path style="opacity:0.18;fill:#000E3F;" d="M322.589,299.806c-0.329,0.992-0.684,2.044-1.045,3.187      c-2.342,7.403-5.504,16.642-9.034,26.608c-4.632-2.506-9.551-5.255-14.672-8.283c-0.453-0.272-0.905-0.529-1.36-0.817      c0.592-0.703,1.158-1.359,1.699-1.954C303.629,312.491,310.342,304.223,322.589,299.806z"/>
				<path style="opacity:0.5;fill:#FFFFFF;" d="M259.204,304.152c-3.674,11.999-13.827,31.139-21.959,41.069      c-1.27,1.551-3.762,0.214-3.171-1.705c3.819-12.318,14.201-31.325,22.148-40.967c0.607-0.735,1.694-0.84,2.43-0.234      C259.207,302.772,259.402,303.504,259.204,304.152z"/>
			</g>
			<path style="fill:#000E3F;" d="M270.75,259.855c3.801,0,11.311,5.933,49.388,29.457c4.586,2.857,3.963,5.856,2.454,10.503     c-0.342,0.986-0.684,2.033-1.047,3.179c-2.012,6.42-4.668,14.206-7.645,22.636c-0.443,1.309-0.906,2.636-1.388,3.964     c-12.637,35.635-35.735,93.643-37.325,97.063L238.91,398.79l-32.315-24.849c13.3-25.876,32.958-64.226,45.493-86.801     c1.207-2.193,2.394-4.307,3.521-6.298c6.379-11.328,11.087-19.136,12.476-20.001C269.034,260.25,269.769,259.855,270.75,259.855      M270.75,256.108L270.75,256.108c-1.984,0.001-3.382,0.766-4.644,1.551c-1.197,0.746-2.684,1.673-13.761,21.344     c-1.13,1.996-2.324,4.123-3.539,6.329c-11.932,21.489-30.179,56.997-43.504,82.925l-2.04,3.971     c-0.827,1.609-0.385,3.579,1.049,4.682l32.314,24.849l36.279,27.868c0.662,0.508,1.465,0.775,2.283,0.775     c0.298,0,0.596-0.035,0.892-0.108c1.103-0.27,2.025-1.029,2.505-2.059c1.698-3.654,24.706-61.429,37.458-97.39     c0.483-1.328,0.954-2.681,1.407-4.015c3.287-9.303,5.801-16.749,7.672-22.716c0.348-1.101,0.679-2.115,1.01-3.07     c1.351-4.155,3.354-10.324-4.012-14.912c-12.522-7.737-21.81-13.616-28.591-17.907     C278.061,258.434,274.387,256.108,270.75,256.108L270.75,256.108z"/>
		</g>
	</g>
	<g>
		<g>
			<path style="fill:#00D5FE;" d="M428.686,268.031c-9.199,0-18.053-3.356-24.935-9.445c-8.087-7.138-12.727-17.425-12.727-28.217     c0-20.756,16.896-37.644,37.662-37.644c10.353,0,20.359,4.333,27.453,11.888c6.581,6.99,10.209,16.138,10.209,25.756     C466.348,251.135,449.452,268.031,428.686,268.031z"/>
			<path style="fill:#FFCF00;" d="M430.71,208.798l5.793,11.738c0.328,0.665,0.963,1.126,1.697,1.233l12.954,1.882     c1.849,0.269,2.587,2.541,1.249,3.845l-9.374,9.137c-0.531,0.518-0.774,1.264-0.648,1.995l2.213,12.901     c0.316,1.842-1.617,3.246-3.271,2.376l-11.586-6.091c-0.657-0.345-1.441-0.345-2.098,0l-11.586,6.091     c-1.654,0.87-3.586-0.535-3.271-2.376l2.213-12.901c0.126-0.731-0.117-1.477-0.648-1.995l-9.373-9.137     c-1.338-1.304-0.6-3.576,1.249-3.845l12.954-1.882c0.734-0.107,1.369-0.568,1.697-1.233l5.793-11.738     C427.494,207.123,429.883,207.123,430.71,208.798z"/>
			<path style="fill:#FFFFFF;" d="M429.604,220.873l2.622,5.313c0.149,0.301,0.436,0.51,0.768,0.558l5.863,0.852     c0.837,0.122,1.171,1.15,0.565,1.74l-4.242,4.135c-0.241,0.234-0.35,0.572-0.293,0.903l1.002,5.839     c0.143,0.834-0.732,1.469-1.48,1.076l-5.244-2.757c-0.297-0.156-0.652-0.156-0.949,0l-5.244,2.757     c-0.748,0.393-1.623-0.242-1.48-1.076l1.001-5.839c0.057-0.331-0.053-0.669-0.293-0.903l-4.242-4.135     c-0.605-0.59-0.271-1.619,0.565-1.74l5.863-0.852c0.332-0.048,0.62-0.257,0.768-0.558l2.622-5.313     C428.148,220.115,429.229,220.115,429.604,220.873z"/>
			<path style="opacity:0.25;fill:#322BBF;" d="M464.475,230.37c0,19.774-16.015,35.788-35.789,35.788     c-9.08,0-17.379-3.387-23.693-8.974c36.48-4.558,47.121-30.911,49.781-51.288C460.786,212.28,464.475,220.899,464.475,230.37z"/>
		</g>
		<g>
			<path style="fill:#000E3F;" d="M457.501,203.328c-7.44-7.927-17.944-12.475-28.815-12.475c-21.799,0-39.534,17.727-39.534,39.518     c0,11.33,4.87,22.128,13.362,29.623c7.221,6.39,16.518,9.911,26.172,9.911c21.799,0,39.534-17.735,39.534-39.534     C468.22,220.272,464.413,210.668,457.501,203.328z M428.686,266.158c-9.081,0-17.38-3.387-23.694-8.974     c-7.414-6.544-12.094-16.138-12.094-26.814c0-19.757,16.031-35.772,35.788-35.772c10.285,0,19.562,4.345,26.087,11.298     c6.012,6.384,9.701,15.003,9.701,24.474C464.474,250.144,448.459,266.158,428.686,266.158z"/>
			<path style="fill:#000E3F;" d="M454.755,224.605c-0.49-1.504-1.766-2.579-3.331-2.807l-12.951-1.882     c-0.126-0.018-0.234-0.097-0.291-0.209l-5.793-11.738c-0.699-1.419-2.118-2.301-3.699-2.301c-1.583,0-3.002,0.882-3.701,2.301     l-5.793,11.738c-0.057,0.114-0.163,0.191-0.291,0.209l-12.951,1.882c-1.567,0.228-2.843,1.303-3.333,2.807     c-0.49,1.506-0.089,3.128,1.045,4.234l9.374,9.136c0.09,0.087,0.13,0.213,0.11,0.337l-2.211,12.9     c-0.268,1.559,0.36,3.105,1.64,4.036c0.724,0.526,1.569,0.793,2.423,0.793c0.654,0,1.315-0.159,1.925-0.478l11.585-6.089     c0.11-0.061,0.244-0.061,0.354,0l11.587,6.087c1.394,0.736,3.065,0.616,4.343-0.311c1.282-0.931,1.913-2.478,1.644-4.038     l-2.211-12.896c-0.022-0.126,0.018-0.254,0.108-0.342l9.376-9.136C454.844,227.733,455.245,226.111,454.755,224.605z      M451.097,226.156l-9.376,9.138c-0.969,0.947-1.413,2.311-1.185,3.652l2.213,12.898c0.026,0.157-0.026,0.282-0.152,0.374     c-0.126,0.091-0.262,0.104-0.4,0.028l-11.587-6.089c-1.203-0.63-2.638-0.63-3.841,0l-11.585,6.089     c-0.14,0.075-0.276,0.065-0.403-0.028c-0.126-0.092-0.177-0.217-0.15-0.372l2.211-12.9c0.232-1.34-0.214-2.707-1.187-3.655     l-9.372-9.136c-0.114-0.11-0.146-0.242-0.097-0.392c0.049-0.148,0.152-0.236,0.309-0.258l12.955-1.882     c1.343-0.197,2.506-1.041,3.106-2.258l5.793-11.738c0.071-0.14,0.185-0.211,0.343-0.211c0.156,0,0.27,0.071,0.342,0.211     l5.793,11.738c0.6,1.218,1.76,2.061,3.106,2.258l12.955,1.882c0.154,0.022,0.258,0.11,0.307,0.258     C451.241,225.914,451.208,226.046,451.097,226.156z"/>
			<g>
				<path style="fill:#000E3F;" d="M428.528,274.899c-1.035,0-1.874,0.839-1.874,1.874v4.163c0,1.035,0.839,1.874,1.874,1.874      c1.035,0,1.874-0.839,1.874-1.874v-4.163C430.402,275.738,429.562,274.899,428.528,274.899z"/>
				<path style="fill:#000E3F;" d="M375.419,312.886h-8.101c-1.035,0-1.874,0.839-1.874,1.874c0,1.034,0.839,1.874,1.874,1.874      h8.101c1.035,0,1.874-0.839,1.874-1.874C377.293,313.726,376.453,312.886,375.419,312.886z"/>
				<path style="fill:#000E3F;" d="M397.699,312.886h-8.102c-1.034,0-1.874,0.839-1.874,1.874c0,1.034,0.84,1.874,1.874,1.874h8.102      c1.035,0,1.874-0.839,1.874-1.874C399.573,313.726,398.733,312.886,397.699,312.886z"/>
				<path style="fill:#000E3F;" d="M419.156,312.037c-1.411,0.565-2.903,0.85-4.435,0.85h-2.843c-1.035,0-1.874,0.839-1.874,1.874      c0,1.034,0.839,1.874,1.874,1.874h2.843c2.012,0,3.971-0.376,5.825-1.118c0.962-0.384,1.429-1.475,1.045-2.435      C421.207,312.118,420.113,311.655,419.156,312.037z"/>
				<path style="fill:#000E3F;" d="M428.528,293.24c-1.035,0-1.874,0.839-1.874,1.874v5.841c0,0.65-0.053,1.307-0.157,1.947      c-0.169,1.02,0.524,1.984,1.545,2.15c0.102,0.018,0.205,0.026,0.305,0.026c0.9,0,1.695-0.652,1.845-1.571      c0.138-0.839,0.209-1.699,0.209-2.553v-5.841C430.402,294.08,429.562,293.24,428.528,293.24z"/>
				<path style="fill:#000E3F;" d="M353.098,312.886h-4.163c-1.034,0-1.874,0.839-1.874,1.874c0,1.034,0.84,1.874,1.874,1.874h4.163      c1.035,0,1.874-0.839,1.874-1.874C354.972,313.726,354.132,312.886,353.098,312.886z"/>
			</g>
		</g>
	</g>
</g>
<g>
	<path style="fill:#FD8A02;" d="M395.257,440.384c0.638-3.602,1.045-6.713,2.32-8.823c1.265-2.093,4.481-1.13,4.437,1.112   c-0.07,3.667-2.263,9.273-1.445,9.749c0.567,0.329,1.514-0.516,2.189-1c3.758-2.697,5.826-4.651,8.606-5.971   c2.11-1.003,4.076,2.203,2.753,3.753c-1.276,1.494-3.134,2.565-11.04,8.573c-2.614,1.987,0.944,2.637,4.969,4.12   c2.284,0.842,4.891,2.818,3.71,4.934c-0.976,1.751-2.829,1.107-4.725,0.47c-10.039-3.374-8.771-4.54-4.167,7.513   c0.845,2.214,1.694,5.01-0.64,5.734c-2.444,0.758-3.123-1.888-5.245-6.718c-0.292-0.664-0.581-1.526-0.85-2.386   c-0.492-1.591-0.951-3.294-2.107-4.486c-1.717,0.932-1.8,2.816-2.373,4.574c-0.875,2.831-1.018,4.596-3.566,5.779   c-0.992,0.46-2.186-0.019-2.448-1.06c-1.281-5.079,4.54-10.751-0.286-9.76c-7.422,1.524-11.967,3.138-12.551,0.117   c-0.446-2.304,2.151-2.978,4.633-3.634c11.048-2.917,12.021-1.728-0.03-6.326c-5.136-1.959-3.956-7.073,3.146-4.484   c10.357,3.774,9.283,3.725,3.945-6.082c-0.347-0.638-0.773-1.246-1.026-1.919c-1.012-2.689,2.798-5.028,4.409-2.291   C393.452,441.34,394.495,444.726,395.257,440.384L395.257,440.384z"/>
</g>
<g>
	<path style="fill:#FD8A02;" d="M488.719,419.195c-2.955,0.589-5.463,1.21-7.463,0.863c-1.985-0.344-2.209-3.099-0.476-3.737   c2.834-1.044,7.791-1.042,7.911-1.812c0.083-0.533-0.849-1.007-1.423-1.38c-3.194-2.075-5.313-3.076-7.158-4.813   c-1.401-1.318,0.469-3.787,2.055-3.236c1.528,0.531,2.906,1.636,9.884,5.901c2.307,1.41,1.74-1.514,1.672-5.046   c-0.038-2.005,0.697-4.596,2.674-4.324c1.635,0.225,1.697,1.839,1.776,3.484c0.419,8.711-0.855,8.089,7.011,0.946   c1.445-1.311,3.336-2.8,4.59-1.227c1.314,1.647-0.513,2.962-3.582,6.036c-0.422,0.423-0.997,0.903-1.576,1.366   c-1.073,0.854-2.242,1.716-2.81,2.96c1.229,1.038,2.699,0.537,4.22,0.45c2.434-0.177,3.831-0.596,5.501,1.005   c0.65,0.623,0.641,1.682-0.079,2.196c-3.513,2.504-9.607-0.262-7.402,3.143c3.393,5.237,5.992,8.24,3.85,9.593   c-1.634,1.032-2.929-0.758-4.176-2.466c-5.547-7.601-4.927-8.704-4.844,1.918c0.035,4.527-4.241,5.153-4.382-1.07   c-0.207-9.075,0.077-8.237-5.848-1.204c-0.385,0.457-0.724,0.966-1.165,1.362c-1.76,1.582-4.695-0.64-3.078-2.696   C489.992,420.294,492.277,418.479,488.719,419.195L488.719,419.195z"/>
</g>
<g>
	<path style="fill:#FD8A02;" d="M461.47,337.624c-3.505,0.382-6.492,0.846-8.787,0.236c-2.278-0.605-2.255-3.84-0.169-4.405   c3.411-0.925,9.189-0.41,9.407-1.296c0.151-0.613-0.886-1.261-1.516-1.755c-3.509-2.748-5.875-4.134-7.846-6.348   c-1.497-1.681,0.937-4.365,2.728-3.559c1.726,0.777,3.219,2.207,10.911,7.897c2.544,1.882,2.184-1.585,2.469-5.709   c0.162-2.34,1.286-5.285,3.562-4.764c1.883,0.43,1.788,2.318,1.711,4.244c-0.411,10.197-1.831,9.339,8.074,1.825   c1.82-1.379,4.177-2.919,5.477-0.956c1.361,2.056-0.903,3.399-4.798,6.665c-0.536,0.449-1.255,0.949-1.977,1.43   c-1.339,0.884-2.791,1.769-3.581,3.16c1.326,1.337,3.091,0.905,4.872,0.96c2.855,0.045,4.526-0.299,6.308,1.738   c0.694,0.794,0.573,2.027-0.319,2.551c-4.353,2.556-11.17-1.297-8.951,2.9c3.414,6.453,6.133,10.222,3.497,11.578   c-2.011,1.035-3.335-1.185-4.612-3.305c-5.681-9.432-4.844-10.653-5.844,1.735c-0.426,5.279-5.474,5.569-4.997-1.699   c0.695-10.599,0.939-9.592-6.691-2.007c-0.496,0.493-0.944,1.051-1.498,1.467c-2.214,1.662-5.407-1.231-3.31-3.46   C462.841,339.036,465.692,337.157,461.47,337.624L461.47,337.624z"/>
</g>
<g>
	<path style="fill:#FD8A02;" d="M27.561,226.553c2.502,2.407,4.739,4.372,5.727,6.492c0.981,2.104-1.478,4.129-3.222,2.909   c-2.853-1.994-6.112-6.685-6.919-6.292c-0.559,0.273-0.394,1.465-0.369,2.254c0.139,4.387,0.585,7.05,0.157,9.939   c-0.325,2.193-3.891,2.048-4.413,0.186c-0.503-1.795-0.365-3.826-0.921-13.233c-0.184-3.111-2.577-0.649-5.874,1.738   c-1.871,1.355-4.806,2.365-5.85,0.316c-0.864-1.695,0.623-2.815,2.127-3.973c7.965-6.128,8.215-4.513-3.719-7.255   c-2.191-0.504-4.844-1.313-4.181-3.535c0.694-2.327,3.139-1.464,8.067-0.583c0.678,0.121,1.51,0.349,2.329,0.591   c1.514,0.453,3.099,0.992,4.649,0.711c0.173-1.846-1.268-2.907-2.351-4.288c-1.769-2.187-3.084-3.232-2.669-5.865   c0.162-1.025,1.17-1.713,2.129-1.37c4.68,1.676,6.073,9.261,7.843,4.934c2.722-6.655,3.852-11.09,6.542-9.953   c2.052,0.866,1.21,3.269,0.415,5.573c-3.541,10.249-4.992,10.388,5.002,3.321c4.259-3.012,7.665,0.621,1.871,4.849   c-8.449,6.167-7.842,5.347,2.708,6.324c0.686,0.064,1.39,0.05,2.054,0.206c2.654,0.624,2.484,4.863-0.525,4.686   C27.762,224.625,24.542,223.657,27.561,226.553L27.561,226.553z"/>
</g>
<g>
	<path style="fill:#FD8A02;" d="M52.667,115.753c2.536,1.759,4.777,3.167,5.944,4.888c1.158,1.708-0.713,3.833-2.417,3.009   c-2.786-1.347-6.31-5.004-6.963-4.544c-0.452,0.318-0.138,1.342-0.005,2.03c0.742,3.831,1.511,6.105,1.543,8.701   c0.025,1.971-3.126,2.348-3.847,0.787c-0.695-1.504-0.861-3.306-2.68-11.484c-0.601-2.704-2.354-0.206-4.91,2.356   c-1.451,1.454-3.884,2.755-5.09,1.104c-0.998-1.365,0.149-2.559,1.305-3.788c6.125-6.505,6.572-5.122-4.29-5.842   c-1.995-0.133-4.437-0.468-4.169-2.512c0.28-2.14,2.548-1.729,6.998-1.652c0.612,0.011,1.375,0.093,2.128,0.19   c1.393,0.184,2.86,0.432,4.181-0.033c-0.109-1.645-1.524-2.372-2.67-3.431c-1.861-1.669-3.164-2.4-3.172-4.77   c-0.003-0.923,0.785-1.669,1.675-1.503c4.345,0.809,6.639,7.27,7.582,3.222c1.448-6.226,1.813-10.278,4.334-9.661   c1.923,0.47,1.524,2.698,1.152,4.832c-1.659,9.496-2.913,9.823,4.859,2.207c3.312-3.246,6.816-0.539,2.328,3.992   c-6.544,6.608-6.127,5.802,3.271,5.168c0.611-0.041,1.227-0.153,1.832-0.11c2.418,0.172,2.868,3.917,0.202,4.187   C52.571,114.032,49.608,113.638,52.667,115.753L52.667,115.753z"/>
</g>
<g>
	<path style="fill:#FD8A02;" d="M145.257,101.468c-3.607,0.068-6.694,0.268-8.978-0.564c-2.266-0.826-1.947-4.12,0.231-4.505   c3.562-0.63,9.404,0.424,9.708-0.459c0.211-0.611-0.787-1.366-1.385-1.928c-3.325-3.122-5.61-4.752-7.416-7.19   c-1.372-1.85,1.355-4.364,3.107-3.378c1.688,0.95,3.079,2.544,10.398,9.049c2.421,2.151,2.371-1.416,3.04-5.593   c0.38-2.371,1.795-5.269,4.068-4.53c1.88,0.611,1.61,2.527,1.355,4.483c-1.353,10.356-2.722,9.352,8.063,2.6   c1.981-1.239,4.525-2.593,5.67-0.473c1.199,2.22-1.232,3.382-5.501,6.354c-0.587,0.409-1.366,0.852-2.147,1.277   c-1.446,0.779-3.007,1.548-3.94,2.893c1.229,1.484,3.067,1.205,4.878,1.424c2.906,0.308,4.641,0.11,6.27,2.35   c0.634,0.873,0.398,2.119-0.559,2.571c-4.671,2.207-11.267-2.345-9.39,2.136c2.889,6.891,5.315,10.981,2.504,12.121   c-2.144,0.87-3.291-1.514-4.399-3.791c-4.926-10.134-3.962-11.302-6.116,1.234c-0.918,5.342-6.09,5.175-4.937-2.19   c1.679-10.74,1.836-9.691-6.637-2.659c-0.551,0.457-1.058,0.985-1.661,1.358c-2.409,1.491-5.398-1.75-3.056-3.83   C146.525,103.033,149.603,101.378,145.257,101.468L145.257,101.468z"/>
</g>















</svg>
